<svg width="20" height="4" viewBox="0 0 20 4" fill="none" xmlns="http://www.w3.org/2000/svg">
<path d="M0 2C0 1.60444 0.117298 1.21776 0.337061 0.888861C0.556823 0.559963 0.869181 0.303617 1.23463 0.152242C1.60009 0.000866562 2.00222 -0.0387401 2.39018 0.0384303C2.77814 0.115601 3.13451 0.306083 3.41421 0.585788C3.69392 0.865493 3.8844 1.22186 3.96157 1.60982C4.03874 1.99778 3.99913 2.39992 3.84776 2.76537C3.69638 3.13082 3.44004 3.44318 3.11114 3.66294C2.78224 3.8827 2.39556 4 2 4C1.46957 4 0.960859 3.78929 0.585786 3.41421C0.210714 3.03914 0 2.53043 0 2ZM10 4C10.3956 4 10.7822 3.8827 11.1111 3.66294C11.44 3.44318 11.6964 3.13082 11.8478 2.76537C11.9991 2.39992 12.0387 1.99778 11.9616 1.60982C11.8844 1.22186 11.6939 0.865493 11.4142 0.585788C11.1345 0.306083 10.7781 0.115601 10.3902 0.0384303C10.0022 -0.0387401 9.60009 0.000866562 9.23463 0.152242C8.86918 0.303617 8.55682 0.559963 8.33706 0.888861C8.1173 1.21776 8 1.60444 8 2C8 2.53043 8.21071 3.03914 8.58579 3.41421C8.96086 3.78929 9.46957 4 10 4ZM18 1.07779e-06C17.6044 1.07779e-06 17.2178 0.117299 16.8889 0.337062C16.56 0.556825 16.3036 0.869182 16.1522 1.23463C16.0009 1.60009 15.9613 2.00222 16.0384 2.39018C16.1156 2.77814 16.3061 3.13451 16.5858 3.41421C16.8655 3.69392 17.2219 3.8844 17.6098 3.96157C17.9978 4.03874 18.3999 3.99914 18.7654 3.84776C19.1308 3.69639 19.4432 3.44004 19.6629 3.11114C19.8827 2.78224 20 2.39556 20 2C20 1.46957 19.7893 0.960861 19.4142 0.585788C19.0391 0.210715 18.5304 1.07779e-06 18 1.07779e-06Z" fill="#667085"/>
</svg>
