<svg width="20" height="20" viewBox="0 0 20 20" fill="none" xmlns="http://www.w3.org/2000/svg">
<path d="M20 1C20 1.26522 19.8946 1.51957 19.7071 1.70711C19.5196 1.89464 19.2652 2 19 2H1C0.734784 2 0.48043 1.89464 0.292893 1.70711C0.105357 1.51957 0 1.26522 0 1C0 0.734784 0.105357 0.48043 0.292893 0.292893C0.48043 0.105357 0.734784 0 1 0H19C19.2652 0 19.5196 0.105357 19.7071 0.292893C19.8946 0.48043 20 0.734784 20 1ZM19 6H14C13.7348 6 13.4804 6.10536 13.2929 6.29289C13.1054 6.48043 13 6.73478 13 7C13 7.26522 13.1054 7.51957 13.2929 7.70711C13.4804 7.89464 13.7348 8 14 8H19C19.2652 8 19.5196 7.89464 19.7071 7.70711C19.8946 7.51957 20 7.26522 20 7C20 6.73478 19.8946 6.48043 19.7071 6.29289C19.5196 6.10536 19.2652 6 19 6ZM19 12H14C13.7348 12 13.4804 12.1054 13.2929 12.2929C13.1054 12.4804 13 12.7348 13 13C13 13.2652 13.1054 13.5196 13.2929 13.7071C13.4804 13.8946 13.7348 14 14 14H19C19.2652 14 19.5196 13.8946 19.7071 13.7071C19.8946 13.5196 20 13.2652 20 13C20 12.7348 19.8946 12.4804 19.7071 12.2929C19.5196 12.1054 19.2652 12 19 12ZM1 20H19C19.2652 20 19.5196 19.8946 19.7071 19.7071C19.8946 19.5196 20 19.2652 20 19C20 18.7348 19.8946 18.4804 19.7071 18.2929C19.5196 18.1054 19.2652 18 19 18H1C0.734784 18 0.48043 18.1054 0.292893 18.2929C0.105357 18.4804 0 18.7348 0 19C0 19.2652 0.105357 19.5196 0.292893 19.7071C0.48043 19.8946 0.734784 20 1 20ZM1 11H8.586L7.293 12.293C7.19749 12.3852 7.12131 12.4956 7.0689 12.6176C7.01649 12.7396 6.9889 12.8708 6.98775 13.0036C6.9866 13.1364 7.0119 13.2681 7.06218 13.391C7.11246 13.5139 7.18671 13.6255 7.28061 13.7194C7.3745 13.8133 7.48615 13.8875 7.60905 13.9378C7.73194 13.9881 7.86362 14.0134 7.9964 14.0123C8.12918 14.0111 8.2604 13.9835 8.3824 13.9311C8.50441 13.8787 8.61475 13.8025 8.707 13.707L11.707 10.707C11.8945 10.5195 11.9998 10.2652 11.9998 10C11.9998 9.73484 11.8945 9.48053 11.707 9.293L8.707 6.293C8.5184 6.11084 8.2658 6.01005 8.0036 6.01233C7.7414 6.0146 7.49059 6.11977 7.30518 6.30518C7.11977 6.49059 7.0146 6.7414 7.01233 7.0036C7.01005 7.2658 7.11084 7.5184 7.293 7.707L8.586 9H1C0.734784 9 0.48043 9.10536 0.292893 9.29289C0.105357 9.48043 0 9.73478 0 10C0 10.2652 0.105357 10.5196 0.292893 10.7071C0.48043 10.8946 0.734784 11 1 11Z" fill="#FFDA00"/>
</svg>
