<svg width="15" height="17" viewBox="0 0 15 17" fill="none" xmlns="http://www.w3.org/2000/svg">
<path d="M4.33333 16.4167C4.5433 16.4167 4.74466 16.3333 4.89313 16.1848C5.04159 16.0363 5.125 15.835 5.125 15.625V12.4583H5.72983L13.4795 16.3375C13.6005 16.398 13.735 16.4264 13.8701 16.4202C14.0053 16.4139 14.1366 16.373 14.2515 16.3016C14.3664 16.2301 14.461 16.1304 14.5264 16.012C14.5918 15.8935 14.6257 15.7603 14.625 15.625V1.37501C14.6251 1.24005 14.5906 1.10732 14.525 0.989413C14.4593 0.87151 14.3646 0.772352 14.2498 0.701359C14.135 0.630366 14.004 0.589894 13.8692 0.583788C13.7343 0.577682 13.6002 0.606144 13.4795 0.666471L5.72983 4.54168H1.16667C0.956704 4.54168 0.75534 4.62509 0.606874 4.77355C0.458407 4.92202 0.375 5.12338 0.375 5.33335V15.625C0.375 15.835 0.458407 16.0363 0.606874 16.1848C0.75534 16.3333 0.956704 16.4167 1.16667 16.4167H4.33333ZM3.54167 14.8333H1.95833V12.4583H3.54167V14.8333ZM1.95833 6.12501H5.91667C6.03948 6.12513 6.16063 6.09667 6.27054 6.04189L13.0417 2.65593V14.3441L6.27054 10.9581C6.16063 10.9034 6.03948 10.8749 5.91667 10.875H1.95833V6.12501Z" fill="#A3AED0"/>
</svg>
