<svg width="24" height="24" viewBox="0 0 24 24" fill="none" xmlns="http://www.w3.org/2000/svg">
<path d="M3 21.9999H21C21.2652 21.9999 21.5196 21.8945 21.7071 21.707C21.8946 21.5195 22 21.2651 22 20.9999V16.9999C22 16.7347 21.8946 16.4803 21.7071 16.2928C21.5196 16.1052 21.2652 15.9999 21 15.9999H20V10.9999H21C21.2652 10.9999 21.5196 10.8945 21.7071 10.707C21.8946 10.5195 22 10.2651 22 9.99988V6.99988C22 6.8064 21.9439 6.61706 21.8385 6.45483C21.7331 6.2926 21.5828 6.16444 21.406 6.08588L12.406 2.08588C12.2782 2.0291 12.1399 1.99976 12 1.99976C11.8601 1.99976 11.7218 2.0291 11.594 2.08588L2.594 6.08588C2.41718 6.16444 2.26695 6.2926 2.16151 6.45483C2.05608 6.61706 1.99998 6.8064 2 6.99988V9.99988C2 10.2651 2.10536 10.5195 2.29289 10.707C2.48043 10.8945 2.73478 10.9999 3 10.9999H4V15.9999H3C2.73478 15.9999 2.48043 16.1052 2.29289 16.2928C2.10536 16.4803 2 16.7347 2 16.9999V20.9999C2 21.2651 2.10536 21.5195 2.29289 21.707C2.48043 21.8945 2.73478 21.9999 3 21.9999ZM4 7.64988L12 4.09388L20 7.64988V8.99988H4V7.64988ZM18 10.9999V15.9999H15.333V10.9999H18ZM13.333 10.9999V15.9999H10.667V10.9999H13.333ZM8.667 10.9999V15.9999H6V10.9999H8.667ZM4 17.9999H20V19.9999H4V17.9999ZM14 6.99988C14 7.2651 13.8946 7.51945 13.7071 7.70699C13.5196 7.89453 13.2652 7.99988 13 7.99988H11C10.7348 7.99988 10.4804 7.89453 10.2929 7.70699C10.1054 7.51945 10 7.2651 10 6.99988C10 6.73467 10.1054 6.48031 10.2929 6.29278C10.4804 6.10524 10.7348 5.99988 11 5.99988H13C13.2652 5.99988 13.5196 6.10524 13.7071 6.29278C13.8946 6.48031 14 6.73467 14 6.99988Z" fill="#5271FF"/>
</svg>
