<svg width="22" height="18" viewBox="0 0 22 18" fill="none" xmlns="http://www.w3.org/2000/svg">
<path d="M13.707 17.707C13.5184 17.8892 13.2658 17.99 13.0036 17.9877C12.7414 17.9854 12.4906 17.8803 12.3052 17.6949C12.1198 17.5095 12.0146 17.2586 12.0123 16.9964C12.01 16.7342 12.1108 16.4816 12.293 16.293L18.586 10H1C0.734784 10 0.48043 9.89468 0.292893 9.70715C0.105357 9.51961 0 9.26526 0 9.00004C0 8.73482 0.105357 8.48047 0.292893 8.29293C0.48043 8.1054 0.734784 8.00004 1 8.00004H18.586L12.293 1.70704C12.1108 1.51844 12.01 1.26584 12.0123 1.00364C12.0146 0.741443 12.1198 0.490631 12.3052 0.305222C12.4906 0.119814 12.7414 0.0146453 13.0036 0.0123669C13.2658 0.0100885 13.5184 0.110883 13.707 0.293041L21.707 8.29304C21.7996 8.38614 21.873 8.49657 21.923 8.61804C21.9738 8.73898 22 8.86885 22 9.00004C22 9.13123 21.9738 9.2611 21.923 9.38204C21.873 9.50351 21.7996 9.61394 21.707 9.70704L13.707 17.707Z" fill="#5271FF"/>
</svg>
