<svg width="89" height="4" viewBox="0 0 89 4" fill="none" xmlns="http://www.w3.org/2000/svg">
<path d="M0.433259 2.00012C0.433259 2.86541 1.13471 3.56686 2 3.56686C2.86529 3.56686 3.56674 2.86541 3.56674 2.00012C3.56674 1.13483 2.86529 0.433381 2 0.433381C1.13471 0.433381 0.433259 1.13483 0.433259 2.00012ZM85.4333 2.00012C85.4333 2.86541 86.1347 3.56686 87 3.56686C87.8653 3.56686 88.5667 2.86541 88.5667 2.00012C88.5667 1.13483 87.8653 0.433381 87 0.433381C86.1347 0.433381 85.4333 1.13483 85.4333 2.00012ZM2 2.29389H3.18056V1.70636H2V2.29389ZM5.54167 2.29389H7.90278V1.70636H5.54167V2.29389ZM10.2639 2.29389H12.625V1.70636H10.2639V2.29389ZM14.9861 2.29389H17.3472V1.70636H14.9861V2.29389ZM19.7083 2.29389H22.0694V1.70636H19.7083V2.29389ZM24.4306 2.29389H26.7917V1.70636H24.4306V2.29389ZM29.1528 2.29389H31.5139V1.70636H29.1528V2.29389ZM33.875 2.29389H36.2361V1.70636H33.875V2.29389ZM38.5972 2.29389H40.9583V1.70636H38.5972V2.29389ZM43.3194 2.29389H45.6806V1.70636H43.3194V2.29389ZM48.0417 2.29389H50.4028V1.70636H48.0417V2.29389ZM52.7639 2.29389H55.125V1.70636H52.7639V2.29389ZM57.4861 2.29389H59.8472V1.70636H57.4861V2.29389ZM62.2083 2.29389H64.5694V1.70636H62.2083V2.29389ZM66.9306 2.29389H69.2917V1.70636H66.9306V2.29389ZM71.6528 2.29389H74.0139V1.70636H71.6528V2.29389ZM76.375 2.29389H78.7361V1.70636H76.375V2.29389ZM81.0972 2.29389H83.4584V1.70636H81.0972V2.29389ZM85.8195 2.29389H87V1.70636H85.8195V2.29389ZM0.433259 2.00012C0.433259 2.86541 1.13471 3.56686 2 3.56686C2.86529 3.56686 3.56674 2.86541 3.56674 2.00012C3.56674 1.13483 2.86529 0.433381 2 0.433381C1.13471 0.433381 0.433259 1.13483 0.433259 2.00012ZM85.4333 2.00012C85.4333 2.86541 86.1347 3.56686 87 3.56686C87.8653 3.56686 88.5667 2.86541 88.5667 2.00012C88.5667 1.13483 87.8653 0.433381 87 0.433381C86.1347 0.433381 85.4333 1.13483 85.4333 2.00012ZM2 2.29389H3.18056V1.70636H2V2.29389ZM5.54167 2.29389H7.90278V1.70636H5.54167V2.29389ZM10.2639 2.29389H12.625V1.70636H10.2639V2.29389ZM14.9861 2.29389H17.3472V1.70636H14.9861V2.29389ZM19.7083 2.29389H22.0694V1.70636H19.7083V2.29389ZM24.4306 2.29389H26.7917V1.70636H24.4306V2.29389ZM29.1528 2.29389H31.5139V1.70636H29.1528V2.29389ZM33.875 2.29389H36.2361V1.70636H33.875V2.29389ZM38.5972 2.29389H40.9583V1.70636H38.5972V2.29389ZM43.3194 2.29389H45.6806V1.70636H43.3194V2.29389ZM48.0417 2.29389H50.4028V1.70636H48.0417V2.29389ZM52.7639 2.29389H55.125V1.70636H52.7639V2.29389ZM57.4861 2.29389H59.8472V1.70636H57.4861V2.29389ZM62.2083 2.29389H64.5694V1.70636H62.2083V2.29389ZM66.9306 2.29389H69.2917V1.70636H66.9306V2.29389ZM71.6528 2.29389H74.0139V1.70636H71.6528V2.29389ZM76.375 2.29389H78.7361V1.70636H76.375V2.29389ZM81.0972 2.29389H83.4584V1.70636H81.0972V2.29389ZM85.8195 2.29389H87V1.70636H85.8195V2.29389Z" fill="#C7C7CC"/>
</svg>
