<svg width="22" height="22" viewBox="0 0 22 22" fill="none" xmlns="http://www.w3.org/2000/svg">
<path d="M7.62306 11.1739C7.11476 10.5292 6.80578 9.75003 6.73406 8.93215C6.72802 8.59467 6.79235 8.25962 6.92297 7.94838C7.05358 7.63713 7.24761 7.35651 7.49269 7.1244C7.56518 7.04175 7.65398 6.97499 7.75351 6.92831C7.85305 6.88163 7.96116 6.85604 8.07106 6.85315C8.21544 6.85315 8.35981 6.85315 8.48669 6.86103C8.61356 6.8689 8.79819 6.81028 8.97406 7.2329C9.14994 7.65553 9.58656 8.73353 9.64256 8.84203C9.67691 8.89869 9.69651 8.96305 9.69957 9.02924C9.70263 9.09543 9.68904 9.16132 9.66006 9.2209C9.60566 9.35134 9.53288 9.47333 9.44394 9.58316C9.33544 9.70916 9.21556 9.86578 9.11844 9.96203C9.02131 10.0583 8.89706 10.1878 9.02306 10.4048C9.35036 10.9621 9.75846 11.4678 10.2341 11.9054C10.7483 12.3622 11.3381 12.7261 11.9771 12.9808C12.1941 13.0893 12.3209 13.0683 12.4469 12.9265C12.5729 12.7848 12.9886 12.2939 13.1329 12.0769C13.2773 11.8599 13.4226 11.8967 13.6212 11.9684C13.8198 12.0402 14.8856 12.5652 15.1017 12.6737C15.3178 12.7822 15.4631 12.8364 15.5173 12.9265C15.5767 13.275 15.5329 13.6333 15.3913 13.9573C15.2316 14.2205 15.0192 14.4479 14.7674 14.6251C14.5157 14.8023 14.23 14.9256 13.9283 14.9872C13.4724 15.0649 13.0047 15.0349 12.5624 14.8997C12.1429 14.7695 11.7305 14.6173 11.3269 14.4438C9.8298 13.6932 8.55346 12.5664 7.62306 11.1739ZM2.39844 19.6868L3.62869 15.1928C2.6754 13.5385 2.2945 11.616 2.54503 9.72324C2.79556 7.83049 3.66353 6.07326 5.01437 4.72399C6.3652 3.37472 8.12344 2.5088 10.0165 2.26047C11.9095 2.01214 13.8316 2.39528 15.4848 3.35048C17.1379 4.30569 18.4297 5.7796 19.16 7.5437C19.8902 9.30779 20.018 11.2635 19.5237 13.1077C19.0293 14.9518 17.9404 16.5814 16.4256 17.7437C14.9109 18.9059 13.0551 19.5361 11.1458 19.5363C9.69631 19.5366 8.26981 19.1738 6.99656 18.481L2.39844 19.6868ZM3.93406 10.858C3.93191 12.215 4.31384 13.5449 5.03569 14.694L5.21069 14.967L4.48269 17.627L7.21181 16.9113L7.47431 17.067C8.58527 17.7251 9.85284 18.072 11.1441 18.0715C12.5699 18.0715 13.9638 17.6488 15.1494 16.8567C16.335 16.0646 17.2591 14.9387 17.8049 13.6215C18.3507 12.3042 18.4937 10.8547 18.2158 9.45622C17.9379 8.05771 17.2515 6.773 16.2435 5.76453C15.2356 4.75605 13.9512 4.06909 12.5528 3.79049C11.1544 3.5119 9.70486 3.65418 8.38734 4.19935C7.06982 4.74453 5.94353 5.6681 5.15087 6.85332C4.3582 8.03854 3.93475 9.43218 3.93406 10.858Z" fill="#667085"/>
</svg>
