<svg width="18" height="18" viewBox="0 0 18 18" fill="none" xmlns="http://www.w3.org/2000/svg">
<path d="M1.5013 17.3333H16.5013C16.7223 17.3333 16.9343 17.2455 17.0906 17.0892C17.2468 16.933 17.3346 16.721 17.3346 16.5V3.99999C17.3346 3.77898 17.2468 3.56701 17.0906 3.41073C16.9343 3.25445 16.7223 3.16666 16.5013 3.16666H13.168V1.49999C13.168 1.27898 13.0802 1.06701 12.9239 0.910734C12.7676 0.754454 12.5556 0.666656 12.3346 0.666656C12.1136 0.666656 11.9017 0.754454 11.7454 0.910734C11.5891 1.06701 11.5013 1.27898 11.5013 1.49999V3.16666H6.5013V1.49999C6.5013 1.27898 6.4135 1.06701 6.25722 0.910734C6.10094 0.754454 5.88898 0.666656 5.66797 0.666656C5.44696 0.666656 5.23499 0.754454 5.07871 0.910734C4.92243 1.06701 4.83464 1.27898 4.83464 1.49999V3.16666H1.5013C1.28029 3.16666 1.06833 3.25445 0.912046 3.41073C0.755766 3.56701 0.667969 3.77898 0.667969 3.99999V16.5C0.667969 16.721 0.755766 16.933 0.912046 17.0892C1.06833 17.2455 1.28029 17.3333 1.5013 17.3333ZM2.33464 4.83332H15.668V7.33332H2.33464V4.83332ZM2.33464 8.99999H15.668V15.6667H2.33464V8.99999Z" fill="#5271FF"/>
</svg>
