<svg width="19" height="19" viewBox="0 0 19 19" fill="none" xmlns="http://www.w3.org/2000/svg">
<path d="M17.7124 14.533C17.9168 14.7382 18.0701 14.9886 18.1598 15.264C18.2494 15.5394 18.273 15.8321 18.2285 16.1183C18.184 16.4045 18.0728 16.6762 17.9038 16.9114C17.7347 17.1466 17.5127 17.3387 17.2556 17.4721C15.7866 18.2573 14.075 18.458 12.4641 18.0339C8.18888 16.9576 2.04376 10.8125 0.967508 6.53726C0.543416 4.92643 0.744084 3.21482 1.52926 1.74576C1.66269 1.48869 1.85479 1.26665 2.09 1.09763C2.32521 0.928614 2.59692 0.817362 2.88312 0.772884C3.16933 0.728407 3.46198 0.751956 3.73739 0.841624C4.0128 0.931292 4.26323 1.08456 4.46838 1.28901L6.29276 3.11251C6.55585 3.37296 6.73387 3.707 6.80338 4.07062C6.87289 4.43424 6.83062 4.81039 6.68213 5.14951C6.51965 5.53 6.28893 5.87755 6.00138 6.17501C3.91538 8.26101 10.7413 15.0869 12.8264 13C13.1239 12.7114 13.4718 12.4798 13.8528 12.3166C14.1918 12.1679 14.568 12.1255 14.9317 12.195C15.2954 12.2645 15.6294 12.4427 15.8898 12.706L17.7124 14.533Z" fill="#A3AED0"/>
</svg>
