<svg width="19" height="19" viewBox="0 0 19 19" fill="none" xmlns="http://www.w3.org/2000/svg">
<path d="M4.75 18.2084H14.25C14.8799 18.2084 15.484 17.9582 15.9294 17.5128C16.3748 17.0674 16.625 16.4633 16.625 15.8334V3.16675C16.625 2.53686 16.3748 1.93277 15.9294 1.48737C15.484 1.04197 14.8799 0.791748 14.25 0.791748H4.75C4.12011 0.791748 3.51602 1.04197 3.07062 1.48737C2.62522 1.93277 2.375 2.53686 2.375 3.16675V15.8334C2.375 16.4633 2.62522 17.0674 3.07062 17.5128C3.51602 17.9582 4.12011 18.2084 4.75 18.2084ZM3.95833 3.16675C3.95833 2.95678 4.04174 2.75542 4.19021 2.60696C4.33867 2.45849 4.54004 2.37508 4.75 2.37508H14.25C14.46 2.37508 14.6613 2.45849 14.8098 2.60696C14.9583 2.75542 15.0417 2.95678 15.0417 3.16675V15.8334C15.0417 16.0434 14.9583 16.2447 14.8098 16.3932C14.6613 16.5417 14.46 16.6251 14.25 16.6251H4.75C4.54004 16.6251 4.33867 16.5417 4.19021 16.3932C4.04174 16.2447 3.95833 16.0434 3.95833 15.8334V3.16675ZM8.70833 14.2501C8.70833 14.0935 8.75476 13.9404 8.84175 13.8103C8.92874 13.6801 9.05238 13.5786 9.19704 13.5187C9.3417 13.4588 9.50088 13.4431 9.65445 13.4736C9.80801 13.5042 9.94908 13.5796 10.0598 13.6903C10.1705 13.801 10.2459 13.9421 10.2765 14.0956C10.307 14.2492 10.2913 14.4084 10.2314 14.553C10.1715 14.6977 10.07 14.8213 9.93983 14.9083C9.80964 14.9953 9.65658 15.0417 9.5 15.0417C9.29004 15.0417 9.08867 14.9583 8.94021 14.8099C8.79174 14.6614 8.70833 14.46 8.70833 14.2501Z" fill="#667085"/>
</svg>
