<svg width="27" height="27" viewBox="0 0 27 27" fill="none" xmlns="http://www.w3.org/2000/svg">
<path d="M24.75 4.5H2.25C1.95163 4.5 1.66548 4.61853 1.4545 4.82951C1.24353 5.04048 1.125 5.32663 1.125 5.625V21.375C1.125 21.6734 1.24353 21.9595 1.4545 22.1705C1.66548 22.3815 1.95163 22.5 2.25 22.5H24.75C25.0484 22.5 25.3345 22.3815 25.5455 22.1705C25.7565 21.9595 25.875 21.6734 25.875 21.375V5.625C25.875 5.32663 25.7565 5.04048 25.5455 4.82951C25.3345 4.61853 25.0484 4.5 24.75 4.5ZM23.625 18.207C23.154 18.3742 22.7261 18.6443 22.3727 18.9977C22.0193 19.3511 21.7492 19.779 21.582 20.25H5.418C5.25084 19.779 4.9807 19.3511 4.62728 18.9977C4.27385 18.6443 3.84604 18.3742 3.375 18.207V8.793C3.84604 8.62584 4.27385 8.3557 4.62728 8.00228C4.9807 7.64885 5.25084 7.22104 5.418 6.75H21.582C21.7492 7.22104 22.0193 7.64885 22.3727 8.00228C22.7261 8.3557 23.154 8.62584 23.625 8.793V18.207ZM13.5 9C12.61 9 11.74 9.26392 10.9999 9.75839C10.2599 10.2529 9.68314 10.9557 9.34254 11.7779C9.00195 12.6002 8.91283 13.505 9.08647 14.3779C9.2601 15.2508 9.68868 16.0526 10.318 16.682C10.9474 17.3113 11.7492 17.7399 12.6221 17.9135C13.495 18.0872 14.3998 17.9981 15.2221 17.6575C16.0443 17.3169 16.7471 16.7401 17.2416 16.0001C17.7361 15.26 18 14.39 18 13.5C18 12.3065 17.5259 11.1619 16.682 10.318C15.8381 9.47411 14.6935 9 13.5 9ZM13.5 15.75C13.055 15.75 12.62 15.618 12.25 15.3708C11.88 15.1236 11.5916 14.7722 11.4213 14.361C11.251 13.9499 11.2064 13.4975 11.2932 13.061C11.38 12.6246 11.5943 12.2237 11.909 11.909C12.2237 11.5943 12.6246 11.38 13.061 11.2932C13.4975 11.2064 13.9499 11.251 14.361 11.4213C14.7722 11.5916 15.1236 11.88 15.3708 12.25C15.618 12.62 15.75 13.055 15.75 13.5C15.75 14.0967 15.5129 14.669 15.091 15.091C14.669 15.5129 14.0967 15.75 13.5 15.75ZM7.875 13.5C7.875 13.7984 7.75647 14.0845 7.5455 14.2955C7.33452 14.5065 7.04837 14.625 6.75 14.625H5.625C5.32663 14.625 5.04048 14.5065 4.8295 14.2955C4.61853 14.0845 4.5 13.7984 4.5 13.5C4.5 13.2016 4.61853 12.9155 4.8295 12.7045C5.04048 12.4935 5.32663 12.375 5.625 12.375H6.75C7.04837 12.375 7.33452 12.4935 7.5455 12.7045C7.75647 12.9155 7.875 13.2016 7.875 13.5ZM22.5 13.5C22.5 13.7984 22.3815 14.0845 22.1705 14.2955C21.9595 14.5065 21.6734 14.625 21.375 14.625H20.25C19.9516 14.625 19.6655 14.5065 19.4545 14.2955C19.2435 14.0845 19.125 13.7984 19.125 13.5C19.125 13.2016 19.2435 12.9155 19.4545 12.7045C19.6655 12.4935 19.9516 12.375 20.25 12.375H21.375C21.6734 12.375 21.9595 12.4935 22.1705 12.7045C22.3815 12.9155 22.5 13.2016 22.5 13.5Z" fill="#5271FF"/>
</svg>
