<svg width="19" height="19" viewBox="0 0 19 19" fill="none" xmlns="http://www.w3.org/2000/svg">
<path d="M16.6257 0.791748H2.37565C2.16569 0.791748 1.96432 0.875156 1.81586 1.02362C1.66739 1.17209 1.58398 1.37345 1.58398 1.58341V17.4167C1.58398 17.6267 1.66739 17.8281 1.81586 17.9765C1.96432 18.125 2.16569 18.2084 2.37565 18.2084H13.459C13.5631 18.208 13.666 18.1873 13.7622 18.1475C13.8584 18.1077 13.9459 18.0493 14.0195 17.9757L17.1862 14.809C17.3257 14.6551 17.4074 14.4576 17.4173 14.2501V1.58341C17.4173 1.37345 17.3339 1.17209 17.1854 1.02362C17.037 0.875156 16.8356 0.791748 16.6257 0.791748ZM12.6673 14.2501V16.6251H3.16732V2.37508H15.834V13.4584H13.459C13.249 13.4584 13.0477 13.5418 12.8992 13.6903C12.7507 13.8388 12.6673 14.0401 12.6673 14.2501Z" fill="#667085"/>
</svg>
