<svg width="24" height="24" viewBox="0 0 24 24" fill="none" xmlns="http://www.w3.org/2000/svg">
<path d="M18.111 2.29303L9.384 11.021C9.27387 11.1301 9.19126 11.2638 9.143 11.411L8.052 14.684C8.00196 14.8343 7.98831 14.9943 8.01219 15.1508C8.03608 15.3074 8.0968 15.456 8.18937 15.5845C8.28193 15.713 8.40369 15.8177 8.54463 15.8899C8.68556 15.9622 8.84163 15.9999 9 16C9.10746 16 9.2142 15.9825 9.316 15.948L12.589 14.857C12.7363 14.8088 12.87 14.7262 12.979 14.616L21.707 5.88903C21.8945 5.7015 21.9998 5.44719 21.9998 5.18203C21.9998 4.91687 21.8945 4.66256 21.707 4.47503L19.525 2.29303C19.3375 2.10556 19.0832 2.00024 18.818 2.00024C18.5528 2.00024 18.2985 2.10556 18.111 2.29303ZM11.732 13.035L10.581 13.419L10.965 12.268L16.637 6.60003L17.404 7.36703L11.732 13.035ZM19.586 5.18203L18.818 5.94903L18.051 5.18203L18.818 4.41403L19.586 5.18203ZM3 5.00003H11C11.2652 5.00003 11.5196 5.10539 11.7071 5.29292C11.8946 5.48046 12 5.73481 12 6.00003C12 6.26525 11.8946 6.5196 11.7071 6.70714C11.5196 6.89467 11.2652 7.00003 11 7.00003H4V20H17V13C17 12.7348 17.1054 12.4805 17.2929 12.2929C17.4804 12.1054 17.7348 12 18 12C18.2652 12 18.5196 12.1054 18.7071 12.2929C18.8946 12.4805 19 12.7348 19 13V21C19 21.2652 18.8946 21.5196 18.7071 21.7071C18.5196 21.8947 18.2652 22 18 22H3C2.73478 22 2.48043 21.8947 2.29289 21.7071C2.10536 21.5196 2 21.2652 2 21V6.00003C2 5.73481 2.10536 5.48046 2.29289 5.29292C2.48043 5.10539 2.73478 5.00003 3 5.00003Z" fill="#5271FF"/>
</svg>
