<svg width="44" height="44" viewBox="0 0 44 44" fill="none" xmlns="http://www.w3.org/2000/svg">
<path d="M21.9426 3.65725C19.1434 3.65543 16.3811 4.29626 13.8687 5.53037C11.3562 6.76447 9.16062 8.55891 7.45106 10.7754C5.7415 12.9919 4.56361 15.5713 4.00816 18.3148C3.45271 21.0583 3.53452 23.8928 4.2473 26.5997C4.96007 29.3066 6.28478 31.8138 8.11934 33.928C9.95391 36.0422 12.2494 37.707 14.8288 38.7941C17.4083 39.8812 20.2029 40.3617 22.9973 40.1984C25.7917 40.0351 28.5114 39.2325 30.9467 37.8523L37.8223 40.1436C38.0091 40.2026 38.2041 40.2316 38.4001 40.2295C38.6897 40.2293 38.9751 40.1603 39.2328 40.0282C39.4905 39.8961 39.7132 39.7047 39.8824 39.4697C40.0517 39.2348 40.1627 38.9629 40.2064 38.6767C40.2501 38.3904 40.2251 38.0978 40.1336 37.8231L37.8515 30.9475C39.4321 28.167 40.2548 25.0203 40.2374 21.822C40.22 18.6238 39.3631 15.4862 37.7523 12.7231C36.1416 9.96001 33.8335 7.66835 31.059 6.07736C28.2845 4.48637 25.1409 3.65184 21.9426 3.65725ZM34.1083 31.3077L35.5091 35.5135L31.3032 34.1128C31.0466 34.0253 30.7737 33.9963 30.5045 34.028C30.2352 34.0596 29.9764 34.1511 29.7471 34.2957C26.6972 36.2258 23.0427 36.9635 19.483 36.3676C15.9232 35.7717 12.7082 33.8839 10.4533 31.0657C8.19837 28.2475 7.06188 24.6967 7.26134 21.0929C7.4608 17.4892 8.98219 14.0855 11.5343 11.5333C14.0865 8.98117 17.4902 7.45978 21.094 7.26032C24.6978 7.06087 28.2485 8.19735 31.0667 10.4523C33.885 12.7072 35.7727 15.9222 36.3686 19.482C36.9645 23.0417 36.2268 26.6962 34.2967 29.7461C34.1511 29.976 34.0586 30.2354 34.026 30.5056C33.9934 30.7758 34.0216 31.0498 34.1083 31.3077ZM31.0856 17.3719C31.0856 17.8568 30.893 18.3219 30.5501 18.6649C30.2071 19.0078 29.742 19.2005 29.257 19.2005H14.6281C14.1431 19.2005 13.678 19.0078 13.3351 18.6649C12.9922 18.3219 12.7995 17.8568 12.7995 17.3719C12.7995 16.8869 12.9922 16.4218 13.3351 16.0788C13.678 15.7359 14.1431 15.5432 14.6281 15.5432H29.257C29.742 15.5432 30.2071 15.7359 30.5501 16.0788C30.893 16.4218 31.0856 16.8869 31.0856 17.3719ZM23.7712 26.5149C23.7712 26.9999 23.5785 27.465 23.2356 27.8079C22.8927 28.1509 22.4276 28.3435 21.9426 28.3435H14.6281C14.1431 28.3435 13.678 28.1509 13.3351 27.8079C12.9922 27.465 12.7995 26.9999 12.7995 26.5149C12.7995 26.0299 12.9922 25.5648 13.3351 25.2219C13.678 24.879 14.1431 24.6863 14.6281 24.6863H21.9426C22.4276 24.6863 22.8927 24.879 23.2356 25.2219C23.5785 25.5648 23.7712 26.0299 23.7712 26.5149Z" fill="#9A9A9A"/>
</svg>
