<svg width="26" height="22" viewBox="0 0 26 22" fill="none" xmlns="http://www.w3.org/2000/svg">
<path d="M9.02291 21.1571C9.23562 21.3704 9.52261 21.4932 9.82379 21.4997C10.125 21.5063 10.417 21.396 10.6387 21.1921L25.4554 7.57245C25.6831 7.36334 25.8185 7.07238 25.8319 6.76351C25.8452 6.45464 25.7354 6.15309 25.5266 5.92512L20.9159 0.879284C20.8123 0.766014 20.6874 0.674302 20.5483 0.609403C20.4092 0.544504 20.2586 0.507694 20.1053 0.501083C19.9519 0.494471 19.7988 0.518189 19.6546 0.570876C19.5104 0.623563 19.378 0.704183 19.2651 0.808117L10.0892 9.24312L6.98475 6.13162C6.76159 5.92042 6.466 5.80272 6.15875 5.80272C5.85149 5.80272 5.5559 5.92042 5.33275 6.13162L0.507412 10.9698C0.289408 11.1885 0.166992 11.4847 0.166992 11.7935C0.166992 12.1022 0.289408 12.3984 0.507412 12.6171L9.02291 21.1571ZM6.15875 8.60728L9.22824 11.6838C9.44075 11.8969 9.72741 12.0197 10.0283 12.0264C10.3292 12.0332 10.6211 11.9234 10.8429 11.72L19.9826 3.31995L23.0159 6.64378L9.88508 18.7165L2.98074 11.7935L6.15875 8.60728Z" fill="#5271FF"/>
</svg>
