<svg width="13" height="13" viewBox="0 0 13 13" fill="none" xmlns="http://www.w3.org/2000/svg">
<path d="M0.741089 11.5572L5.33396 6.96436L0.741089 2.37148C0.588826 2.21922 0.503286 2.01271 0.503286 1.79737C0.503286 1.58204 0.588826 1.37553 0.741089 1.22327C0.893353 1.071 1.09987 0.985463 1.3152 0.985462C1.53053 0.985463 1.73704 1.071 1.88931 1.22327L6.48218 5.81614L11.075 1.22327C11.2273 1.071 11.4338 0.985462 11.6492 0.985462C11.8645 0.985462 12.071 1.071 12.2233 1.22327C12.3755 1.37553 12.4611 1.58204 12.4611 1.79737C12.4611 2.01271 12.3755 2.21922 12.2233 2.37148L7.6304 6.96436L12.2233 11.5572C12.3755 11.7095 12.4611 11.916 12.4611 12.1313C12.4611 12.3467 12.3755 12.5532 12.2233 12.7054C12.071 12.8577 11.8645 12.9432 11.6492 12.9432C11.4338 12.9432 11.2273 12.8577 11.075 12.7054L6.48218 8.11257L1.88931 12.7054C1.73704 12.8577 1.53053 12.9432 1.3152 12.9432C1.09987 12.9432 0.893353 12.8577 0.741089 12.7054C0.588826 12.5532 0.503286 12.3467 0.503286 12.1313C0.503286 11.916 0.588826 11.7095 0.741089 11.5572Z" fill="#A0ABBB"/>
</svg>
