<svg width="22" height="17" viewBox="0 0 22 17" fill="none" xmlns="http://www.w3.org/2000/svg">
<path d="M0.292786 8.29301L4.29279 4.29301C4.38503 4.1975 4.49538 4.12132 4.61738 4.06891C4.73939 4.0165 4.87061 3.98891 5.00339 3.98776C5.13616 3.98661 5.26784 4.01191 5.39074 4.06219C5.51364 4.11247 5.62529 4.18672 5.71918 4.28062C5.81307 4.37451 5.88733 4.48616 5.93761 4.60906C5.98789 4.73195 6.01319 4.86363 6.01204 4.99641C6.01088 5.12919 5.9833 5.26041 5.93089 5.38241C5.87848 5.50442 5.8023 5.61476 5.70679 5.70701L2.41379 9.00001L5.70679 12.293C5.8023 12.3853 5.87848 12.4956 5.93089 12.6176C5.9833 12.7396 6.01088 12.8708 6.01204 13.0036C6.01319 13.1364 5.98789 13.2681 5.93761 13.391C5.88733 13.5139 5.81307 13.6255 5.71918 13.7194C5.62529 13.8133 5.51364 13.8876 5.39074 13.9378C5.26784 13.9881 5.13616 14.0134 5.00339 14.0123C4.87061 14.0111 4.73939 13.9835 4.61738 13.9311C4.49538 13.8787 4.38503 13.8025 4.29279 13.707L0.292786 9.70701C0.105315 9.51948 0 9.26517 0 9.00001C0 8.73485 0.105315 8.48054 0.292786 8.29301ZM17.7068 4.29301C17.6145 4.1975 17.5042 4.12132 17.3822 4.06891C17.2602 4.0165 17.129 3.98891 16.9962 3.98776C16.8634 3.98661 16.7317 4.01191 16.6088 4.06219C16.4859 4.11247 16.3743 4.18672 16.2804 4.28062C16.1865 4.37451 16.1122 4.48616 16.062 4.60906C16.0117 4.73195 15.9864 4.86363 15.9875 4.99641C15.9887 5.12919 16.0163 5.26041 16.0687 5.38241C16.1211 5.50442 16.1973 5.61476 16.2928 5.70701L19.5858 9.00001L16.2928 12.293C16.1973 12.3853 16.1211 12.4956 16.0687 12.6176C16.0163 12.7396 15.9887 12.8708 15.9875 13.0036C15.9864 13.1364 16.0117 13.2681 16.062 13.391C16.1122 13.5139 16.1865 13.6255 16.2804 13.7194C16.3743 13.8133 16.4859 13.8876 16.6088 13.9378C16.7317 13.9881 16.8634 14.0134 16.9962 14.0123C17.129 14.0111 17.2602 13.9835 17.3822 13.9311C17.5042 13.8787 17.6145 13.8025 17.7068 13.707L21.7068 9.70701C21.8943 9.51948 21.9996 9.26517 21.9996 9.00001C21.9996 8.73485 21.8943 8.48054 21.7068 8.29301L17.7068 4.29301ZM12.0388 1.72601L8.03879 15.726C7.96597 15.9809 7.99732 16.2542 8.12596 16.486C8.25459 16.7178 8.46998 16.889 8.72479 16.962C8.81437 16.9868 8.90684 16.9995 8.99979 17C9.2171 16.9999 9.42845 16.9289 9.60184 16.7979C9.77524 16.6669 9.90124 16.483 9.96079 16.274L13.9608 2.27401C14.0025 2.14616 14.018 2.01122 14.0063 1.87725C13.9946 1.74328 13.9561 1.61304 13.8929 1.49432C13.8297 1.3756 13.7433 1.27084 13.6387 1.1863C13.5341 1.10176 13.4136 1.03919 13.2842 1.00231C13.1549 0.965442 13.0195 0.955032 12.8861 0.971707C12.7526 0.988381 12.6239 1.0318 12.5076 1.09936C12.3914 1.16692 12.2899 1.25724 12.2094 1.36491C12.1288 1.47258 12.0708 1.5954 12.0388 1.72601Z" fill="#A3AED0"/>
</svg>
