<svg width="47" height="47" viewBox="0 0 47 47" fill="none" xmlns="http://www.w3.org/2000/svg">
<rect opacity="0.2" x="0.192261" y="0.532227" width="46.3529" height="46.3529" rx="8.97436" fill="#5271FF"/>
<path d="M28.1606 22.6433C29.3251 22.454 30.2216 21.299 30.2241 19.8998C30.2241 18.5208 29.3552 17.3774 28.2157 17.1611" stroke="#5271FF" stroke-width="0.90533" stroke-linecap="round" stroke-linejoin="round"/>
<path d="M29.6973 25.882C30.825 26.077 31.6122 26.5338 31.6122 27.4753C31.6122 28.1233 31.2415 28.5444 30.6422 28.809" stroke="#5271FF" stroke-width="0.90533" stroke-linecap="round" stroke-linejoin="round"/>
<path fill-rule="evenodd" clip-rule="evenodd" d="M23.1513 26.2811C20.4685 26.2811 18.1771 26.7514 18.1771 28.6297C18.1771 30.507 20.4543 30.9908 23.1513 30.9908C25.8342 30.9908 28.1247 30.5253 28.1247 28.6461C28.1247 26.7669 25.8484 26.2811 23.1513 26.2811Z" stroke="#5271FF" stroke-width="0.90533" stroke-linecap="round" stroke-linejoin="round"/>
<path fill-rule="evenodd" clip-rule="evenodd" d="M23.1515 23.6006C24.912 23.6006 26.3394 21.9502 26.3394 19.9126C26.3394 17.876 24.912 16.2247 23.1515 16.2247C21.3911 16.2247 19.9636 17.876 19.9636 19.9126C19.957 21.9425 21.3735 23.5938 23.1281 23.6006H23.1515Z" stroke="#5271FF" stroke-width="0.90533" stroke-linecap="round" stroke-linejoin="round"/>
<path d="M18.1414 22.6433C16.9761 22.454 16.0804 21.299 16.0779 19.8998C16.0779 18.5208 16.9468 17.3774 18.0863 17.1611" stroke="#5271FF" stroke-width="0.90533" stroke-linecap="round" stroke-linejoin="round"/>
<path d="M16.6047 25.882C15.477 26.077 14.6898 26.5338 14.6898 27.4753C14.6898 28.1233 15.0604 28.5444 15.6598 28.809" stroke="#5271FF" stroke-width="0.90533" stroke-linecap="round" stroke-linejoin="round"/>
<path d="M11.9712 17.1576L34.4071 28.9364" stroke="#5271FF" stroke-width="1.12179"/>
</svg>
