<svg width="47" height="48" viewBox="0 0 47 48" fill="none" xmlns="http://www.w3.org/2000/svg">
<rect opacity="0.2" x="0.192261" y="0.737366" width="46.3529" height="46.3529" rx="8.97436" fill="#5271FF"/>
<path d="M29.9431 19.3424C29.5081 18.816 28.9617 18.3927 28.3434 18.1029C27.7251 17.8131 27.0502 17.6641 26.3674 17.6666C25.199 17.6312 24.0615 18.0449 23.189 18.8227C22.3164 18.0449 21.1789 17.6312 20.0105 17.6666C19.3277 17.6641 18.6528 17.8131 18.0345 18.1029C17.4162 18.3927 16.8698 18.816 16.4348 19.3424C15.6776 20.2609 14.8853 21.924 15.4106 24.6344C16.2489 28.9627 22.535 32.5145 22.8004 32.6599C22.9187 32.7259 23.0519 32.7605 23.1874 32.7605C23.3228 32.7605 23.456 32.7259 23.5743 32.6599C23.8413 32.5114 30.1274 28.9595 30.9642 24.6344C31.4926 21.924 30.7004 20.2609 29.9431 19.3424ZM29.4075 24.3325C28.8148 27.3925 24.5064 30.2388 23.189 31.0477C21.3328 29.9273 17.5139 27.1144 16.9744 24.3325C16.5667 22.23 17.1245 21.0087 17.6649 20.3539C17.9506 20.0091 18.3091 19.7319 18.7147 19.542C19.1202 19.3522 19.5628 19.2544 20.0105 19.2558C20.4888 19.2199 20.9682 19.3086 21.402 19.5131C21.8358 19.7177 22.2092 20.0312 22.4857 20.423C22.5539 20.5485 22.6545 20.6534 22.7771 20.7268C22.8996 20.8002 23.0396 20.8394 23.1824 20.8403C23.3252 20.8412 23.4657 20.8038 23.5891 20.7319C23.7126 20.6601 23.8145 20.5564 23.8842 20.4318C24.1603 20.0369 24.5344 19.7207 24.9699 19.5145C25.4053 19.3083 25.887 19.2191 26.3674 19.2558C26.8161 19.2536 27.2597 19.3509 27.6663 19.5408C28.0729 19.7307 28.4323 20.0084 28.7186 20.3539C29.2574 21.0087 29.8152 22.23 29.4075 24.3325Z" fill="#5271FF"/>
</svg>
