<svg width="47" height="47" viewBox="0 0 47 47" fill="none" xmlns="http://www.w3.org/2000/svg">
<rect opacity="0.2" x="0.192261" y="0.327148" width="46.3529" height="46.3529" rx="8.97436" fill="#5271FF"/>
<path d="M28.1606 22.4382C29.3251 22.2489 30.2216 21.094 30.2241 19.6947C30.2241 18.3157 29.3552 17.1723 28.2157 16.956" stroke="#5271FF" stroke-width="0.90533" stroke-linecap="round" stroke-linejoin="round"/>
<path d="M29.6973 25.6769C30.825 25.8719 31.6122 26.3287 31.6122 27.2703C31.6122 27.9182 31.2415 28.3393 30.6422 28.6039" stroke="#5271FF" stroke-width="0.90533" stroke-linecap="round" stroke-linejoin="round"/>
<path fill-rule="evenodd" clip-rule="evenodd" d="M23.1513 26.076C20.4685 26.076 18.1771 26.5463 18.1771 28.4246C18.1771 30.3019 20.4543 30.7857 23.1513 30.7857C25.8342 30.7857 28.1247 30.3202 28.1247 28.441C28.1247 26.5618 25.8484 26.076 23.1513 26.076Z" stroke="#5271FF" stroke-width="0.90533" stroke-linecap="round" stroke-linejoin="round"/>
<path fill-rule="evenodd" clip-rule="evenodd" d="M23.1515 23.3954C24.912 23.3954 26.3394 21.7451 26.3394 19.7075C26.3394 17.6709 24.912 16.0195 23.1515 16.0195C21.3911 16.0195 19.9636 17.6709 19.9636 19.7075C19.957 21.7374 21.3735 23.3887 23.1281 23.3954H23.1515Z" stroke="#5271FF" stroke-width="0.90533" stroke-linecap="round" stroke-linejoin="round"/>
<path d="M18.1414 22.4382C16.9761 22.2489 16.0804 21.094 16.0779 19.6947C16.0779 18.3157 16.9468 17.1723 18.0863 16.956" stroke="#5271FF" stroke-width="0.90533" stroke-linecap="round" stroke-linejoin="round"/>
<path d="M16.6047 25.6769C15.477 25.8719 14.6898 26.3287 14.6898 27.2703C14.6898 27.9182 15.0604 28.3393 15.6598 28.6039" stroke="#5271FF" stroke-width="0.90533" stroke-linecap="round" stroke-linejoin="round"/>
</svg>
