<svg width="21" height="21" viewBox="0 0 21 21" fill="none" xmlns="http://www.w3.org/2000/svg">
<path d="M19.4844 6.5H7.48438C7.21916 6.5 6.9648 6.60536 6.77727 6.79289C6.58973 6.98043 6.48438 7.23478 6.48438 7.5V19.5C6.48438 19.7652 6.58973 20.0196 6.77727 20.2071C6.9648 20.3946 7.21916 20.5 7.48438 20.5H19.4844C19.7496 20.5 20.0039 20.3946 20.1915 20.2071C20.379 20.0196 20.4844 19.7652 20.4844 19.5V7.5C20.4844 7.23478 20.379 6.98043 20.1915 6.79289C20.0039 6.60536 19.7496 6.5 19.4844 6.5ZM18.4844 18.5H8.48438V8.5H18.4844V18.5ZM4.48438 13.5C4.48438 13.7652 4.37902 14.0196 4.19148 14.2071C4.00395 14.3946 3.74959 14.5 3.48438 14.5H1.48438C1.21916 14.5 0.964805 14.3946 0.777268 14.2071C0.589732 14.0196 0.484375 13.7652 0.484375 13.5V1.5C0.484375 1.23478 0.589732 0.98043 0.777268 0.792893C0.964805 0.605357 1.21916 0.5 1.48438 0.5H13.4844C13.7496 0.5 14.0039 0.605357 14.1915 0.792893C14.379 0.98043 14.4844 1.23478 14.4844 1.5V3.5C14.4844 3.76522 14.379 4.01957 14.1915 4.20711C14.0039 4.39464 13.7496 4.5 13.4844 4.5C13.2192 4.5 12.9648 4.39464 12.7773 4.20711C12.5897 4.01957 12.4844 3.76522 12.4844 3.5V2.5H2.48438V12.5H3.48438C3.74959 12.5 4.00395 12.6054 4.19148 12.7929C4.37902 12.9804 4.48438 13.2348 4.48438 13.5Z" fill="#FFDA00"/>
</svg>
