<svg width="21" height="15" viewBox="0 0 21 15" fill="none" xmlns="http://www.w3.org/2000/svg">
<path d="M19.25 0.5H1.75C1.51794 0.5 1.29538 0.592187 1.13128 0.756282C0.967187 0.920376 0.875 1.14294 0.875 1.375V13.625C0.875 13.8571 0.967187 14.0796 1.13128 14.2437C1.29538 14.4078 1.51794 14.5 1.75 14.5H19.25C19.4821 14.5 19.7046 14.4078 19.8687 14.2437C20.0328 14.0796 20.125 13.8571 20.125 13.625V1.375C20.125 1.14294 20.0328 0.920376 19.8687 0.756282C19.7046 0.592187 19.4821 0.5 19.25 0.5V0.5ZM18.375 11.161C18.0086 11.291 17.6759 11.5011 17.401 11.776C17.1261 12.0509 16.916 12.3836 16.786 12.75H4.214C4.08398 12.3836 3.87388 12.0509 3.59899 11.776C3.32411 11.5011 2.99136 11.291 2.625 11.161V3.839C2.99136 3.70898 3.32411 3.49888 3.59899 3.22399C3.87388 2.94911 4.08398 2.61636 4.214 2.25H16.786C16.916 2.61636 17.1261 2.94911 17.401 3.22399C17.6759 3.49888 18.0086 3.70898 18.375 3.839V11.161ZM10.5 4C9.80777 4 9.13108 4.20527 8.5555 4.58986C7.97993 4.97444 7.53133 5.52107 7.26642 6.16061C7.00151 6.80015 6.9322 7.50388 7.06725 8.18282C7.2023 8.86175 7.53564 9.48539 8.02513 9.97487C8.51461 10.4644 9.13825 10.7977 9.81718 10.9327C10.4961 11.0678 11.1999 10.9985 11.8394 10.7336C12.4789 10.4687 13.0256 10.0201 13.4101 9.4445C13.7947 8.86892 14 8.19223 14 7.5C14 6.57174 13.6313 5.6815 12.9749 5.02513C12.3185 4.36875 11.4283 4 10.5 4V4ZM10.5 9.25C10.1539 9.25 9.81554 9.14736 9.52775 8.95507C9.23997 8.76278 9.01566 8.48947 8.88321 8.1697C8.75076 7.84993 8.7161 7.49806 8.78363 7.15859C8.85115 6.81913 9.01782 6.50731 9.26256 6.26256C9.50731 6.01782 9.81913 5.85115 10.1586 5.78363C10.4981 5.7161 10.8499 5.75076 11.1697 5.88321C11.4895 6.01566 11.7628 6.23997 11.9551 6.52775C12.1474 6.81554 12.25 7.15388 12.25 7.5C12.25 7.96413 12.0656 8.40925 11.7374 8.73744C11.4092 9.06563 10.9641 9.25 10.5 9.25ZM6.125 7.5C6.125 7.73206 6.03281 7.95462 5.86872 8.11872C5.70462 8.28281 5.48206 8.375 5.25 8.375H4.375C4.14294 8.375 3.92038 8.28281 3.75628 8.11872C3.59219 7.95462 3.5 7.73206 3.5 7.5C3.5 7.26794 3.59219 7.04538 3.75628 6.88128C3.92038 6.71719 4.14294 6.625 4.375 6.625H5.25C5.48206 6.625 5.70462 6.71719 5.86872 6.88128C6.03281 7.04538 6.125 7.26794 6.125 7.5ZM17.5 7.5C17.5 7.73206 17.4078 7.95462 17.2437 8.11872C17.0796 8.28281 16.8571 8.375 16.625 8.375H15.75C15.5179 8.375 15.2954 8.28281 15.1313 8.11872C14.9672 7.95462 14.875 7.73206 14.875 7.5C14.875 7.26794 14.9672 7.04538 15.1313 6.88128C15.2954 6.71719 15.5179 6.625 15.75 6.625H16.625C16.8571 6.625 17.0796 6.71719 17.2437 6.88128C17.4078 7.04538 17.5 7.26794 17.5 7.5Z" fill="#5271FF"/>
</svg>
