<svg width="24" height="24" viewBox="0 0 24 24" fill="none" xmlns="http://www.w3.org/2000/svg">
<path d="M2 13H5C5.26522 13 5.51957 12.8946 5.70711 12.7071C5.89464 12.5196 6 12.2652 6 12C6 11.7348 5.89464 11.4804 5.70711 11.2929C5.51957 11.1054 5.26522 11 5 11H4.635L5.221 9.308H8.779L9.365 11H9C8.73478 11 8.48043 11.1054 8.29289 11.2929C8.10536 11.4804 8 11.7348 8 12C8 12.2652 8.10536 12.5196 8.29289 12.7071C8.48043 12.8946 8.73478 13 9 13H12C12.2652 13 12.5196 12.8946 12.7071 12.7071C12.8946 12.5196 13 12.2652 13 12C13 11.7348 12.8946 11.4804 12.7071 11.2929C12.5196 11.1054 12.2652 11 12 11H11.481L8.945 3.673C8.877 3.4765 8.74944 3.30607 8.58007 3.18545C8.4107 3.06483 8.20794 3.00001 8 3H6C5.79206 3.00001 5.5893 3.06483 5.41993 3.18545C5.25055 3.30607 5.12299 3.4765 5.055 3.673L2.519 11H2C1.73478 11 1.48043 11.1054 1.29289 11.2929C1.10536 11.4804 1 11.7348 1 12C1 12.2652 1.10536 12.5196 1.29289 12.7071C1.48043 12.8946 1.73478 13 2 13ZM6.711 5H7.288L8.088 7.308H5.913L6.711 5ZM11.278 15.483L14.363 18.568L21.276 11.311C21.3652 11.2108 21.4736 11.1296 21.5948 11.0722C21.716 11.0148 21.8475 10.9823 21.9815 10.9768C22.1155 10.9712 22.2493 10.9927 22.3748 11.0399C22.5004 11.0871 22.6151 11.1591 22.7123 11.2515C22.8094 11.344 22.887 11.4551 22.9404 11.5781C22.9937 11.7011 23.0218 11.8337 23.0229 11.9678C23.024 12.1019 22.9981 12.2349 22.9467 12.3588C22.8954 12.4827 22.8196 12.595 22.724 12.689L15.105 20.689C15.0131 20.7857 14.9027 20.8631 14.7804 20.9165C14.6582 20.9699 14.5264 20.9983 14.393 21H14.381C14.1158 20.9999 13.8615 20.8946 13.674 20.707L9.864 16.9C9.76849 16.8078 9.69231 16.6974 9.6399 16.5754C9.58749 16.4534 9.5599 16.3222 9.55875 16.1894C9.5576 16.0566 9.5829 15.9249 9.63318 15.802C9.68346 15.6791 9.75771 15.5675 9.85161 15.4736C9.9455 15.3797 10.0571 15.3055 10.18 15.2552C10.3029 15.2049 10.4346 15.1796 10.5674 15.1807C10.7002 15.1819 10.8314 15.2095 10.9534 15.2619C11.0754 15.3143 11.1858 15.3905 11.278 15.486V15.483Z" fill="#5271FF"/>
</svg>
