<svg width="24" height="24" viewBox="0 0 24 24" fill="none" xmlns="http://www.w3.org/2000/svg">
<path d="M2 20.9999H8C8.26522 20.9999 8.51957 20.8946 8.70711 20.707C8.89464 20.5195 9 20.2651 9 19.9999C9 19.7347 8.89464 19.4803 8.70711 19.2928C8.51957 19.1053 8.26522 18.9999 8 18.9999H3.071C3.31366 17.3347 4.14714 15.8124 5.41925 14.7108C6.69136 13.6093 8.31724 13.002 10 12.9999C11.1775 13.0101 12.3214 12.6081 13.2336 11.8634C14.1457 11.1187 14.7686 10.0784 14.9943 8.92271C15.2199 7.76701 15.0341 6.56878 14.4691 5.53569C13.904 4.5026 12.9953 3.69975 11.9005 3.26629C10.8057 2.83283 9.59368 2.79608 8.47459 3.1624C7.3555 3.52871 6.39984 4.27502 5.77322 5.27197C5.14661 6.26892 4.88855 7.45369 5.04375 8.62094C5.19895 9.78818 5.75765 10.8643 6.623 11.6629C4.96321 12.3362 3.54177 13.489 2.54021 14.974C1.53864 16.459 1.00242 18.2088 1 19.9999C1 20.2651 1.10536 20.5195 1.29289 20.707C1.48043 20.8946 1.73478 20.9999 2 20.9999ZM10 4.99992C10.5933 4.99992 11.1734 5.17587 11.6667 5.50551C12.1601 5.83516 12.5446 6.30369 12.7716 6.85187C12.9987 7.40005 13.0581 8.00325 12.9424 8.58519C12.8266 9.16713 12.5409 9.70168 12.1213 10.1212C11.7018 10.5408 11.1672 10.8265 10.5853 10.9423C10.0033 11.058 9.40013 10.9986 8.85195 10.7716C8.30377 10.5445 7.83524 10.16 7.50559 9.66663C7.17595 9.17328 7 8.59326 7 7.99992C7 7.20427 7.31607 6.44121 7.87868 5.8786C8.44129 5.31599 9.20435 4.99992 10 4.99992ZM20.207 9.29292C20.0195 9.10545 19.7652 9.00013 19.5 9.00013C19.2348 9.00013 18.9805 9.10545 18.793 9.29292L12.543 15.5429C12.4337 15.653 12.3513 15.7868 12.302 15.9339L11.052 19.6839C11.002 19.8342 10.9883 19.9942 11.0122 20.1507C11.0361 20.3073 11.0968 20.4559 11.1894 20.5844C11.2819 20.7129 11.4037 20.8176 11.5446 20.8898C11.6856 20.9621 11.8416 20.9998 12 20.9999C12.1074 20.9998 12.214 20.9825 12.316 20.9489L16.066 19.6989C16.2134 19.6497 16.3472 19.5669 16.457 19.4569L22.707 13.2069C22.8945 13.0194 22.9998 12.7651 22.9998 12.4999C22.9998 12.2348 22.8945 11.9804 22.707 11.7929L20.207 9.29292ZM15.207 17.8759L13.578 18.4189L14.121 16.7899L19.5 11.4139L20.586 12.4999L15.207 17.8759Z" fill="#5271FF"/>
</svg>
