<svg width="54" height="54" viewBox="0 0 54 54" fill="none" xmlns="http://www.w3.org/2000/svg">
<rect x="0.0625" y="0.381836" width="53.0321" height="53.0321" rx="10.2675" fill="#DBE5FA"/>
<path d="M19.9982 31.1769C19.9981 31.6365 20.0884 32.0916 20.2642 32.5163C20.44 32.941 20.6977 33.3268 21.0226 33.6519C21.3475 33.9769 21.7333 34.2348 22.1579 34.4107C22.5825 34.5866 23.0376 34.6772 23.4972 34.6772C24.4349 34.6912 25.3408 34.3372 26.0205 33.691C26.7002 33.0448 27.0995 32.158 27.1329 31.2208L27.173 15.4658H30.405C30.5518 16.8698 31.1874 18.1775 32.2009 19.1602C33.2143 20.1429 34.5409 20.7381 35.9487 20.8416V24.5963C35.7645 24.6139 35.5789 24.6239 35.3934 24.6239C34.3932 24.6246 33.4086 24.376 32.5287 23.9006C31.6487 23.4251 30.9012 22.7379 30.3536 21.9009V31.1781C30.3536 32.5342 29.9515 33.8598 29.1981 34.9873C28.4447 36.1149 27.3739 36.9937 26.121 37.5126C24.8682 38.0315 23.4896 38.1673 22.1596 37.9028C20.8296 37.6382 19.6079 36.9852 18.6491 36.0263C17.6902 35.0674 17.0372 33.8458 16.7726 32.5158C16.5081 31.1858 16.6438 29.8072 17.1628 28.5543C17.6817 27.3015 18.5605 26.2307 19.688 25.4773C20.8156 24.7239 22.1412 24.3218 23.4972 24.3218C23.6401 24.3218 23.7806 24.3343 23.921 24.3431V27.728C23.7807 27.7056 23.6392 27.6913 23.4972 27.6854C22.5705 27.6854 21.6817 28.053 21.0257 28.7076C20.3697 29.3621 20.0002 30.2502 19.9982 31.1769V31.1769Z" fill="#5271FF"/>
</svg>
