<svg width="54" height="54" viewBox="0 0 54 54" fill="none" xmlns="http://www.w3.org/2000/svg">
<rect x="0.0625" y="0.0683594" width="53.0321" height="53.0321" rx="10.2675" fill="#DBE5FA"/>
<path d="M26.5246 20.4139C25.3041 20.4139 24.111 20.7758 23.0962 21.4539C22.0814 22.132 21.2904 23.0958 20.8233 24.2234C20.3563 25.351 20.2341 26.5917 20.4722 27.7888C20.7103 28.9858 21.298 30.0854 22.161 30.9484C23.0241 31.8115 24.1236 32.3992 25.3207 32.6373C26.5177 32.8754 27.7585 32.7532 28.8861 32.2861C30.0137 31.8191 30.9775 31.0281 31.6556 30.0133C32.3337 28.9985 32.6956 27.8054 32.6956 26.5849C32.6956 24.9482 32.0454 23.3786 30.8881 22.2213C29.7309 21.0641 28.1612 20.4139 26.5246 20.4139V20.4139ZM26.5246 30.5915C25.7322 30.5915 24.9575 30.3565 24.2986 29.9163C23.6397 29.476 23.1262 28.8503 22.8229 28.1182C22.5197 27.386 22.4403 26.5804 22.5949 25.8032C22.7495 25.026 23.1311 24.3121 23.6915 23.7518C24.2518 23.1914 24.9657 22.8098 25.7429 22.6552C26.5201 22.5006 27.3257 22.58 28.0579 22.8832C28.79 23.1865 29.4157 23.7 29.856 24.3589C30.2962 25.0178 30.5312 25.7925 30.5312 26.5849C30.5312 27.6475 30.1091 28.6666 29.3577 29.418C28.6063 30.1694 27.5872 30.5915 26.5246 30.5915V30.5915ZM34.3828 20.1699C34.3828 20.4552 34.2983 20.734 34.1398 20.9711C33.9813 21.2083 33.7561 21.3931 33.4926 21.5023C33.2291 21.6114 32.9391 21.64 32.6594 21.5843C32.3797 21.5287 32.1227 21.3913 31.921 21.1897C31.7193 20.988 31.582 20.731 31.5263 20.4513C31.4707 20.1715 31.4993 19.8816 31.6084 19.6181C31.7176 19.3546 31.9024 19.1293 32.1395 18.9709C32.3767 18.8124 32.6555 18.7278 32.9407 18.7278V18.7278C33.1301 18.7278 33.3176 18.7651 33.4926 18.8376C33.6676 18.9101 33.8265 19.0163 33.9605 19.1502C34.0944 19.2841 34.2006 19.4431 34.2731 19.6181C34.3455 19.793 34.3828 19.9806 34.3828 20.1699V20.1699ZM37.9124 18.7134C37.61 17.9114 37.1368 17.1848 36.5256 16.5839C35.9259 15.9727 35.1999 15.4998 34.3985 15.1983C33.4645 14.8483 32.4778 14.6598 31.4806 14.6407C30.1995 14.5818 29.7897 14.5674 26.5246 14.5674C23.2594 14.5674 22.8508 14.5806 21.5686 14.6407C20.5718 14.6601 19.5856 14.8486 18.6519 15.1983C17.8506 15.5 17.1247 15.9729 16.5248 16.5839C15.9125 17.1839 15.4391 17.9108 15.138 18.7134C14.7885 19.6471 14.5999 20.6333 14.5804 21.6301C14.5203 22.9111 14.5071 23.3209 14.5071 26.5849C14.5071 29.8488 14.5203 30.2586 14.5804 31.5397C14.5999 32.5365 14.7885 33.5227 15.138 34.4564C15.4391 35.259 15.9125 35.9859 16.5248 36.5859C17.1254 37.1966 17.8516 37.6694 18.6531 37.9715C19.5868 38.3209 20.573 38.5094 21.5698 38.5291C22.852 38.588 23.2618 38.6024 26.5246 38.6024C29.7873 38.6024 30.1983 38.5892 31.4794 38.5291C32.4766 38.5097 33.4632 38.3211 34.3973 37.9715C35.1957 37.6628 35.9208 37.1906 36.5262 36.5853C37.1315 35.9799 37.6037 35.2548 37.9124 34.4564C38.2625 33.5229 38.4511 32.5365 38.47 31.5397C38.5289 30.2574 38.5421 29.8488 38.5421 26.5849C38.5421 23.3209 38.5289 22.9111 38.47 21.6301C38.4506 20.6333 38.2621 19.6471 37.9124 18.7134V18.7134ZM36.308 31.4412C36.3009 32.2039 36.1623 32.9596 35.8982 33.6752C35.6984 34.1943 35.392 34.6657 34.9987 35.059C34.6054 35.4523 34.134 35.7587 33.6149 35.9585C32.9001 36.2229 32.1453 36.3628 31.3833 36.372C30.1166 36.4296 29.7357 36.4417 26.5258 36.4417C23.3159 36.4417 22.9374 36.4296 21.6707 36.372C20.9071 36.3633 20.1506 36.2235 19.4343 35.9585C18.9122 35.7659 18.44 35.4587 18.0522 35.0596C17.6529 34.6721 17.3457 34.1998 17.1533 33.6776C16.8878 32.9632 16.7479 32.2081 16.7399 31.446C16.6847 30.1745 16.6702 29.7948 16.6702 26.5849C16.6702 23.375 16.6822 22.9965 16.7399 21.7286C16.7502 20.9656 16.8912 20.2099 17.1569 19.4946C17.3496 18.9725 17.6568 18.5003 18.0559 18.1125C18.4416 17.7121 18.9128 17.404 19.4343 17.2112C20.1501 16.9469 20.9064 16.8086 21.6695 16.8026C22.9362 16.7438 23.3171 16.7305 26.5246 16.7305C29.7321 16.7305 30.1142 16.7438 31.3821 16.8014C32.1443 16.8095 32.8995 16.9481 33.6149 17.2112C34.134 17.411 34.6054 17.7175 34.9987 18.1108C35.392 18.5041 35.6984 18.9755 35.8982 19.4946C36.1638 20.209 36.3037 20.964 36.3116 21.7262C36.3669 22.9965 36.3789 23.3762 36.3789 26.5849C36.3789 29.7936 36.3669 30.1733 36.308 31.4412Z" fill="#5271FF"/>
</svg>
