<svg width="54" height="54" viewBox="0 0 54 54" fill="none" xmlns="http://www.w3.org/2000/svg">
<rect x="0.0625" y="0.6875" width="53.0321" height="53.0321" rx="10.2675" fill="#DBE5FA"/>
<path d="M35.9733 18.5033C35.3799 18.3878 34.7788 18.3159 34.1749 18.288C28.4661 18.0537 22.7491 18.1084 17.0458 18.4519C16.2818 18.4574 15.5468 18.7448 14.9817 19.259C14.4166 19.7731 14.0612 20.4778 13.9837 21.2379C13.4977 24.2348 13.3861 27.2805 13.6513 30.305C13.8409 32.4474 14.0211 35.0017 16.5766 35.5224C18.2633 35.7854 19.9708 35.8911 21.677 35.8383L26.9577 35.9343C26.9671 35.9343 26.9834 35.9343 26.9834 35.9472C29.9239 36.0022 32.7895 35.8302 35.7229 35.616C38.0631 35.4522 38.6177 33.7532 38.9079 31.729C39.267 29.2853 39.3514 26.8092 39.1595 24.3468C38.9688 21.906 38.8974 19.0158 35.9733 18.5033ZM23.8523 30.8081V23.2539C26.0497 24.5153 28.2132 25.7626 30.427 27.031C28.2296 28.2924 26.0626 29.5397 23.8523 30.8081Z" fill="#5271FF"/>
</svg>
