<svg width="21" height="17" viewBox="0 0 21 17" fill="none" xmlns="http://www.w3.org/2000/svg">
<path d="M0.0653399 8.7631C1.86185 13.6497 5.95885 16.7996 10.5 16.7996C15.0411 16.7996 19.1382 13.6497 20.9347 8.7631C21.0218 8.52874 21.0218 8.27088 20.9347 8.03652C19.1382 3.14993 15.0411 0 10.5 0C5.95885 0 1.86185 3.14993 0.0653399 8.03652C-0.02178 8.27088 -0.02178 8.52874 0.0653399 8.7631ZM10.5 2.09995C14.0416 2.09995 17.2734 4.56005 18.8253 8.39981C17.2734 12.2396 14.0416 14.6997 10.5 14.6997C6.95843 14.6997 3.72661 12.2396 2.17474 8.39981C3.72661 4.56005 6.95843 2.09995 10.5 2.09995ZM10.5 12.5997C11.3307 12.5997 12.1427 12.3534 12.8333 11.8919C13.524 11.4304 14.0623 10.7745 14.3802 10.007C14.6981 9.23961 14.7813 8.39515 14.6192 7.58045C14.4571 6.76575 14.0571 6.01739 13.4698 5.43003C12.8824 4.84266 12.1341 4.44266 11.3194 4.2806C10.5047 4.11855 9.6602 4.20172 8.89277 4.5196C8.12533 4.83748 7.4694 5.3758 7.00791 6.06647C6.54642 6.75714 6.3001 7.56914 6.3001 8.39981C6.3001 9.51369 6.74258 10.582 7.53022 11.3696C8.31785 12.1572 9.38612 12.5997 10.5 12.5997ZM10.5 6.29986C10.9153 6.29986 11.3213 6.42302 11.6667 6.65376C12.012 6.88451 12.2812 7.21247 12.4401 7.59619C12.599 7.97991 12.6406 8.40214 12.5596 8.80949C12.4786 9.21684 12.2786 9.59101 11.9849 9.8847C11.6912 10.1784 11.317 10.3784 10.9097 10.4594C10.5023 10.5404 10.0801 10.4988 9.69638 10.3399C9.31267 10.181 8.9847 9.91181 8.75395 9.56648C8.52321 9.22114 8.40005 8.81514 8.40005 8.39981C8.40005 7.84286 8.62129 7.30873 9.01511 6.91492C9.40893 6.5211 9.94306 6.29986 10.5 6.29986Z" fill="#5271FF"/>
</svg>
