<svg width="24" height="24" viewBox="0 0 24 24" fill="none" xmlns="http://www.w3.org/2000/svg">
<path d="M20.9902 9.98012C20.9934 8.7994 20.7639 7.62963 20.315 6.53759C19.8661 5.44554 19.2064 4.45261 18.3738 3.61549C16.6921 1.92485 14.4078 0.971485 12.0232 0.96512C9.63866 0.958755 7.34923 1.89991 5.65859 3.58155C3.96795 5.26319 3.01458 7.54756 3.00822 9.93212C2.9871 12.7023 3.79128 15.4161 5.31825 17.7276C6.84523 20.0391 9.02586 21.8436 11.5822 22.9111C11.7129 22.9703 11.8548 23.0006 11.9982 23.0001C12.1427 23.0004 12.2856 22.9697 12.4172 22.9101C14.9658 21.8458 17.141 20.0489 18.6672 17.747C20.1935 15.4451 21.0019 12.742 20.9902 9.98012ZM11.9982 20.9001C9.89016 19.972 8.10252 18.443 6.85889 16.5043C5.61525 14.5655 4.97083 12.3032 5.00622 10.0001C5.00622 9.08192 5.18707 8.17271 5.53845 7.3244C5.88983 6.47609 6.40486 5.7053 7.05413 5.05603C7.70339 4.40676 8.47419 3.89173 9.32249 3.54035C10.1708 3.18897 11.08 3.00812 11.9982 3.00812C12.9164 3.00812 13.8256 3.18897 14.6739 3.54035C15.5222 3.89173 16.293 4.40676 16.9423 5.05603C17.5916 5.7053 18.1066 6.47609 18.458 7.3244C18.8094 8.17271 18.9902 9.08192 18.9902 10.0001C18.9902 10.0211 18.9902 10.0451 18.9902 10.0651C19.0145 12.3575 18.3647 14.6066 17.1216 16.5328C15.8786 18.4591 14.097 19.9777 11.9982 20.9001ZM11.9982 6.00012C11.2071 6.00012 10.4337 6.23472 9.77594 6.67424C9.11814 7.11377 8.60545 7.73848 8.3027 8.46939C7.99995 9.20029 7.92074 10.0046 8.07508 10.7805C8.22942 11.5564 8.61038 12.2691 9.16979 12.8285C9.7292 13.388 10.4419 13.7689 11.2179 13.9233C11.9938 14.0776 12.798 13.9984 13.529 13.6956C14.2599 13.3929 14.8846 12.8802 15.3241 12.2224C15.7636 11.5646 15.9982 10.7912 15.9982 10.0001C15.9982 8.93925 15.5768 7.92184 14.8266 7.17169C14.0765 6.42155 13.0591 6.00012 11.9982 6.00012ZM11.9982 12.0001C11.6027 12.0001 11.216 11.8828 10.8871 11.6631C10.5582 11.4433 10.3018 11.1309 10.1505 10.7655C9.99908 10.4 9.95948 9.9979 10.0366 9.60994C10.1138 9.22198 10.3043 8.86561 10.584 8.58591C10.8637 8.3062 11.2201 8.11572 11.608 8.03855C11.996 7.96138 12.3981 8.00099 12.7636 8.15236C13.129 8.30374 13.4414 8.56008 13.6612 8.88898C13.8809 9.21788 13.9982 9.60456 13.9982 10.0001C13.9982 10.5306 13.7875 11.0393 13.4124 11.4143C13.0374 11.7894 12.5287 12.0001 11.9982 12.0001Z" fill="#5271FF"/>
</svg>
