<svg width="24" height="24" viewBox="0 0 24 24" fill="none" xmlns="http://www.w3.org/2000/svg">
<path d="M11.9998 22C12.265 22 12.5193 21.8946 12.7068 21.707L21.7068 12.707C21.8088 12.605 21.8876 12.4821 21.9376 12.3468C21.9877 12.2115 22.0079 12.0669 21.9968 11.923L21.3538 3.56603C21.3356 3.32796 21.2329 3.10424 21.0642 2.93533C20.8954 2.76641 20.6718 2.66344 20.4338 2.64503L12.0768 2.00003C11.9329 1.98894 11.7884 2.00912 11.653 2.05918C11.5177 2.10924 11.3948 2.18799 11.2928 2.29003L2.29279 11.29C2.10532 11.4776 2 11.7319 2 11.997C2 12.2622 2.10532 12.5165 2.29279 12.704L11.2928 21.704C11.3854 21.7974 11.4955 21.8717 11.6168 21.9225C11.7381 21.9732 11.8683 21.9996 11.9998 22ZM12.3818 4.03203L19.4258 4.57403L19.9678 11.618L11.9998 19.586L4.41379 12L12.3818 4.03203ZM14.4428 9.55703C14.163 9.27735 13.9725 8.92098 13.8953 8.533C13.818 8.14502 13.8576 7.74286 14.009 7.37737C14.1603 7.01188 14.4167 6.69949 14.7456 6.4797C15.0745 6.25991 15.4612 6.1426 15.8568 6.1426C16.2524 6.1426 16.6391 6.25991 16.968 6.4797C17.2969 6.69949 17.5532 7.01188 17.7046 7.37737C17.856 7.74286 17.8955 8.14502 17.8183 8.533C17.7411 8.92098 17.5506 9.27735 17.2708 9.55703C16.8957 9.93197 16.3871 10.1426 15.8568 10.1426C15.3265 10.1426 14.8178 9.93197 14.4428 9.55703Z" fill="#5271FF"/>
</svg>
