<svg width="24" height="26" viewBox="0 0 24 26" fill="none" xmlns="http://www.w3.org/2000/svg">
<path d="M12.7004 25.2996C10.6983 25.2996 8.92855 25.0248 7.39101 24.4752C5.85348 23.9322 4.5613 23.1307 3.51446 22.0708C2.46763 21.0108 1.67596 19.7121 1.13946 18.1746C0.602962 16.6371 0.334711 14.8771 0.334711 12.8946C0.334711 10.9776 0.606233 9.26343 1.14928 7.75207C1.69886 6.2407 2.4938 4.95833 3.53409 3.90496C4.58092 2.84504 5.85021 2.03702 7.34194 1.48089C8.84022 0.924758 10.5348 0.646693 12.4256 0.646693C14.2641 0.646693 15.8736 0.947657 17.2541 1.54959C18.6412 2.14497 19.7992 2.953 20.7283 3.97366C21.6639 4.98777 22.364 6.12948 22.8285 7.39876C23.2996 8.66804 23.5351 9.97658 23.5351 11.3244C23.5351 12.2731 23.4893 13.2348 23.3977 14.2097C23.3061 15.1846 23.1131 16.0809 22.8187 16.8988C22.5243 17.7101 22.0696 18.3643 21.4545 18.8616C20.8461 19.3588 20.0217 19.6074 18.9814 19.6074C18.5234 19.6074 18.0196 19.5355 17.47 19.3915C16.9205 19.2476 16.433 19.0088 16.0077 18.6751C15.5825 18.3414 15.3306 17.8933 15.2521 17.3306H15.1343C14.9773 17.7101 14.7352 18.0699 14.4081 18.4101C14.0875 18.7503 13.6655 19.0219 13.142 19.2247C12.6252 19.4275 11.9938 19.5158 11.2479 19.4897C10.3974 19.457 9.64824 19.2672 9.00052 18.9205C8.35279 18.5671 7.80975 18.0895 7.37138 17.4876C6.93957 16.8791 6.61243 16.1758 6.38998 15.3776C6.17407 14.5728 6.06612 13.7059 6.06612 12.7769C6.06612 11.8936 6.19697 11.0856 6.45868 10.3528C6.72039 9.62001 7.08351 8.97882 7.54804 8.42923C8.01911 7.87965 8.5687 7.44129 9.1968 7.11415C9.83144 6.78047 10.5152 6.57438 11.2479 6.49587C11.9022 6.43044 12.4976 6.45988 13.0341 6.58419C13.5706 6.70196 14.0122 6.88189 14.359 7.12397C14.7058 7.3595 14.9249 7.62121 15.0165 7.90909H15.1343V6.80992H17.2149V15.6818C17.2149 16.2314 17.3686 16.7156 17.6761 17.1343C17.9836 17.553 18.4318 17.7624 19.0207 17.7624C19.688 17.7624 20.1983 17.5334 20.5517 17.0754C20.9115 16.6174 21.1569 15.9108 21.2877 14.9556C21.4251 14.0003 21.4938 12.7769 21.4938 11.2851C21.4938 10.4084 21.3728 9.54477 21.1307 8.69421C20.8951 7.83712 20.5353 7.03564 20.0511 6.28977C19.5735 5.5439 18.9683 4.88636 18.2355 4.31715C17.5028 3.74793 16.6424 3.30303 15.6544 2.98244C14.673 2.6553 13.5575 2.49173 12.3079 2.49173C10.7703 2.49173 9.39308 2.73054 8.17614 3.20816C6.96574 3.67924 5.93526 4.36949 5.08471 5.27892C4.2407 6.18182 3.59625 7.28099 3.15134 8.57645C2.71298 9.86536 2.4938 11.3309 2.4938 12.9731C2.4938 14.6415 2.71298 16.1235 3.15134 17.4189C3.59625 18.7144 4.25052 19.807 5.11415 20.6968C5.98433 21.5866 7.06061 22.2605 8.34298 22.7185C9.62534 23.183 11.104 23.4153 12.7789 23.4153C13.4986 23.4153 14.2085 23.3466 14.9086 23.2092C15.6086 23.0718 16.2269 22.9213 16.7634 22.7577C17.2999 22.5942 17.686 22.4731 17.9215 22.3946L18.4711 24.2004C18.0654 24.3705 17.5355 24.5406 16.8812 24.7107C16.2335 24.8809 15.5399 25.0215 14.8006 25.1327C14.0678 25.244 13.3678 25.2996 12.7004 25.2996ZM11.562 17.4876C12.4387 17.4876 13.1486 17.311 13.6916 16.9576C14.2347 16.6043 14.6305 16.0711 14.8791 15.358C15.1278 14.6448 15.2521 13.7452 15.2521 12.6591C15.2521 11.5599 15.1147 10.7028 14.8399 10.0878C14.5651 9.4728 14.1594 9.04098 13.6229 8.79236C13.0864 8.54373 12.4256 8.41942 11.6405 8.41942C10.8946 8.41942 10.2567 8.6157 9.72676 9.00826C9.20334 9.39428 8.80096 9.91116 8.51963 10.5589C8.24484 11.2001 8.10744 11.9001 8.10744 12.6591C8.10744 13.4966 8.21866 14.285 8.44112 15.0243C8.66357 15.7571 9.02669 16.3524 9.53048 16.8104C10.0343 17.2619 10.7114 17.4876 11.562 17.4876Z" fill="#5271FF"/>
</svg>
