<svg width="24" height="24" viewBox="0 0 24 24" fill="none" xmlns="http://www.w3.org/2000/svg">
<path d="M2 21H10C10.2652 21 10.5196 20.8947 10.7071 20.7071C10.8946 20.5196 11 20.2653 11 20C11 19.7348 10.8946 19.4805 10.7071 19.2929C10.5196 19.1054 10.2652 19 10 19H3.071C3.31366 17.3349 4.14714 15.8125 5.41925 14.711C6.69136 13.6094 8.31724 13.0021 10 13C11.1775 13.0103 12.3214 12.6082 13.2336 11.8635C14.1457 11.1189 14.7686 10.0785 14.9943 8.92283C15.2199 7.76713 15.0341 6.56891 14.4691 5.53581C13.904 4.50272 12.9953 3.69988 11.9005 3.26642C10.8057 2.83296 9.59368 2.7962 8.47459 3.16252C7.3555 3.52884 6.39984 4.27514 5.77322 5.27209C5.14661 6.26905 4.88855 7.45381 5.04375 8.62106C5.19895 9.78831 5.75765 10.8645 6.623 11.663C4.96321 12.3364 3.54177 13.4891 2.54021 14.9741C1.53864 16.4591 1.00242 18.2089 1 20C1 20.2653 1.10536 20.5196 1.29289 20.7071C1.48043 20.8947 1.73478 21 2 21ZM10 5.00004C10.5933 5.00004 11.1734 5.17599 11.6667 5.50563C12.1601 5.83528 12.5446 6.30381 12.7716 6.85199C12.9987 7.40017 13.0581 8.00337 12.9424 8.58531C12.8266 9.16726 12.5409 9.70181 12.1213 10.1214C11.7018 10.5409 11.1672 10.8266 10.5853 10.9424C10.0033 11.0582 9.40013 10.9987 8.85195 10.7717C8.30377 10.5446 7.83524 10.1601 7.50559 9.66675C7.17595 9.17341 7 8.59339 7 8.00004C7 7.20439 7.31607 6.44133 7.87868 5.87872C8.44129 5.31611 9.20435 5.00004 10 5.00004ZM15.085 17.121C14.656 15.069 15.918 14 17.223 14C17.5649 13.9734 17.9079 14.035 18.2191 14.1792C18.5303 14.3233 18.7992 14.545 19 14.823C19.2008 14.545 19.4697 14.3233 19.7809 14.1792C20.0921 14.035 20.4351 13.9734 20.777 14C22.077 14 23.344 15.069 22.915 17.121C22.48 19.2 19 21 19 21C19 21 15.52 19.2 15.085 17.121Z" fill="#5271FF"/>
</svg>
