<svg width="16" height="18" viewBox="0 0 16 18" fill="none" xmlns="http://www.w3.org/2000/svg">
<path d="M11.9252 8.17255C12.8552 8.02555 13.5712 7.12855 13.5732 6.0418C13.5732 4.9708 12.8792 4.0828 11.9692 3.91479" stroke="#5271FF" stroke-width="0.90533" stroke-linecap="round" stroke-linejoin="round"/>
<path d="M13.1523 10.688C14.053 10.8395 14.6817 11.1942 14.6817 11.9255C14.6817 12.4287 14.3857 12.7557 13.907 12.9612" stroke="#5271FF" stroke-width="0.90533" stroke-linecap="round" stroke-linejoin="round"/>
<path fill-rule="evenodd" clip-rule="evenodd" d="M7.92445 10.9978C5.78178 10.9978 3.95178 11.3631 3.95178 12.8218C3.95178 14.2798 5.77045 14.6556 7.92445 14.6556C10.0671 14.6556 11.8964 14.2941 11.8964 12.8346C11.8964 11.3751 10.0784 10.9978 7.92445 10.9978Z" stroke="#5271FF" stroke-width="0.90533" stroke-linecap="round" stroke-linejoin="round"/>
<path fill-rule="evenodd" clip-rule="evenodd" d="M7.92468 8.916C9.33068 8.916 10.4707 7.63425 10.4707 6.05175C10.4707 4.47 9.33068 3.1875 7.92468 3.1875C6.51868 3.1875 5.37868 4.47 5.37868 6.05175C5.37335 7.62825 6.50468 8.91075 7.90601 8.916H7.92468Z" stroke="#5271FF" stroke-width="0.90533" stroke-linecap="round" stroke-linejoin="round"/>
<path d="M3.92327 8.17255C2.9926 8.02555 2.27727 7.12855 2.27527 6.0418C2.27527 4.9708 2.96927 4.0828 3.87927 3.91479" stroke="#5271FF" stroke-width="0.90533" stroke-linecap="round" stroke-linejoin="round"/>
<path d="M2.69596 10.688C1.79529 10.8395 1.16663 11.1942 1.16663 11.9255C1.16663 12.4287 1.46263 12.7557 1.94129 12.9612" stroke="#5271FF" stroke-width="0.90533" stroke-linecap="round" stroke-linejoin="round"/>
</svg>
