<svg width="15" height="15" viewBox="0 0 15 15" fill="none" xmlns="http://www.w3.org/2000/svg">
<path d="M12.8125 2.88056C12.4703 2.46656 12.0406 2.1336 11.5543 1.90567C11.0679 1.67774 10.5371 1.56052 10 1.56244C9.08104 1.53461 8.18634 1.86006 7.50001 2.47181C6.81368 1.86006 5.91899 1.53461 5.00001 1.56244C4.46292 1.56052 3.93208 1.67774 3.44574 1.90567C2.95941 2.1336 2.52968 2.46656 2.18751 2.88056C1.59189 3.60306 0.968762 4.91119 1.38189 7.04306C2.04126 10.4474 6.98564 13.2412 7.19439 13.3556C7.28744 13.4075 7.39222 13.4347 7.49876 13.4347C7.60531 13.4347 7.71008 13.4075 7.80314 13.3556C8.01314 13.2387 12.9575 10.4449 13.6156 7.04306C14.0313 4.91119 13.4081 3.60306 12.8125 2.88056ZM12.3913 6.80556C11.925 9.21244 8.53626 11.4512 7.50001 12.0874C6.04001 11.2062 3.03626 8.99369 2.61189 6.80556C2.29126 5.15181 2.73001 4.19119 3.15501 3.67619C3.37977 3.40501 3.66175 3.18693 3.98073 3.03759C4.29972 2.88826 4.6478 2.81137 5.00001 2.81244C5.37619 2.78423 5.75327 2.85397 6.09447 3.01488C6.43567 3.17579 6.72936 3.42236 6.94689 3.73056C7.00053 3.82927 7.07966 3.91179 7.17604 3.96951C7.27242 4.02724 7.38252 4.05805 7.49486 4.05876C7.6072 4.05946 7.71767 4.03002 7.81476 3.9735C7.91186 3.91699 7.99202 3.83547 8.04689 3.73744C8.264 3.42684 8.55831 3.17818 8.9008 3.01597C9.2433 2.85377 9.62215 2.78362 10 2.81244C10.353 2.81072 10.7019 2.8873 11.0217 3.03666C11.3415 3.18602 11.6242 3.40444 11.8494 3.67619C12.2731 4.19119 12.7119 5.15181 12.3913 6.80556Z" fill="#5271FF"/>
</svg>
