<svg width="30" height="30" viewBox="0 0 30 30" fill="none" xmlns="http://www.w3.org/2000/svg">
<path d="M14.9987 7.72543C13.5599 7.72543 12.1535 8.15207 10.9572 8.95142C9.76086 9.75076 8.82846 10.8869 8.27786 12.2161C7.72726 13.5454 7.5832 15.0081 7.86389 16.4192C8.14459 17.8303 8.83742 19.1265 9.85479 20.1439C10.8722 21.1613 12.1684 21.8541 13.5795 22.1348C14.9906 22.4155 16.4533 22.2714 17.7826 21.7208C19.1118 21.1703 20.248 20.2379 21.0473 19.0416C21.8466 17.8453 22.2733 16.4388 22.2733 15C22.2733 13.0707 21.5069 11.2204 20.1426 9.8561C18.7784 8.49186 16.928 7.72543 14.9987 7.72543ZM14.9987 19.7232C14.0645 19.7232 13.1514 19.4462 12.3746 18.9272C11.5979 18.4082 10.9925 17.6705 10.6351 16.8075C10.2776 15.9444 10.184 14.9948 10.3663 14.0786C10.5485 13.1624 10.9984 12.3208 11.6589 11.6602C12.3195 10.9997 13.1611 10.5498 14.0773 10.3676C14.9935 10.1854 15.9431 10.2789 16.8062 10.6364C17.6692 10.9939 18.4069 11.5992 18.9259 12.376C19.4449 13.1527 19.7219 14.0659 19.7219 15C19.7219 16.2527 19.2242 17.454 18.3385 18.3398C17.4527 19.2256 16.2514 19.7232 14.9987 19.7232ZM24.2623 7.43784C24.2623 7.77407 24.1626 8.10275 23.9758 8.38231C23.789 8.66188 23.5235 8.87977 23.2128 9.00844C22.9022 9.13711 22.5604 9.17077 22.2306 9.10518C21.9009 9.03958 21.598 8.87768 21.3602 8.63993C21.1225 8.40218 20.9605 8.09926 20.8949 7.7695C20.8294 7.43973 20.863 7.09792 20.9917 6.78728C21.1204 6.47665 21.3382 6.21114 21.6178 6.02435C21.8974 5.83755 22.2261 5.73784 22.5623 5.73784C22.7855 5.73784 23.0066 5.78182 23.2128 5.86725C23.4191 5.95268 23.6065 6.0779 23.7644 6.23576C23.9222 6.39362 24.0474 6.58103 24.1329 6.78728C24.2183 6.99354 24.2623 7.2146 24.2623 7.43784ZM28.423 5.72084C28.0666 4.7754 27.5088 3.91882 26.7882 3.21051C26.0812 2.48999 25.2255 1.93254 24.2807 1.57709C23.1797 1.16452 22.0166 0.942238 20.841 0.91976C19.3309 0.850344 18.8478 0.833344 14.9987 0.833344C11.1496 0.833344 10.6679 0.848927 9.15637 0.91976C7.98133 0.942618 6.81871 1.16489 5.71811 1.57709C4.77346 1.93278 3.91775 2.4902 3.21061 3.21051C2.48881 3.9178 1.93078 4.77468 1.57578 5.72084C1.16374 6.82149 0.94147 7.98408 0.918448 9.15909C0.847615 10.6693 0.832031 11.1523 0.832031 15C0.832031 18.8477 0.847615 19.3308 0.918448 20.8409C0.94147 22.0159 1.16374 23.1785 1.57578 24.2792C1.93078 25.2253 2.48881 26.0822 3.21061 26.7895C3.91859 27.5095 4.77468 28.0668 5.71953 28.4229C6.82021 28.8348 7.98278 29.0571 9.15778 29.0803C10.6694 29.1497 11.1524 29.1667 14.9987 29.1667C18.8449 29.1667 19.3294 29.1511 20.8396 29.0803C22.0151 29.0574 23.1782 28.8351 24.2793 28.4229C25.2205 28.059 26.0753 27.5024 26.7889 26.7888C27.5025 26.0752 28.0591 25.2204 28.423 24.2792C28.8358 23.1787 29.0581 22.016 29.0804 20.8409C29.1498 19.3293 29.1654 18.8477 29.1654 15C29.1654 11.1523 29.1498 10.6693 29.0804 9.15909C29.0575 7.98406 28.8352 6.82144 28.423 5.72084ZM26.5318 20.7248C26.5234 21.6239 26.3599 22.5148 26.0487 23.3583C25.8132 23.9703 25.4519 24.526 24.9883 24.9896C24.5247 25.4532 23.9689 25.8145 23.357 26.05C22.5144 26.3617 21.6246 26.5265 20.7263 26.5373C19.2331 26.6053 18.784 26.6195 15.0001 26.6195C11.2162 26.6195 10.7699 26.6053 9.27678 26.5373C8.37655 26.5271 7.48476 26.3623 6.64036 26.05C6.02499 25.8229 5.4683 25.4608 5.0112 24.9903C4.54044 24.5335 4.17831 23.9767 3.95153 23.3612C3.63845 22.519 3.47357 21.6289 3.4642 20.7304C3.39903 19.2316 3.38203 18.7839 3.38203 15C3.38203 11.2161 3.3962 10.7698 3.4642 9.27526C3.47625 8.37575 3.64252 7.48497 3.95578 6.64168C4.1829 6.0263 4.54499 5.46961 5.01545 5.01251C5.47017 4.54051 6.02563 4.1773 6.64036 3.95001C7.48426 3.63838 8.3758 3.47541 9.27536 3.46834C10.7685 3.39893 11.2176 3.38334 14.9987 3.38334C18.7798 3.38334 19.2303 3.39893 20.7249 3.46693C21.6234 3.47641 22.5137 3.63981 23.357 3.95001C23.9689 4.18555 24.5247 4.5468 24.9883 5.01043C25.4519 5.47406 25.8132 6.02977 26.0487 6.64168C26.3618 7.48389 26.5267 8.37395 26.536 9.27243C26.6012 10.7698 26.6154 11.2175 26.6154 15C26.6154 18.7825 26.6012 19.2302 26.5318 20.7248Z" fill="#5271FF"/>
</svg>
