<svg width="18" height="18" viewBox="0 0 18 18" fill="none" xmlns="http://www.w3.org/2000/svg">
<path d="M16.5 2.25H1.5C1.30109 2.25 1.11032 2.32902 0.96967 2.46967C0.829018 2.61032 0.75 2.80109 0.75 3V15C0.75 15.1989 0.829018 15.3897 0.96967 15.5303C1.11032 15.671 1.30109 15.75 1.5 15.75H16.5C16.6989 15.75 16.8897 15.671 17.0303 15.5303C17.171 15.3897 17.25 15.1989 17.25 15V3C17.25 2.80109 17.171 2.61032 17.0303 2.46967C16.8897 2.32902 16.6989 2.25 16.5 2.25ZM15.75 14.25H2.25V7.10775L8.721 9.69675C8.90022 9.76775 9.09978 9.76775 9.279 9.69675L15.75 7.10775V14.25ZM15.75 5.49225L9 8.19225L2.25 5.49225V3.75H15.75V5.49225Z" fill="#667085"/>
</svg>
