<svg width="32" height="32" viewBox="0 0 32 32" fill="none" xmlns="http://www.w3.org/2000/svg">
<path d="M27.9993 6.66675H3.99935C3.64573 6.66675 3.30659 6.80722 3.05654 7.05727C2.80649 7.30732 2.66602 7.64646 2.66602 8.00008V24.0001C2.66602 24.3537 2.80649 24.6928 3.05654 24.9429C3.30659 25.1929 3.64573 25.3334 3.99935 25.3334H27.9993C28.353 25.3334 28.6921 25.1929 28.9422 24.9429C29.1922 24.6928 29.3327 24.3537 29.3327 24.0001V8.00008C29.3327 7.64646 29.1922 7.30732 28.9422 7.05727C28.6921 6.80722 28.353 6.66675 27.9993 6.66675ZM5.33268 22.6667V18.6667C6.39355 18.6667 7.41096 19.0882 8.16111 19.8383C8.91125 20.5885 9.33268 21.6059 9.33268 22.6667H5.33268ZM5.33268 13.3334V9.33341H9.33268C9.33268 10.3943 8.91125 11.4117 8.16111 12.1618C7.41096 12.912 6.39355 13.3334 5.33268 13.3334ZM15.9993 19.3334C15.3401 19.3334 14.6956 19.1379 14.1474 18.7716C13.5993 18.4054 13.172 17.8848 12.9197 17.2757C12.6675 16.6666 12.6014 15.9964 12.7301 15.3498C12.8587 14.7032 13.1762 14.1092 13.6423 13.6431C14.1085 13.1769 14.7024 12.8594 15.349 12.7308C15.9957 12.6022 16.6659 12.6682 17.275 12.9205C17.884 13.1728 18.4046 13.6 18.7709 14.1482C19.1372 14.6963 19.3327 15.3408 19.3327 16.0001C19.3327 16.8841 18.9815 17.732 18.3564 18.3571C17.7312 18.9822 16.8834 19.3334 15.9993 19.3334ZM26.666 22.6667H22.666C22.666 21.6059 23.0874 20.5885 23.8376 19.8383C24.5877 19.0882 25.6051 18.6667 26.666 18.6667V22.6667ZM26.666 13.3334C25.6051 13.3334 24.5877 12.912 23.8376 12.1618C23.0874 11.4117 22.666 10.3943 22.666 9.33341H26.666V13.3334Z" fill="#5271FF"/>
</svg>
