<svg width="32" height="32" viewBox="0 0 32 32" fill="none" xmlns="http://www.w3.org/2000/svg">
<path d="M11.3327 30.6666C12.9329 30.6761 14.5191 30.368 15.9993 29.7599C17.478 30.3731 19.0653 30.6815 20.666 30.6666C25.526 30.6666 29.3327 28.0732 29.3327 24.7612V19.2386C29.3327 15.9266 25.526 13.3333 20.666 13.3333C20.4407 13.3333 20.2193 13.3439 19.9993 13.3559V7.11059C19.9993 3.86659 16.1927 1.33325 11.3327 1.33325C6.47268 1.33325 2.66602 3.86659 2.66602 7.11059V24.8892C2.66602 28.1332 6.47268 30.6666 11.3327 30.6666ZM26.666 24.7612C26.666 26.2932 24.202 27.9999 20.666 27.9999C17.13 27.9999 14.666 26.2932 14.666 24.7612V23.5279C16.4716 24.6261 18.5531 25.1862 20.666 25.1426C22.7789 25.1862 24.8604 24.6261 26.666 23.5279V24.7612ZM20.666 15.9999C24.202 15.9999 26.666 17.7066 26.666 19.2386C26.666 20.7706 24.202 22.4759 20.666 22.4759C17.13 22.4759 14.666 20.7693 14.666 19.2386C14.666 17.7079 17.13 15.9999 20.666 15.9999ZM11.3327 3.99992C14.8687 3.99992 17.3327 5.63992 17.3327 7.11059C17.3327 8.58125 14.8687 10.2226 11.3327 10.2226C7.79668 10.2226 5.33268 8.58258 5.33268 7.11059C5.33268 5.63859 7.79668 3.99992 11.3327 3.99992ZM5.33268 11.3093C7.14583 12.386 9.22436 12.9334 11.3327 12.8893C13.441 12.9334 15.5195 12.386 17.3327 11.3093V13.7733C15.8796 14.1395 14.5469 14.878 13.466 15.9159C12.765 16.0676 12.0499 16.1454 11.3327 16.1479C7.79668 16.1479 5.33268 14.5079 5.33268 13.0373V11.3093ZM5.33268 17.2359C7.14622 18.3116 9.22456 18.8585 11.3327 18.8146C11.57 18.8146 11.7993 18.7853 12.0327 18.7733C12.0128 18.9276 12.0017 19.083 11.9993 19.2386V22.0186C11.7753 22.0319 11.5593 22.0746 11.3327 22.0746C7.79668 22.0746 5.33268 20.4346 5.33268 18.9626V17.2359ZM5.33268 23.1613C7.14583 24.238 9.22436 24.7854 11.3327 24.7413C11.5567 24.7413 11.7767 24.7239 11.9993 24.7133V24.7612C12.0184 25.8963 12.4546 26.9846 13.2247 27.8186C12.6008 27.9364 11.9675 27.9971 11.3327 27.9999C7.79668 27.9999 5.33268 26.3599 5.33268 24.8892V23.1613Z" fill="#5271FF"/>
</svg>
