<svg width="32" height="32" viewBox="0 0 32 32" fill="none" xmlns="http://www.w3.org/2000/svg">
<path d="M28.0007 14.9121V9.33341C28.0007 8.97979 27.8602 8.64065 27.6101 8.39061C27.3601 8.14056 27.0209 8.00008 26.6673 8.00008H5.33398C4.98036 8.00008 4.64122 7.8596 4.39118 7.60956C4.14113 7.35951 4.00065 7.02037 4.00065 6.66675C4.00065 6.31313 4.14113 5.97399 4.39118 5.72394C4.64122 5.47389 4.98036 5.33341 5.33398 5.33341H26.6673C27.0209 5.33341 27.3601 5.19294 27.6101 4.94289C27.8602 4.69284 28.0007 4.3537 28.0007 4.00008C28.0007 3.64646 27.8602 3.30732 27.6101 3.05727C27.3601 2.80722 27.0209 2.66675 26.6673 2.66675H5.33398C4.27312 2.66675 3.2557 3.08818 2.50556 3.83832C1.75541 4.58847 1.33398 5.60588 1.33398 6.66675V25.3334C1.33398 26.3943 1.75541 27.4117 2.50556 28.1618C3.2557 28.912 4.27312 29.3334 5.33398 29.3334H26.6673C27.0209 29.3334 27.3601 29.1929 27.6101 28.9429C27.8602 28.6928 28.0007 28.3537 28.0007 28.0001V22.4214C28.78 22.1499 29.4556 21.6425 29.9337 20.9698C30.4117 20.297 30.6686 19.4921 30.6686 18.6667C30.6686 17.8414 30.4117 17.0365 29.9337 16.3637C29.4556 15.691 28.78 15.1836 28.0007 14.9121ZM25.334 26.6667H5.33398C4.98036 26.6667 4.64122 26.5263 4.39118 26.2762C4.14113 26.0262 4.00065 25.687 4.00065 25.3334V10.4214C4.42766 10.5793 4.87873 10.6623 5.33398 10.6667H25.334V14.6667H21.334C20.2731 14.6667 19.2557 15.0882 18.5056 15.8383C17.7554 16.5885 17.334 17.6059 17.334 18.6667C17.334 19.7276 17.7554 20.745 18.5056 21.4952C19.2557 22.2453 20.2731 22.6667 21.334 22.6667H25.334V26.6667ZM26.6673 20.0001H21.334C20.9804 20.0001 20.6412 19.8596 20.3912 19.6096C20.1411 19.3595 20.0007 19.0204 20.0007 18.6667C20.0007 18.3131 20.1411 17.974 20.3912 17.7239C20.6412 17.4739 20.9804 17.3334 21.334 17.3334H26.6673C27.0209 17.3334 27.3601 17.4739 27.6101 17.7239C27.8602 17.974 28.0007 18.3131 28.0007 18.6667C28.0007 19.0204 27.8602 19.3595 27.6101 19.6096C27.3601 19.8596 27.0209 20.0001 26.6673 20.0001Z" fill="#5271FF"/>
</svg>
