<svg width="32" height="32" viewBox="0 0 32 32" fill="none" xmlns="http://www.w3.org/2000/svg">
<path d="M24 1.33325H8C6.93913 1.33325 5.92172 1.75468 5.17157 2.50482C4.42143 3.25497 4 4.27239 4 5.33325V29.3333C4 29.6131 4.08805 29.8858 4.25168 30.1129C4.4153 30.3399 4.64621 30.5097 4.9117 30.5982C5.17718 30.6867 5.46378 30.6894 5.73089 30.6059C5.998 30.5225 6.23209 30.3571 6.4 30.1333L9.10533 26.5333L10.8067 29.9359C10.9077 30.1384 11.0587 30.3119 11.2453 30.4399C11.4319 30.568 11.648 30.6465 11.8733 30.6679C12.1005 30.6903 12.3295 30.6528 12.5377 30.5593C12.7459 30.4657 12.9259 30.3193 13.06 30.1346L16 26.2226L18.9333 30.1333C19.0676 30.3178 19.2477 30.464 19.4558 30.5575C19.6639 30.6511 19.8929 30.6887 20.12 30.6666C20.3453 30.6451 20.5614 30.5667 20.7481 30.4386C20.9347 30.3106 21.0856 30.1371 21.1867 29.9346L22.8947 26.5333L25.6 30.1333C25.7242 30.2988 25.8852 30.4332 26.0704 30.5258C26.2555 30.6184 26.4597 30.6666 26.6667 30.6666C27.0203 30.6666 27.3594 30.5261 27.6095 30.2761C27.8595 30.026 28 29.6869 28 29.3333V5.33325C28 4.27239 27.5786 3.25497 26.8284 2.50482C26.0783 1.75468 25.0609 1.33325 24 1.33325ZM25.3333 25.3333L23.7333 23.1999C23.5991 23.0154 23.419 22.8692 23.2108 22.7756C23.0027 22.6821 22.7738 22.6445 22.5467 22.6666C22.3214 22.688 22.1052 22.7665 21.9186 22.8946C21.732 23.0226 21.5811 23.1961 21.48 23.3986L19.7787 26.8013L17.0667 23.1999C16.9425 23.0343 16.7814 22.8999 16.5963 22.8073C16.4111 22.7148 16.207 22.6666 16 22.6666C15.793 22.6666 15.5889 22.7148 15.4037 22.8073C15.2186 22.8999 15.0575 23.0343 14.9333 23.1999L12.228 26.8066L10.5333 23.4039C10.4318 23.1986 10.2791 23.0229 10.0899 22.8938C9.90077 22.7646 9.68152 22.6864 9.45333 22.6666C9.22628 22.645 8.99752 22.6829 8.78948 22.7764C8.58145 22.8699 8.40129 23.0158 8.26667 23.1999L6.66667 25.3333V5.33325C6.66667 4.97963 6.80714 4.64049 7.05719 4.39044C7.30724 4.14039 7.64638 3.99992 8 3.99992H24C24.3536 3.99992 24.6928 4.14039 24.9428 4.39044C25.1929 4.64049 25.3333 4.97963 25.3333 5.33325V25.3333ZM22.6667 11.9999C22.6667 12.3535 22.5262 12.6927 22.2761 12.9427C22.0261 13.1928 21.687 13.3333 21.3333 13.3333H10.6667C10.313 13.3333 9.97391 13.1928 9.72386 12.9427C9.47381 12.6927 9.33333 12.3535 9.33333 11.9999C9.33333 11.6463 9.47381 11.3072 9.72386 11.0571C9.97391 10.8071 10.313 10.6666 10.6667 10.6666H21.3333C21.687 10.6666 22.0261 10.8071 22.2761 11.0571C22.5262 11.3072 22.6667 11.6463 22.6667 11.9999ZM17.3333 17.3333C17.3333 17.6869 17.1929 18.026 16.9428 18.2761C16.6928 18.5261 16.3536 18.6666 16 18.6666H10.6667C10.313 18.6666 9.97391 18.5261 9.72386 18.2761C9.47381 18.026 9.33333 17.6869 9.33333 17.3333C9.33333 16.9796 9.47381 16.6405 9.72386 16.3904C9.97391 16.1404 10.313 15.9999 10.6667 15.9999H16C16.3536 15.9999 16.6928 16.1404 16.9428 16.3904C17.1929 16.6405 17.3333 16.9796 17.3333 17.3333Z" fill="#5271FF"/>
</svg>
