<svg width="29" height="29" viewBox="0 0 29 29" fill="none" xmlns="http://www.w3.org/2000/svg">
<path d="M14.4573 3.99463C10.5956 3.99463 7.45727 7.13296 7.45727 10.9946V14.3663C7.45727 15.078 7.15394 16.163 6.79227 16.7696L5.45061 18.998C4.62227 20.3746 5.19394 21.903 6.71061 22.4163C11.7389 24.0963 17.1639 24.0963 22.1923 22.4163C23.6039 21.9496 24.2223 20.2813 23.4523 18.998L22.1106 16.7696C21.7606 16.163 21.4573 15.078 21.4573 14.3663V10.9946C21.4573 7.14463 18.3073 3.99463 14.4573 3.99463Z" stroke="#5271FF" stroke-width="1.95" stroke-miterlimit="10" stroke-linecap="round"/>
<path d="M16.6135 4.33279C16.2519 4.22779 15.8785 4.14613 15.4935 4.09946C14.3735 3.95946 13.3002 4.04113 12.2969 4.33279C12.6352 3.46946 13.4752 2.86279 14.4552 2.86279C15.4352 2.86279 16.2752 3.46946 16.6135 4.33279Z" stroke="#5271FF" stroke-width="1.95" stroke-miterlimit="10" stroke-linecap="round" stroke-linejoin="round"/>
<path d="M17.957 22.8364C17.957 24.7614 16.382 26.3364 14.457 26.3364C13.5004 26.3364 12.6137 25.9398 11.9837 25.3098C11.3537 24.6798 10.957 23.7931 10.957 22.8364" stroke="#5271FF" stroke-width="1.95" stroke-miterlimit="10"/>
</svg>
