<svg width="24" height="24" viewBox="0 0 24 24" fill="none" xmlns="http://www.w3.org/2000/svg">
<path d="M6.97683 15.532C6.9767 15.8986 7.04879 16.2616 7.189 16.6004C7.3292 16.9391 7.53476 17.2469 7.79394 17.5062C8.05312 17.7655 8.36085 17.9711 8.69953 18.1115C9.03822 18.2518 9.40123 18.324 9.76783 18.324C10.5158 18.3352 11.2384 18.0528 11.7805 17.5374C12.3227 17.022 12.6412 16.3146 12.6678 15.567L12.6998 3H15.2778C15.3949 4.11989 15.902 5.16299 16.7103 5.94684C17.5187 6.7307 18.5769 7.20543 19.6998 7.288V10.283C19.5528 10.297 19.4048 10.305 19.2568 10.305C18.459 10.3056 17.6737 10.1072 16.9718 9.72802C16.2699 9.34879 15.6736 8.80059 15.2368 8.133V15.533C15.2368 16.6147 14.9161 17.672 14.3151 18.5714C13.7142 19.4708 12.8601 20.1718 11.8607 20.5857C10.8614 20.9996 9.76176 21.1079 8.70088 20.8969C7.64 20.6859 6.66552 20.165 5.90066 19.4002C5.13581 18.6353 4.61494 17.6608 4.40392 16.5999C4.19289 15.5391 4.3012 14.4394 4.71513 13.4401C5.12907 12.4408 5.83004 11.5866 6.72942 10.9857C7.62879 10.3848 8.68616 10.064 9.76783 10.064C9.88183 10.064 9.99383 10.074 10.1058 10.081V12.781C9.99392 12.7631 9.88106 12.7517 9.76783 12.747C9.02865 12.747 8.31966 13.0402 7.79641 13.5623C7.27317 14.0845 6.97842 14.7928 6.97683 15.532Z" fill="black"/>
</svg>
