<svg width="24" height="24" viewBox="0 0 24 24" fill="none" xmlns="http://www.w3.org/2000/svg">
<path d="M20.1928 4.69205C19.6857 4.59334 19.172 4.53184 18.6558 4.50805C13.7769 4.30775 8.89102 4.35448 4.01684 4.64805C3.36392 4.65281 2.73575 4.89844 2.25279 5.33785C1.76984 5.77725 1.4661 6.37948 1.39984 7.02905C0.984563 9.59031 0.889166 12.1933 1.11584 14.778C1.27784 16.609 1.43184 18.792 3.61584 19.237C5.05735 19.4618 6.51661 19.5522 7.97484 19.507L12.4878 19.589C12.4958 19.589 12.5098 19.589 12.5098 19.6C15.0228 19.647 17.4718 19.5 19.9788 19.317C21.9788 19.177 22.4528 17.725 22.7008 15.995C23.0077 13.9067 23.0799 11.7905 22.9158 9.68605C22.7528 7.60005 22.6918 5.13005 20.1928 4.69205ZM9.83384 15.208V8.75205C11.7118 9.83005 13.5608 10.896 15.4528 11.98C13.5748 13.058 11.7228 14.124 9.83384 15.208Z" fill="#E91622"/>
</svg>
