<svg width="33" height="32" viewBox="0 0 33 32" fill="none" xmlns="http://www.w3.org/2000/svg">
<path d="M16.3615 2.66677C14.3205 2.66544 12.3064 3.1327 10.4745 4.03255C8.64251 4.9324 7.04159 6.24081 5.79506 7.85697C4.54853 9.47313 3.68968 11.3539 3.28467 13.3543C2.87966 15.3548 2.93932 17.4215 3.45904 19.3952C3.97876 21.369 4.94467 23.1971 6.28234 24.7387C7.62001 26.2802 9.29374 27.4941 11.1746 28.2868C13.0554 29.0795 15.0931 29.4298 17.1306 29.3107C19.1682 29.1917 21.1512 28.6064 22.9269 27.6001L27.9402 29.2708C28.0765 29.3138 28.2187 29.3349 28.3615 29.3334C28.5727 29.3333 28.7808 29.283 28.9687 29.1867C29.1566 29.0903 29.319 28.9508 29.4424 28.7794C29.5658 28.6081 29.6468 28.4099 29.6786 28.2012C29.7105 27.9924 29.6923 27.7791 29.6255 27.5788L27.9615 22.5654C29.114 20.5381 29.7139 18.2436 29.7012 15.9116C29.6886 13.5796 29.0637 11.2918 27.8892 9.27712C26.7148 7.26242 25.0318 5.59146 23.0088 4.43139C20.9858 3.27131 18.6936 2.66282 16.3615 2.66677ZM25.2322 22.8281L26.2535 25.8948L23.1869 24.8734C22.9998 24.8096 22.8008 24.7885 22.6044 24.8116C22.4081 24.8346 22.2194 24.9013 22.0522 25.0068C19.8284 26.4141 17.1637 26.952 14.5681 26.5175C11.9725 26.083 9.62833 24.7066 7.98415 22.6517C6.33996 20.5968 5.51129 18.0077 5.65673 15.38C5.80216 12.7523 6.91148 10.2705 8.77239 8.40961C10.6333 6.5487 13.1151 5.43938 15.7428 5.29395C18.3705 5.14851 20.9595 5.97718 23.0144 7.62136C25.0693 9.26554 26.4458 11.6098 26.8803 14.2054C27.3148 16.801 26.7769 19.4656 25.3695 21.6894C25.2634 21.8571 25.1959 22.0463 25.1722 22.2432C25.1484 22.4402 25.1689 22.64 25.2322 22.8281ZM23.0282 12.6668C23.0282 13.0204 22.8877 13.3595 22.6377 13.6096C22.3876 13.8596 22.0485 14.0001 21.6949 14.0001H11.0282C10.6746 14.0001 10.3355 13.8596 10.0854 13.6096C9.83536 13.3595 9.69488 13.0204 9.69488 12.6668C9.69488 12.3131 9.83536 11.974 10.0854 11.724C10.3355 11.4739 10.6746 11.3334 11.0282 11.3334H21.6949C22.0485 11.3334 22.3876 11.4739 22.6377 11.724C22.8877 11.974 23.0282 12.3131 23.0282 12.6668ZM17.6949 19.3334C17.6949 19.6871 17.5544 20.0262 17.3044 20.2762C17.0543 20.5263 16.7152 20.6668 16.3615 20.6668H11.0282C10.6746 20.6668 10.3355 20.5263 10.0854 20.2762C9.83536 20.0262 9.69488 19.6871 9.69488 19.3334C9.69488 18.9798 9.83536 18.6407 10.0854 18.3906C10.3355 18.1406 10.6746 18.0001 11.0282 18.0001H16.3615C16.7152 18.0001 17.0543 18.1406 17.3044 18.3906C17.5544 18.6407 17.6949 18.9798 17.6949 19.3334Z" fill="#5271FF"/>
</svg>
