<svg width="32" height="32" viewBox="0 0 32 32" fill="none" xmlns="http://www.w3.org/2000/svg">
<path d="M8.00033 14.6666C8.35395 14.6666 8.69309 14.8071 8.94313 15.0571C9.19318 15.3072 9.33366 15.6463 9.33366 15.9999V25.3333C9.33366 25.6869 9.19318 26.026 8.94313 26.2761C8.69309 26.5261 8.35395 26.6666 8.00033 26.6666C7.6467 26.6666 7.30757 26.5261 7.05752 26.2761C6.80747 26.026 6.66699 25.6869 6.66699 25.3333V15.9999C6.66699 15.6463 6.80747 15.3072 7.05752 15.0571C7.30757 14.8071 7.6467 14.6666 8.00033 14.6666ZM14.667 6.66659V25.3333C14.667 25.6869 14.8075 26.026 15.0575 26.2761C15.3076 26.5261 15.6467 26.6666 16.0003 26.6666C16.3539 26.6666 16.6931 26.5261 16.9431 26.2761C17.1932 26.026 17.3337 25.6869 17.3337 25.3333V6.66659C17.3337 6.31296 17.1932 5.97383 16.9431 5.72378C16.6931 5.47373 16.3539 5.33325 16.0003 5.33325C15.6467 5.33325 15.3076 5.47373 15.0575 5.72378C14.8075 5.97383 14.667 6.31296 14.667 6.66659ZM22.667 11.3333V25.3333C22.667 25.6869 22.8075 26.026 23.0575 26.2761C23.3076 26.5261 23.6467 26.6666 24.0003 26.6666C24.3539 26.6666 24.6931 26.5261 24.9431 26.2761C25.1932 26.026 25.3337 25.6869 25.3337 25.3333V11.3333C25.3337 10.9796 25.1932 10.6405 24.9431 10.3904C24.6931 10.1404 24.3539 9.99992 24.0003 9.99992C23.6467 9.99992 23.3076 10.1404 23.0575 10.3904C22.8075 10.6405 22.667 10.9796 22.667 11.3333Z" fill="#FFC90D"/>
</svg>
