<svg width="33" height="32" viewBox="0 0 33 32" fill="none" xmlns="http://www.w3.org/2000/svg">
<path d="M27.8266 6.14535C27.0966 5.26214 26.1799 4.55183 25.1424 4.06558C24.1048 3.57933 22.9724 3.32925 21.8266 3.33335C19.8661 3.27399 17.9574 3.96827 16.4933 5.27335C15.0291 3.96827 13.1204 3.27399 11.1599 3.33335C10.0141 3.32925 8.88167 3.57933 7.84415 4.06558C6.80663 4.55183 5.88987 5.26214 5.15992 6.14535C3.88926 7.68668 2.55992 10.4774 3.44126 15.0254C4.84792 22.288 15.3959 28.248 15.8413 28.492C16.0398 28.6027 16.2633 28.6608 16.4906 28.6608C16.7179 28.6608 16.9414 28.6027 17.1399 28.492C17.5879 28.2427 28.1359 22.2827 29.5399 15.0254C30.4266 10.4774 29.0973 7.68668 27.8266 6.14535ZM26.9279 14.5187C25.9333 19.6534 18.7039 24.4293 16.4933 25.7867C13.3786 23.9067 6.97059 19.1867 6.06525 14.5187C5.38125 10.9907 6.31725 8.94135 7.22392 7.84268C7.7034 7.26416 8.30496 6.79893 8.98546 6.48035C9.66597 6.16176 10.4085 5.99773 11.1599 6.00002C11.9624 5.93983 12.7669 6.08862 13.4948 6.43189C14.2227 6.77516 14.8492 7.30118 15.3133 7.95868C15.4277 8.16926 15.5965 8.3453 15.8021 8.46844C16.0077 8.59158 16.2426 8.65733 16.4823 8.65883C16.7219 8.66033 16.9576 8.59752 17.1647 8.47696C17.3719 8.35639 17.5429 8.18248 17.6599 7.97335C18.1231 7.31073 18.751 6.78025 19.4816 6.43422C20.2123 6.08818 21.0205 5.93853 21.8266 6.00002C22.5795 5.99635 23.3239 6.15972 24.0062 6.47835C24.6884 6.79698 25.2914 7.26295 25.7719 7.84268C26.6759 8.94135 27.6119 10.9907 26.9279 14.5187Z" fill="#5271FF"/>
</svg>
