<svg width="31" height="31" viewBox="0 0 31 31" fill="none" xmlns="http://www.w3.org/2000/svg">
<path d="M3.87467 3.87508H6.45801V21.9584C6.45801 22.301 6.59409 22.6295 6.83633 22.8718C7.07856 23.114 7.4071 23.2501 7.74967 23.2501H23.2497C23.5276 23.2501 23.798 23.1605 24.021 22.9946C24.2439 22.8287 24.4073 22.5953 24.4871 22.3291L28.3621 9.41246C28.4199 9.2196 28.4318 9.0159 28.3968 8.81763C28.3619 8.61935 28.2811 8.43199 28.1609 8.27049C28.0407 8.10899 27.8844 7.97783 27.7045 7.88747C27.5245 7.79712 27.326 7.75007 27.1247 7.75008H9.04134V2.58341C9.04134 2.24084 8.90525 1.9123 8.66302 1.67007C8.42079 1.42783 8.09225 1.29175 7.74967 1.29175H3.87467C3.5321 1.29175 3.20356 1.42783 2.96133 1.67007C2.71909 1.9123 2.58301 2.24084 2.58301 2.58341C2.58301 2.92599 2.71909 3.25453 2.96133 3.49676C3.20356 3.739 3.5321 3.87508 3.87467 3.87508ZM9.04134 10.3334H25.3887L22.2887 20.6667H9.04134V10.3334ZM8.39551 24.5417C8.77871 24.5417 9.1533 24.6554 9.47193 24.8683C9.79055 25.0812 10.0389 25.3838 10.1855 25.7378C10.3322 26.0918 10.3705 26.4814 10.2958 26.8572C10.221 27.2331 10.0365 27.5783 9.76553 27.8493C9.49456 28.1202 9.14933 28.3048 8.7735 28.3795C8.39766 28.4543 8.00809 28.4159 7.65406 28.2693C7.30003 28.1226 6.99743 27.8743 6.78454 27.5557C6.57164 27.237 6.45801 26.8624 6.45801 26.4792C6.45801 25.9654 6.66214 25.4726 7.02549 25.1092C7.38884 24.7459 7.88165 24.5417 8.39551 24.5417ZM21.3122 24.5417C21.6954 24.5417 22.07 24.6554 22.3886 24.8683C22.7072 25.0812 22.9555 25.3838 23.1022 25.7378C23.2488 26.0918 23.2872 26.4814 23.2124 26.8572C23.1377 27.2331 22.9532 27.5783 22.6822 27.8493C22.4112 28.1202 22.066 28.3048 21.6902 28.3795C21.3143 28.4543 20.9248 28.4159 20.5707 28.2693C20.2167 28.1226 19.9141 27.8743 19.7012 27.5557C19.4883 27.237 19.3747 26.8624 19.3747 26.4792C19.3747 25.9654 19.5788 25.4726 19.9422 25.1092C20.3055 24.7459 20.7983 24.5417 21.3122 24.5417Z" fill="#8AC600"/>
</svg>
