<svg width="32" height="32" viewBox="0 0 32 32" fill="none" xmlns="http://www.w3.org/2000/svg">
<path d="M0.0995655 16.3533C2.8371 23.7995 9.08016 28.5994 16 28.5994C22.9198 28.5994 29.1629 23.7995 31.9004 16.3533C32.0332 15.9962 32.0332 15.6032 31.9004 15.2461C29.1629 7.79989 22.9198 3 16 3C9.08016 3 2.8371 7.79989 0.0995655 15.2461C-0.0331885 15.6032 -0.0331885 15.9962 0.0995655 16.3533ZM16 6.19993C21.3967 6.19993 26.3214 9.94864 28.6861 15.7997C26.3214 21.6508 21.3967 25.3995 16 25.3995C10.6033 25.3995 5.67864 21.6508 3.31389 15.7997C5.67864 9.94864 10.6033 6.19993 16 6.19993ZM16 22.1996C17.2658 22.1996 18.5031 21.8242 19.5556 21.121C20.608 20.4178 21.4283 19.4182 21.9127 18.2488C22.3971 17.0794 22.5238 15.7926 22.2769 14.5512C22.0299 13.3097 21.4204 12.1694 20.5254 11.2743C19.6303 10.3793 18.49 9.76976 17.2485 9.52282C16.0071 9.27588 14.7203 9.40262 13.5509 9.88701C12.3815 10.3714 11.3819 11.1917 10.6787 12.2441C9.97549 13.2966 9.60015 14.5339 9.60015 15.7997C9.60015 17.4971 10.2744 19.1249 11.4746 20.3251C12.6748 21.5253 14.3027 22.1996 16 22.1996ZM16 12.5998C16.6329 12.5998 17.2516 12.7875 17.7778 13.1391C18.304 13.4907 18.7142 13.9904 18.9563 14.5751C19.1985 15.1599 19.2619 15.8033 19.1384 16.424C19.015 17.0447 18.7102 17.6149 18.2627 18.0624C17.8152 18.5099 17.245 18.8147 16.6243 18.9381C16.0035 19.0616 15.3602 18.9982 14.7754 18.7561C14.1907 18.5139 13.691 18.1037 13.3394 17.5775C12.9877 17.0513 12.8001 16.4326 12.8001 15.7997C12.8001 14.951 13.1372 14.1371 13.7373 13.537C14.3374 12.9369 15.1513 12.5998 16 12.5998Z" fill="#5271FF"/>
</svg>
