<svg width="30" height="30" viewBox="0 0 30 30" fill="none" xmlns="http://www.w3.org/2000/svg">
<path d="M25 1.25H5C4.66848 1.25 4.35054 1.3817 4.11612 1.61612C3.8817 1.85054 3.75 2.16848 3.75 2.5V27.5C3.75 27.8315 3.8817 28.1495 4.11612 28.3839C4.35054 28.6183 4.66848 28.75 5 28.75H25C25.3315 28.75 25.6495 28.6183 25.8839 28.3839C26.1183 28.1495 26.25 27.8315 26.25 27.5V2.5C26.25 2.16848 26.1183 1.85054 25.8839 1.61612C25.6495 1.3817 25.3315 1.25 25 1.25ZM23.75 26.25H6.25V3.75H23.75V26.25ZM10.66 21.1025C10.8596 21.2093 11.0844 21.2599 11.3105 21.2489C11.5366 21.2379 11.7555 21.1657 11.9438 21.04L19.4438 16.04C19.6149 15.9258 19.7553 15.7712 19.8524 15.5898C19.9495 15.4083 20.0003 15.2058 20.0003 15C20.0003 14.7942 19.9495 14.5917 19.8524 14.4102C19.7553 14.2288 19.6149 14.0742 19.4438 13.96L11.9438 8.96C11.7555 8.8344 11.5367 8.76226 11.3106 8.75129C11.0846 8.74031 10.8598 8.7909 10.6603 8.89766C10.4608 9.00442 10.2939 9.16335 10.1777 9.35749C10.0614 9.55163 9.99997 9.7737 10 10V20C9.99991 20.2263 10.0613 20.4484 10.1775 20.6425C10.2937 20.8367 10.4605 20.9957 10.66 21.1025ZM12.5 12.335L16.5 15L12.5 17.665V12.335Z" fill="#5271FF"/>
</svg>
