<svg width="30" height="35" viewBox="0 0 30 35" fill="none" xmlns="http://www.w3.org/2000/svg">
<path d="M22.3594 15.7578C24.1031 15.4743 25.4456 13.7448 25.4494 11.6494C25.4494 9.58443 24.1481 7.87226 22.4419 7.54834" stroke="#FF44EC" stroke-width="1.35571" stroke-linecap="round" stroke-linejoin="round"/>
<path d="M24.6611 20.6074C26.3499 20.8995 27.5286 21.5835 27.5286 22.9935C27.5286 23.9638 26.9736 24.5943 26.0761 24.9905" stroke="#FF44EC" stroke-width="1.35571" stroke-linecap="round" stroke-linejoin="round"/>
<path fill-rule="evenodd" clip-rule="evenodd" d="M14.8589 21.2051C10.8414 21.2051 7.41016 21.9093 7.41016 24.722C7.41016 27.5332 10.8202 28.2576 14.8589 28.2576C18.8764 28.2576 22.3064 27.5606 22.3064 24.7465C22.3064 21.9325 18.8976 21.2051 14.8589 21.2051Z" stroke="#FF44EC" stroke-width="1.35571" stroke-linecap="round" stroke-linejoin="round"/>
<path fill-rule="evenodd" clip-rule="evenodd" d="M14.8587 17.1912C17.495 17.1912 19.6325 14.7198 19.6325 11.6686C19.6325 8.6188 17.495 6.146 14.8587 6.146C12.2225 6.146 10.085 8.6188 10.085 11.6686C10.075 14.7083 12.1962 17.1811 14.8237 17.1912H14.8587Z" stroke="#FF44EC" stroke-width="1.35571" stroke-linecap="round" stroke-linejoin="round"/>
<path d="M7.35562 15.7578C5.61062 15.4743 4.26937 13.7448 4.26562 11.6494C4.26562 9.58443 5.56687 7.87226 7.27312 7.54834" stroke="#FF44EC" stroke-width="1.35571" stroke-linecap="round" stroke-linejoin="round"/>
<path d="M5.055 20.6074C3.36625 20.8995 2.1875 21.5835 2.1875 22.9935C2.1875 23.9638 2.7425 24.5943 3.64 24.9905" stroke="#FF44EC" stroke-width="1.35571" stroke-linecap="round" stroke-linejoin="round"/>
</svg>
