<svg width="23" height="23" viewBox="0 0 23 23" fill="none" xmlns="http://www.w3.org/2000/svg">
<path d="M1.10575 8.33384C2.43475 13.6138 9.69175 20.8758 14.9708 22.1988C15.6834 22.3795 16.4156 22.4715 17.1508 22.4728C18.5478 22.4722 19.9233 22.1288 21.1568 21.4728C21.5889 21.2471 21.962 20.9229 22.2458 20.5265C22.5296 20.13 22.7162 19.6724 22.7905 19.1905C22.8649 18.7086 22.8249 18.216 22.6738 17.7525C22.5227 17.2889 22.2648 16.8673 21.9208 16.5218L19.8348 14.4358C19.3926 13.9938 18.8275 13.6953 18.2132 13.5792C17.5988 13.463 16.9638 13.5347 16.3908 13.7848C15.8441 14.0209 15.3455 14.3555 14.9198 14.7718C14.7418 14.9488 14.4138 14.9768 13.9428 14.8488C12.708 14.347 11.5862 13.603 10.6436 12.6606C9.70107 11.7182 8.9568 10.5965 8.45475 9.36184C8.32875 8.89084 8.35475 8.56184 8.53275 8.38484C8.94958 7.95854 9.28448 7.45924 9.52075 6.91184C9.77029 6.33906 9.84165 5.70443 9.72555 5.09054C9.60944 4.47665 9.31124 3.91192 8.86975 3.46984L6.78375 1.38484C6.4422 1.03909 6.02332 0.77953 5.56168 0.627565C5.10005 0.475599 4.6089 0.43559 4.12875 0.510838C3.64317 0.582149 3.18145 0.767735 2.78159 1.05233C2.38174 1.33692 2.05517 1.71239 1.82875 2.14784C0.821453 4.0465 0.56344 6.25407 1.10575 8.33384ZM3.60175 3.07584C3.68338 2.91958 3.80089 2.78491 3.94465 2.68287C4.08841 2.58083 4.25432 2.51434 4.42875 2.48884C4.48398 2.48004 4.53983 2.47569 4.59575 2.47584C4.73972 2.47579 4.88226 2.50432 5.01513 2.55976C5.14799 2.61521 5.26853 2.69647 5.36975 2.79884L7.45475 4.88384C7.61155 5.0388 7.71817 5.23729 7.76079 5.45358C7.8034 5.66988 7.78005 5.89398 7.69375 6.09684C7.55719 6.4224 7.36232 6.72028 7.11875 6.97584C6.76107 7.35691 6.51645 7.82997 6.41226 8.34212C6.30806 8.85427 6.3484 9.3853 6.52875 9.87584C7.25075 12.5758 10.7338 16.0548 13.4288 16.7758C13.9212 16.9559 14.4541 16.9951 14.9675 16.8891C15.481 16.7831 15.9548 16.5361 16.3358 16.1758C16.5898 15.9325 16.886 15.7374 17.2098 15.5998C17.4127 15.5133 17.637 15.4898 17.8535 15.5325C18.07 15.5751 18.2687 15.6818 18.4238 15.8388L20.5088 17.9238C20.6313 18.0451 20.7233 18.1937 20.7772 18.3575C20.8311 18.5213 20.8453 18.6955 20.8188 18.8658C20.7928 19.0405 20.7256 19.2065 20.6229 19.3501C20.5201 19.4937 20.3847 19.6109 20.2278 19.6918C18.7676 20.4766 17.0633 20.6754 15.4618 20.2478C10.9178 19.1168 4.18875 12.3878 3.04475 7.84584C2.61778 6.24281 2.81693 4.53736 3.60175 3.07584Z" fill="#5271FF"/>
</svg>
