<svg width="30" height="36" viewBox="0 0 30 36" fill="none" xmlns="http://www.w3.org/2000/svg">
<path d="M27.6208 14.9259C28.6895 15.6122 29.3397 16.821 29.3397 18.1234C29.3397 19.4258 28.6895 20.6346 27.6208 21.2507L6.09869 34.9763C4.99108 35.7484 3.60471 35.7796 2.47318 35.1167C1.91705 34.791 1.45412 34.3167 1.13203 33.7423C0.809938 33.168 0.640318 32.5145 0.640625 31.8491V4.39772C0.640716 3.73268 0.810525 3.07966 1.1326 2.50578C1.45467 1.93191 1.91738 1.45788 2.47318 1.13242C3.02911 0.807284 3.65798 0.642483 4.29516 0.654956C4.93234 0.667428 5.55484 0.856724 6.09869 1.20339L27.6208 14.9259Z" fill="white"/>
</svg>
