<svg width="16" height="20" viewBox="0 0 16 20" fill="none" xmlns="http://www.w3.org/2000/svg">
<path d="M4 4C4 3.20888 4.2346 2.43552 4.67412 1.77772C5.11365 1.11992 5.73836 0.607234 6.46927 0.304484C7.20017 0.00173312 8.00444 -0.0774802 8.78036 0.0768607C9.55628 0.231202 10.269 0.612165 10.8284 1.17157C11.3878 1.73098 11.7688 2.44372 11.9231 3.21964C12.0775 3.99556 11.9983 4.79983 11.6955 5.53074C11.3928 6.26164 10.8801 6.88635 10.2223 7.32588C9.56448 7.76541 8.79113 8 8 8C6.93913 8 5.92172 7.57857 5.17157 6.82843C4.42143 6.07828 4 5.06087 4 4ZM8 12C5.87827 12 3.84344 12.8429 2.34315 14.3431C0.842855 15.8434 0 17.8783 0 20H16C16 17.8783 15.1571 15.8434 13.6569 14.3431C12.1566 12.8429 10.1217 12 8 12Z" fill="#A3AED0"/>
</svg>
