<svg width="32" height="32" viewBox="0 0 32 32" fill="none" xmlns="http://www.w3.org/2000/svg">
<path d="M8.0013 14.6663C8.35492 14.6663 8.69406 14.8068 8.94411 15.0569C9.19416 15.3069 9.33464 15.6461 9.33464 15.9997V25.333C9.33464 25.6866 9.19416 26.0258 8.94411 26.2758C8.69406 26.5259 8.35492 26.6663 8.0013 26.6663C7.64768 26.6663 7.30854 26.5259 7.05849 26.2758C6.80844 26.0258 6.66797 25.6866 6.66797 25.333V15.9997C6.66797 15.6461 6.80844 15.3069 7.05849 15.0569C7.30854 14.8068 7.64768 14.6663 8.0013 14.6663ZM14.668 6.66634V25.333C14.668 25.6866 14.8084 26.0258 15.0585 26.2758C15.3085 26.5259 15.6477 26.6663 16.0013 26.6663C16.3549 26.6663 16.6941 26.5259 16.9441 26.2758C17.1942 26.0258 17.3346 25.6866 17.3346 25.333V6.66634C17.3346 6.31272 17.1942 5.97358 16.9441 5.72353C16.6941 5.47348 16.3549 5.33301 16.0013 5.33301C15.6477 5.33301 15.3085 5.47348 15.0585 5.72353C14.8084 5.97358 14.668 6.31272 14.668 6.66634ZM22.668 11.333V25.333C22.668 25.6866 22.8084 26.0258 23.0585 26.2758C23.3085 26.5259 23.6477 26.6663 24.0013 26.6663C24.3549 26.6663 24.6941 26.5259 24.9441 26.2758C25.1942 26.0258 25.3346 25.6866 25.3346 25.333V11.333C25.3346 10.9794 25.1942 10.6402 24.9441 10.3902C24.6941 10.1402 24.3549 9.99967 24.0013 9.99967C23.6477 9.99967 23.3085 10.1402 23.0585 10.3902C22.8084 10.6402 22.668 10.9794 22.668 11.333Z" fill="#1A8B98"/>
</svg>
