<svg width="32" height="32" viewBox="0 0 32 32" fill="none" xmlns="http://www.w3.org/2000/svg">
<path d="M15.9983 2.66677C13.9572 2.66544 11.9431 3.1327 10.1112 4.03255C8.27923 4.9324 6.67831 6.24081 5.43178 7.85697C4.18525 9.47313 3.3264 11.3539 2.92139 13.3543C2.51638 15.3548 2.57604 17.4215 3.09576 19.3952C3.61548 21.369 4.58139 23.1971 5.91906 24.7387C7.25673 26.2802 8.93046 27.4941 10.8113 28.2868C12.6921 29.0795 14.7298 29.4298 16.7673 29.3107C18.8049 29.1917 20.7879 28.6064 22.5636 27.6001L27.5769 29.2708C27.7132 29.3138 27.8554 29.3349 27.9983 29.3334C28.2094 29.3333 28.4175 29.283 28.6054 29.1867C28.7933 29.0903 28.9557 28.9508 29.0791 28.7794C29.2025 28.6081 29.2835 28.4099 29.3153 28.2012C29.3472 27.9924 29.329 27.7791 29.2623 27.5788L27.5983 22.5654C28.7507 20.5381 29.3507 18.2436 29.338 15.9116C29.3253 13.5796 28.7004 11.2918 27.526 9.27712C26.3515 7.26242 24.6685 5.59146 22.6455 4.43139C20.6225 3.27131 18.3303 2.66282 15.9983 2.66677ZM24.8689 22.8281L25.8903 25.8948L22.8236 24.8734C22.6365 24.8096 22.4375 24.7885 22.2412 24.8116C22.0448 24.8346 21.8561 24.9013 21.6889 25.0068C19.4651 26.4141 16.8005 26.952 14.2049 26.5175C11.6093 26.083 9.26505 24.7066 7.62086 22.6517C5.97668 20.5968 5.14801 18.0077 5.29345 15.38C5.43888 12.7523 6.5482 10.2705 8.40911 8.40961C10.27 6.5487 12.7518 5.43938 15.3795 5.29395C18.0072 5.14851 20.5963 5.97718 22.6512 7.62136C24.7061 9.26554 26.0825 11.6098 26.517 14.2054C26.9515 16.801 26.4136 19.4656 25.0063 21.6894C24.9001 21.8571 24.8327 22.0463 24.8089 22.2432C24.7852 22.4402 24.8057 22.64 24.8689 22.8281ZM22.6649 12.6668C22.6649 13.0204 22.5245 13.3595 22.2744 13.6096C22.0244 13.8596 21.6852 14.0001 21.3316 14.0001H10.6649C10.3113 14.0001 9.97217 13.8596 9.72213 13.6096C9.47208 13.3595 9.3316 13.0204 9.3316 12.6668C9.3316 12.3131 9.47208 11.974 9.72213 11.724C9.97217 11.4739 10.3113 11.3334 10.6649 11.3334H21.3316C21.6852 11.3334 22.0244 11.4739 22.2744 11.724C22.5245 11.974 22.6649 12.3131 22.6649 12.6668ZM17.3316 19.3334C17.3316 19.6871 17.1911 20.0262 16.9411 20.2762C16.691 20.5263 16.3519 20.6668 15.9983 20.6668H10.6649C10.3113 20.6668 9.97217 20.5263 9.72213 20.2762C9.47208 20.0262 9.3316 19.6871 9.3316 19.3334C9.3316 18.9798 9.47208 18.6407 9.72213 18.3906C9.97217 18.1406 10.3113 18.0001 10.6649 18.0001H15.9983C16.3519 18.0001 16.691 18.1406 16.9411 18.3906C17.1911 18.6407 17.3316 18.9798 17.3316 19.3334Z" fill="#1A8B98"/>
</svg>
