<svg width="32" height="32" viewBox="0 0 32 32" fill="none" xmlns="http://www.w3.org/2000/svg">
<path d="M27.3344 6.14535C26.6045 5.26214 25.6877 4.55183 24.6502 4.06558C23.6127 3.57933 22.4802 3.32925 21.3344 3.33335C19.3739 3.27399 17.4652 3.96827 16.0011 5.27335C14.5369 3.96827 12.6282 3.27399 10.6677 3.33335C9.52193 3.32925 8.38948 3.57933 7.35196 4.06558C6.31444 4.55183 5.39769 5.26214 4.66773 6.14535C3.39707 7.68668 2.06773 10.4774 2.94907 15.0254C4.35573 22.288 14.9037 28.248 15.3491 28.492C15.5476 28.6027 15.7711 28.6608 15.9984 28.6608C16.2257 28.6608 16.4492 28.6027 16.6477 28.492C17.0957 28.2427 27.6437 22.2827 29.0477 15.0254C29.9344 10.4774 28.6051 7.68668 27.3344 6.14535ZM26.4357 14.5187C25.4411 19.6534 18.2117 24.4293 16.0011 25.7867C12.8864 23.9067 6.4784 19.1867 5.57307 14.5187C4.88907 10.9907 5.82507 8.94135 6.73173 7.84268C7.21121 7.26416 7.81277 6.79893 8.49328 6.48035C9.17378 6.16176 9.91635 5.99773 10.6677 6.00002C11.4703 5.93983 12.2747 6.08862 13.0026 6.43189C13.7305 6.77516 14.357 7.30118 14.8211 7.95868C14.9355 8.16926 15.1043 8.3453 15.3099 8.46844C15.5155 8.59158 15.7504 8.65733 15.9901 8.65883C16.2297 8.66033 16.4654 8.59752 16.6725 8.47696C16.8797 8.35639 17.0507 8.18248 17.1677 7.97335C17.6309 7.31073 18.2588 6.78025 18.9894 6.43422C19.7201 6.08818 20.5283 5.93853 21.3344 6.00002C22.0874 5.99635 22.8318 6.15972 23.514 6.47835C24.1962 6.79698 24.7993 7.26295 25.2797 7.84268C26.1837 8.94135 27.1197 10.9907 26.4357 14.5187Z" fill="#1A8B98"/>
</svg>
