<svg width="76" height="76" viewBox="0 0 76 76" fill="none" xmlns="http://www.w3.org/2000/svg">
<rect opacity="0.2" width="75.7306" height="75.7306" rx="23.6658" fill="#5271FF"/>
<path d="M30 36.6666C30.3536 36.6666 30.6927 36.8071 30.9428 37.0571C31.1928 37.3072 31.3333 37.6463 31.3333 37.9999V47.3333C31.3333 47.6869 31.1928 48.026 30.9428 48.2761C30.6927 48.5261 30.3536 48.6666 30 48.6666C29.6463 48.6666 29.3072 48.5261 29.0572 48.2761C28.8071 48.026 28.6666 47.6869 28.6666 47.3333V37.9999C28.6666 37.6463 28.8071 37.3072 29.0572 37.0571C29.3072 36.8071 29.6463 36.6666 30 36.6666ZM36.6666 28.6666V47.3333C36.6666 47.6869 36.8071 48.026 37.0571 48.2761C37.3072 48.5261 37.6463 48.6666 38 48.6666C38.3536 48.6666 38.6927 48.5261 38.9428 48.2761C39.1928 48.026 39.3333 47.6869 39.3333 47.3333V28.6666C39.3333 28.313 39.1928 27.9738 38.9428 27.7238C38.6927 27.4737 38.3536 27.3333 38 27.3333C37.6463 27.3333 37.3072 27.4737 37.0571 27.7238C36.8071 27.9738 36.6666 28.313 36.6666 28.6666ZM44.6666 33.3333V47.3333C44.6666 47.6869 44.8071 48.026 45.0571 48.2761C45.3072 48.5261 45.6463 48.6666 46 48.6666C46.3536 48.6666 46.6927 48.5261 46.9428 48.2761C47.1928 48.026 47.3333 47.6869 47.3333 47.3333V33.3333C47.3333 32.9796 47.1928 32.6405 46.9428 32.3904C46.6927 32.1404 46.3536 31.9999 46 31.9999C45.6463 31.9999 45.3072 32.1404 45.0571 32.3904C44.8071 32.6405 44.6666 32.9796 44.6666 33.3333Z" fill="#5271FF"/>
</svg>
