<svg width="46" height="46" viewBox="0 0 46 46" fill="none" xmlns="http://www.w3.org/2000/svg">
<g clip-path="url(#clip0_9_98)">
<g opacity="0.2" filter="url(#filter0_d_9_98)">
<path d="M37.3785 0H8.97436C4.01796 0 0 4.01796 0 8.97436V37.3785C0 42.3349 4.01796 46.3529 8.97436 46.3529H37.3785C42.3349 46.3529 46.3529 42.3349 46.3529 37.3785V8.97436C46.3529 4.01796 42.3349 0 37.3785 0Z" fill="#5271FF"/>
</g>
<path d="M22.8075 18.7034C21.8765 18.7034 20.9665 18.9795 20.1924 19.4967C19.4183 20.0139 18.815 20.7491 18.4587 21.6092C18.1025 22.4693 18.0093 23.4157 18.1909 24.3288C18.3725 25.2419 18.8208 26.0806 19.4791 26.7389C20.1374 27.3972 20.9761 27.8455 21.8892 28.0272C22.8023 28.2088 23.7487 28.1156 24.6088 27.7593C25.4689 27.403 26.2041 26.7997 26.7213 26.0256C27.2385 25.2516 27.5146 24.3415 27.5146 23.4105C27.5146 22.1621 27.0187 20.9649 26.1359 20.0821C25.2532 19.1994 24.0559 18.7034 22.8075 18.7034ZM22.8075 26.4667C22.2031 26.4667 21.6122 26.2874 21.1096 25.9516C20.607 25.6158 20.2153 25.1385 19.984 24.5801C19.7527 24.0216 19.6922 23.4071 19.8101 22.8143C19.928 22.2215 20.2191 21.6769 20.6465 21.2495C21.0739 20.8221 21.6185 20.531 22.2113 20.4131C22.8041 20.2952 23.4186 20.3557 23.9771 20.587C24.5355 20.8183 25.0128 21.21 25.3486 21.7126C25.6844 22.2152 25.8637 22.8061 25.8637 23.4105C25.8637 24.2211 25.5417 24.9984 24.9686 25.5716C24.3954 26.1447 23.6181 26.4667 22.8075 26.4667ZM28.8016 18.5174C28.8016 18.7349 28.7371 18.9476 28.6162 19.1285C28.4953 19.3094 28.3236 19.4504 28.1226 19.5336C27.9216 19.6169 27.7004 19.6387 27.487 19.5962C27.2736 19.5538 27.0776 19.449 26.9238 19.2952C26.7699 19.1413 26.6652 18.9453 26.6227 18.732C26.5803 18.5186 26.6021 18.2974 26.6853 18.0964C26.7686 17.8954 26.9096 17.7236 27.0905 17.6027C27.2714 17.4819 27.484 17.4174 27.7016 17.4174C27.8461 17.4174 27.9891 17.4458 28.1226 17.5011C28.256 17.5564 28.3773 17.6374 28.4794 17.7395C28.5816 17.8417 28.6626 17.9629 28.7179 18.0964C28.7731 18.2299 28.8016 18.3729 28.8016 18.5174ZM31.4939 17.4064C31.2632 16.7946 30.9023 16.2403 30.436 15.782C29.9786 15.3158 29.4248 14.9551 28.8135 14.7251C28.1011 14.4581 27.3485 14.3143 26.5879 14.2998C25.6107 14.2549 25.2981 14.2439 22.8075 14.2439C20.3169 14.2439 20.0053 14.2539 19.0272 14.2998C18.2669 14.3146 17.5146 14.4584 16.8024 14.7251C16.1912 14.9553 15.6375 15.3159 15.1799 15.782C14.7129 16.2397 14.3518 16.7941 14.1221 17.4064C13.8555 18.1185 13.7117 18.8708 13.6968 19.6311C13.6509 20.6083 13.6409 20.9209 13.6409 23.4105C13.6409 25.9002 13.6509 26.2128 13.6968 27.1899C13.7117 27.9502 13.8555 28.7025 14.1221 29.4147C14.3518 30.0269 14.7129 30.5814 15.1799 31.039C15.638 31.5049 16.192 31.8655 16.8034 32.0959C17.5156 32.3625 18.2678 32.5063 19.0281 32.5213C20.0062 32.5662 20.3188 32.5772 22.8075 32.5772C25.2963 32.5772 25.6098 32.5671 26.5869 32.5213C27.3475 32.5065 28.1001 32.3626 28.8126 32.0959C29.4216 31.8604 29.9748 31.5003 30.4365 31.0386C30.8982 30.5768 31.2584 30.0237 31.4939 29.4147C31.7609 28.7026 31.9048 27.9503 31.9192 27.1899C31.9641 26.2119 31.9742 25.9002 31.9742 23.4105C31.9742 20.9209 31.9641 20.6083 31.9192 19.6311C31.9044 18.8708 31.7606 18.1185 31.4939 17.4064ZM30.2701 27.1148C30.2647 27.6965 30.1589 28.273 29.9575 28.8189C29.8051 29.2148 29.5714 29.5744 29.2714 29.8744C28.9714 30.1744 28.6118 30.4081 28.2159 30.5605C27.6706 30.7622 27.0949 30.8688 26.5136 30.8759C25.5474 30.9199 25.2569 30.929 22.8084 30.929C20.36 30.929 20.0713 30.9199 19.1051 30.8759C18.5226 30.8693 17.9456 30.7626 17.3992 30.5605C17.001 30.4136 16.6408 30.1793 16.345 29.8749C16.0404 29.5792 15.8061 29.219 15.6594 28.8207C15.4568 28.2757 15.3501 27.6998 15.344 27.1184C15.3019 26.1486 15.2909 25.8589 15.2909 23.4105C15.2909 20.9621 15.3 20.6734 15.344 19.7063C15.3518 19.1242 15.4594 18.5478 15.6621 18.0022C15.8091 17.604 16.0434 17.2438 16.3478 16.948C16.642 16.6426 17.0014 16.4076 17.3992 16.2605C17.9452 16.0589 18.5221 15.9534 19.1042 15.9489C20.0704 15.9039 20.3609 15.8939 22.8075 15.8939C25.2541 15.8939 25.5456 15.9039 26.5127 15.9479C27.0941 15.9541 27.6702 16.0598 28.2159 16.2605C28.6118 16.4129 28.9714 16.6467 29.2714 16.9467C29.5714 17.2467 29.8051 17.6062 29.9575 18.0022C30.1601 18.5471 30.2668 19.1231 30.2729 19.7044C30.315 20.6734 30.3242 20.963 30.3242 23.4105C30.3242 25.858 30.315 26.1477 30.2701 27.1148Z" fill="#5271FF"/>
</g>
<defs>
<filter id="filter0_d_9_98" x="-12.3125" y="-10.1397" width="81.1176" height="81.1175" filterUnits="userSpaceOnUse" color-interpolation-filters="sRGB">
<feFlood flood-opacity="0" result="BackgroundImageFix"/>
<feColorMatrix in="SourceAlpha" type="matrix" values="0 0 0 0 0 0 0 0 0 0 0 0 0 0 0 0 0 0 127 0" result="hardAlpha"/>
<feOffset dx="5.06985" dy="7.24264"/>
<feGaussianBlur stdDeviation="8.69117"/>
<feComposite in2="hardAlpha" operator="out"/>
<feColorMatrix type="matrix" values="0 0 0 0 0.0978704 0 0 0 0 0.0602778 0 0 0 0 0.173056 0 0 0 0.02 0"/>
<feBlend mode="normal" in2="BackgroundImageFix" result="effect1_dropShadow_9_98"/>
<feBlend mode="normal" in="SourceGraphic" in2="effect1_dropShadow_9_98" result="shape"/>
</filter>
<clipPath id="clip0_9_98">
<rect width="46" height="46" fill="white"/>
</clipPath>
</defs>
</svg>
