<svg width="76" height="76" viewBox="0 0 76 76" fill="none" xmlns="http://www.w3.org/2000/svg">
<rect opacity="0.2" width="75.7306" height="75.7306" rx="23.6658" fill="#6DEDC3"/>
<path d="M38.3614 24.6668C36.3204 24.6654 34.3063 25.1327 32.4743 26.0325C30.6424 26.9324 29.0415 28.2408 27.7949 29.857C26.5484 31.4731 25.6896 33.3539 25.2845 35.3543C24.8795 37.3548 24.9392 39.4215 25.4589 41.3952C25.9786 43.369 26.9445 45.1971 28.2822 46.7387C29.6199 48.2802 31.2936 49.4941 33.1744 50.2868C35.0552 51.0795 37.0929 51.4298 39.1305 51.3107C41.168 51.1917 43.1511 50.6064 44.9268 49.6001L49.9401 51.2708C50.0763 51.3138 50.2186 51.3349 50.3614 51.3334C50.5726 51.3333 50.7807 51.283 50.9686 51.1867C51.1565 51.0903 51.3189 50.9508 51.4423 50.7794C51.5657 50.6081 51.6467 50.4099 51.6785 50.2012C51.7103 49.9924 51.6922 49.7791 51.6254 49.5788L49.9614 44.5654C51.1139 42.5381 51.7138 40.2436 51.7011 37.9116C51.6884 35.5796 51.0636 33.2918 49.8891 31.2771C48.7146 29.2624 47.0317 27.5915 45.0087 26.4314C42.9857 25.2713 40.6935 24.6628 38.3614 24.6668ZM47.2321 44.8281L48.2534 47.8948L45.1868 46.8734C44.9997 46.8096 44.8007 46.7885 44.6043 46.8116C44.408 46.8346 44.2193 46.9013 44.0521 47.0068C41.8283 48.4141 39.1636 48.952 36.568 48.5175C33.9724 48.083 31.6282 46.7066 29.984 44.6517C28.3398 42.5968 27.5112 40.0077 27.6566 37.38C27.802 34.7523 28.9114 32.2705 30.7723 30.4096C32.6332 28.5487 35.115 27.4394 37.7427 27.2939C40.3704 27.1485 42.9594 27.9772 45.0143 29.6214C47.0692 31.2655 48.4456 33.6098 48.8802 36.2054C49.3147 38.801 48.7768 41.4656 47.3694 43.6894C47.2633 43.8571 47.1958 44.0463 47.1721 44.2432C47.1483 44.4402 47.1688 44.64 47.2321 44.8281ZM45.0281 34.6668C45.0281 35.0204 44.8876 35.3595 44.6376 35.6096C44.3875 35.8596 44.0484 36.0001 43.6948 36.0001H33.0281C32.6745 36.0001 32.3353 35.8596 32.0853 35.6096C31.8352 35.3595 31.6948 35.0204 31.6948 34.6668C31.6948 34.3131 31.8352 33.974 32.0853 33.724C32.3353 33.4739 32.6745 33.3334 33.0281 33.3334H43.6948C44.0484 33.3334 44.3875 33.4739 44.6376 33.724C44.8876 33.974 45.0281 34.3131 45.0281 34.6668ZM39.6948 41.3334C39.6948 41.6871 39.5543 42.0262 39.3042 42.2762C39.0542 42.5263 38.715 42.6668 38.3614 42.6668H33.0281C32.6745 42.6668 32.3353 42.5263 32.0853 42.2762C31.8352 42.0262 31.6948 41.6871 31.6948 41.3334C31.6948 40.9798 31.8352 40.6407 32.0853 40.3906C32.3353 40.1406 32.6745 40.0001 33.0281 40.0001H38.3614C38.715 40.0001 39.0542 40.1406 39.3042 40.3906C39.5543 40.6407 39.6948 40.9798 39.6948 41.3334Z" fill="#A5EC00"/>
</svg>
