<svg width="76" height="76" viewBox="0 0 76 76" fill="none" xmlns="http://www.w3.org/2000/svg">
<rect opacity="0.2" width="75.7306" height="75.7306" rx="23.6658" fill="#FF44EC"/>
<path d="M45.375 35.125C46.2651 35.125 47.1351 34.8611 47.8751 34.3666C48.6151 33.8721 49.1919 33.1693 49.5325 32.3471C49.8731 31.5248 49.9622 30.62 49.7886 29.7471C49.6149 28.8742 49.1864 28.0724 48.557 27.443C47.9277 26.8137 47.1259 26.3851 46.253 26.2115C45.38 26.0378 44.4752 26.1269 43.653 26.4675C42.8307 26.8081 42.1279 27.3849 41.6334 28.1249C41.139 28.865 40.875 29.735 40.875 30.625C40.881 31.0494 40.9481 31.4707 41.0742 31.876L33.0687 35.638C32.4792 34.9227 31.6832 34.407 30.7895 34.1611C29.8958 33.9153 28.948 33.9515 28.0757 34.2646C27.2033 34.5778 26.4489 35.1527 25.9156 35.9108C25.3823 36.6689 25.0961 37.5731 25.0961 38.5C25.0961 39.4269 25.3823 40.3311 25.9156 41.0892C26.4489 41.8473 27.2033 42.4222 28.0757 42.7354C28.948 43.0485 29.8958 43.0847 30.7895 42.8389C31.6832 42.593 32.4792 42.0773 33.0687 41.362L41.0742 45.124C40.9481 45.5293 40.881 45.9506 40.875 46.375C40.8725 47.4179 41.2313 48.4294 41.8904 49.2375C42.5496 50.0456 43.4683 50.6004 44.4904 50.8075C45.5125 51.0146 46.5748 50.8612 47.4965 50.3734C48.4182 49.8856 49.1425 49.0935 49.546 48.1319C49.9496 47.1703 50.0076 46.0986 49.71 45.0991C49.4125 44.0996 48.7779 43.234 47.9142 42.6496C47.0504 42.0653 46.0109 41.7982 44.9724 41.8939C43.934 41.9896 42.9607 42.442 42.2183 43.1744L34.0407 39.3325C34.1532 38.7836 34.1532 38.2175 34.0407 37.6686L42.2183 33.8256C43.0583 34.6577 44.1927 35.1246 45.375 35.125ZM45.375 28.375C45.8201 28.375 46.2551 28.507 46.6251 28.7542C46.9951 29.0014 47.2835 29.3528 47.4538 29.764C47.6241 30.1751 47.6686 30.6275 47.5818 31.064C47.495 31.5004 47.2807 31.9013 46.966 32.216C46.6514 32.5307 46.2505 32.745 45.814 32.8318C45.3775 32.9186 44.9251 32.874 44.514 32.7037C44.1029 32.5334 43.7515 32.245 43.5042 31.875C43.257 31.505 43.125 31.07 43.125 30.625C43.125 30.0283 43.3621 29.456 43.7841 29.034C44.206 28.6121 44.7783 28.375 45.375 28.375ZM29.625 40.75C29.18 40.75 28.745 40.618 28.375 40.3708C28.005 40.1236 27.7166 39.7722 27.5463 39.361C27.376 38.9499 27.3315 38.4975 27.4183 38.061C27.5051 37.6246 27.7194 37.2237 28.0341 36.909C28.3487 36.5943 28.7496 36.3801 29.1861 36.2932C29.6225 36.2064 30.0749 36.251 30.4861 36.4213C30.8972 36.5916 31.2486 36.88 31.4959 37.25C31.7431 37.62 31.875 38.055 31.875 38.5C31.875 39.0967 31.638 39.669 31.216 40.091C30.7941 40.5129 30.2218 40.75 29.625 40.75ZM45.375 44.125C45.8201 44.125 46.2551 44.257 46.6251 44.5042C46.9951 44.7514 47.2835 45.1028 47.4538 45.514C47.6241 45.9251 47.6686 46.3775 47.5818 46.814C47.495 47.2504 47.2807 47.6513 46.966 47.966C46.6514 48.2807 46.2505 48.495 45.814 48.5818C45.3775 48.6686 44.9251 48.624 44.514 48.4537C44.1029 48.2834 43.7515 47.995 43.5042 47.625C43.257 47.255 43.125 46.82 43.125 46.375C43.125 45.7783 43.3621 45.206 43.7841 44.784C44.206 44.3621 44.7783 44.125 45.375 44.125Z" fill="#FF44EC"/>
</svg>
