<svg width="46" height="46" viewBox="0 0 46 46" fill="none" xmlns="http://www.w3.org/2000/svg">
<g clip-path="url(#clip0_9_77)">
<g opacity="0.2" filter="url(#filter0_d_9_77)">
<path d="M37.3785 0H8.97436C4.01796 0 0 4.01796 0 8.97436V37.3785C0 42.3349 4.01796 46.3529 8.97436 46.3529H37.3785C42.3349 46.3529 46.3529 42.3349 46.3529 37.3785V8.97436C46.3529 4.01796 42.3349 0 37.3785 0Z" fill="#5271FF"/>
</g>
<path d="M29.4743 13.8337H16.1409C15.9199 13.8337 15.708 13.9214 15.5517 14.0777C15.3954 14.234 15.3076 14.446 15.3076 14.667V31.3337C15.3076 31.5547 15.3954 31.7666 15.5517 31.9229C15.708 32.0792 15.9199 32.167 16.1409 32.167H29.4743C29.6953 32.167 29.9072 32.0792 30.0635 31.9229C30.2198 31.7666 30.3076 31.5547 30.3076 31.3337V14.667C30.3076 14.446 30.2198 14.234 30.0635 14.0777C29.9072 13.9214 29.6953 13.8337 29.4743 13.8337ZM28.6409 30.5003H16.9743V15.5003H28.6409V30.5003ZM19.9143 27.0687C20.0473 27.1399 20.1972 27.1736 20.3479 27.1662C20.4987 27.1589 20.6446 27.1108 20.7701 27.027L25.7701 23.6937C25.8842 23.6175 25.9778 23.5144 26.0425 23.3935C26.1073 23.2726 26.1411 23.1375 26.1411 23.0003C26.1411 22.8631 26.1073 22.7281 26.0425 22.6071C25.9778 22.4862 25.8842 22.3831 25.7701 22.307L20.7701 18.9737C20.6446 18.8899 20.4987 18.8418 20.348 18.8345C20.1973 18.8272 20.0475 18.8609 19.9145 18.9321C19.7814 19.0033 19.6702 19.1092 19.5927 19.2386C19.5152 19.3681 19.4742 19.5161 19.4743 19.667V26.3337C19.4742 26.4845 19.5151 26.6326 19.5926 26.762C19.6701 26.8915 19.7813 26.9974 19.9143 27.0687ZM21.1409 21.2237L23.8076 23.0003L21.1409 24.777V21.2237Z" fill="#5271FF"/>
</g>
<defs>
<filter id="filter0_d_9_77" x="-12.3125" y="-10.1397" width="81.1176" height="81.1175" filterUnits="userSpaceOnUse" color-interpolation-filters="sRGB">
<feFlood flood-opacity="0" result="BackgroundImageFix"/>
<feColorMatrix in="SourceAlpha" type="matrix" values="0 0 0 0 0 0 0 0 0 0 0 0 0 0 0 0 0 0 127 0" result="hardAlpha"/>
<feOffset dx="5.06985" dy="7.24264"/>
<feGaussianBlur stdDeviation="8.69117"/>
<feComposite in2="hardAlpha" operator="out"/>
<feColorMatrix type="matrix" values="0 0 0 0 0.0978704 0 0 0 0 0.0602778 0 0 0 0 0.173056 0 0 0 0.02 0"/>
<feBlend mode="normal" in2="BackgroundImageFix" result="effect1_dropShadow_9_77"/>
<feBlend mode="normal" in="SourceGraphic" in2="effect1_dropShadow_9_77" result="shape"/>
</filter>
<clipPath id="clip0_9_77">
<rect width="46" height="46" fill="white"/>
</clipPath>
</defs>
</svg>
