<svg width="76" height="76" viewBox="0 0 76 76" fill="none" xmlns="http://www.w3.org/2000/svg">
<rect opacity="0.2" width="75.7306" height="75.7306" rx="23.6658" fill="#FFDA00"/>
<path d="M48.8261 28.1453C48.0961 27.2621 47.1794 26.5518 46.1419 26.0656C45.1044 25.5793 43.9719 25.3292 42.8261 25.3333C40.8656 25.274 38.9569 25.9683 37.4928 27.2733C36.0286 25.9683 34.1199 25.274 32.1594 25.3333C31.0136 25.3292 29.8812 25.5793 28.8437 26.0656C27.8061 26.5518 26.8894 27.2621 26.1594 28.1453C24.8888 29.6867 23.5594 32.4774 24.4408 37.0254C25.8474 44.288 36.3954 50.248 36.8408 50.492C37.0393 50.6027 37.2628 50.6608 37.4901 50.6608C37.7174 50.6608 37.9409 50.6027 38.1394 50.492C38.5874 50.2427 49.1354 44.2827 50.5394 37.0254C51.4261 32.4774 50.0968 29.6867 48.8261 28.1453ZM47.9274 36.5187C46.9328 41.6534 39.7034 46.4293 37.4928 47.7867C34.3781 45.9067 27.9701 41.1867 27.0648 36.5187C26.3808 32.9907 27.3168 30.9413 28.2234 29.8427C28.7029 29.2642 29.3045 28.7989 29.985 28.4803C30.6655 28.1618 31.4081 27.9977 32.1594 28C32.962 27.9398 33.7664 28.0886 34.4943 28.4319C35.2222 28.7752 35.8487 29.3012 36.3128 29.9587C36.4272 30.1693 36.596 30.3453 36.8016 30.4684C37.0072 30.5916 37.2421 30.6573 37.4818 30.6588C37.7214 30.6603 37.9571 30.5975 38.1642 30.477C38.3714 30.3564 38.5424 30.1825 38.6594 29.9733C39.1226 29.3107 39.7505 28.7803 40.4811 28.4342C41.2118 28.0882 42.02 27.9385 42.8261 28C43.5791 27.9964 44.3235 28.1597 45.0057 28.4783C45.6879 28.797 46.291 29.2629 46.7714 29.8427C47.6754 30.9413 48.6114 32.9907 47.9274 36.5187Z" fill="#FFDA00"/>
</svg>
