<svg width="46" height="46" viewBox="0 0 46 46" fill="none" xmlns="http://www.w3.org/2000/svg">
<g clip-path="url(#clip0_9_81)">
<g opacity="0.2" filter="url(#filter0_d_9_81)">
<path d="M37.3785 0H8.97436C4.01796 0 0 4.01796 0 8.97436V37.3785C0 42.3349 4.01796 46.3529 8.97436 46.3529H37.3785C42.3349 46.3529 46.3529 42.3349 46.3529 37.3785V8.97436C46.3529 4.01796 42.3349 0 37.3785 0Z" fill="#5271FF"/>
</g>
<path d="M30.3076 17.9556H27.5656L27.2761 16.9904C27.2298 16.8358 27.1349 16.7003 27.0054 16.6039C26.876 16.5076 26.719 16.4556 26.5576 16.4556H19.5076C19.3462 16.4556 19.1892 16.5076 19.0598 16.6039C18.9303 16.7003 18.8354 16.8358 18.7891 16.9904L18.4996 17.9556H15.3076C15.1087 17.9556 14.9179 18.0346 14.7773 18.1753C14.6366 18.3159 14.5576 18.5067 14.5576 18.7056V29.2056C14.5576 29.4045 14.6366 29.5953 14.7773 29.7359C14.9179 29.8766 15.1087 29.9556 15.3076 29.9556H30.3076C30.5065 29.9556 30.6973 29.8766 30.8379 29.7359C30.9786 29.5953 31.0576 29.4045 31.0576 29.2056V18.7056C31.0576 18.5067 30.9786 18.3159 30.8379 18.1753C30.6973 18.0346 30.5065 17.9556 30.3076 17.9556ZM29.5576 28.4556H16.0576V19.4556H19.0576C19.219 19.4556 19.376 19.4036 19.5054 19.3073C19.6349 19.2109 19.7298 19.0754 19.7761 18.9209L20.0656 17.9556H25.9996L26.2891 18.9209C26.3354 19.0754 26.4303 19.2109 26.5598 19.3073C26.6892 19.4036 26.8463 19.4556 27.0076 19.4556H29.5576V28.4556ZM22.8076 19.4556C22.0659 19.4556 21.3409 19.6755 20.7242 20.0876C20.1075 20.4996 19.6269 21.0853 19.3431 21.7705C19.0592 22.4558 18.985 23.2098 19.1297 23.9372C19.2743 24.6646 19.6315 25.3328 20.1559 25.8573C20.6804 26.3817 21.3486 26.7389 22.076 26.8835C22.8034 27.0282 23.5574 26.954 24.2427 26.6701C24.9279 26.3863 25.5136 25.9057 25.9256 25.289C26.3377 24.6723 26.5576 23.9473 26.5576 23.2056C26.5564 22.2114 26.1609 21.2583 25.4579 20.5553C24.7549 19.8523 23.8018 19.4568 22.8076 19.4556ZM22.8076 25.4556C22.3626 25.4556 21.9276 25.3236 21.5576 25.0764C21.1876 24.8292 20.8992 24.4778 20.7289 24.0666C20.5586 23.6555 20.514 23.2031 20.6008 22.7666C20.6876 22.3302 20.9019 21.9293 21.2166 21.6146C21.5313 21.2999 21.9322 21.0856 22.3686 20.9988C22.8051 20.912 23.2575 20.9566 23.6686 21.1269C24.0798 21.2972 24.4312 21.5856 24.6784 21.9556C24.9256 22.3256 25.0576 22.7606 25.0576 23.2056C25.0576 23.8023 24.8205 24.3746 24.3986 24.7966C23.9766 25.2185 23.4043 25.4556 22.8076 25.4556Z" fill="#5271FF"/>
</g>
<defs>
<filter id="filter0_d_9_81" x="-12.3125" y="-10.1397" width="81.1176" height="81.1175" filterUnits="userSpaceOnUse" color-interpolation-filters="sRGB">
<feFlood flood-opacity="0" result="BackgroundImageFix"/>
<feColorMatrix in="SourceAlpha" type="matrix" values="0 0 0 0 0 0 0 0 0 0 0 0 0 0 0 0 0 0 127 0" result="hardAlpha"/>
<feOffset dx="5.06985" dy="7.24264"/>
<feGaussianBlur stdDeviation="8.69117"/>
<feComposite in2="hardAlpha" operator="out"/>
<feColorMatrix type="matrix" values="0 0 0 0 0.0978704 0 0 0 0 0.0602778 0 0 0 0 0.173056 0 0 0 0.02 0"/>
<feBlend mode="normal" in2="BackgroundImageFix" result="effect1_dropShadow_9_81"/>
<feBlend mode="normal" in="SourceGraphic" in2="effect1_dropShadow_9_81" result="shape"/>
</filter>
<clipPath id="clip0_9_81">
<rect width="46" height="46" fill="white"/>
</clipPath>
</defs>
</svg>
