<svg width="121" height="91" viewBox="0 0 121 91" fill="none" xmlns="http://www.w3.org/2000/svg">
<path d="M34.1108 52.3068C34.946 52.3125 35.7585 52.4602 36.5483 52.75C37.3438 53.0341 38.0597 53.5 38.696 54.1477C39.3324 54.7898 39.8381 55.6506 40.2131 56.7301C40.5881 57.8097 40.7756 59.1449 40.7756 60.7358C40.7813 62.2358 40.6222 63.5767 40.2983 64.7585C39.9801 65.9347 39.5227 66.929 38.9261 67.7415C38.3295 68.554 37.6108 69.1733 36.7699 69.5994C35.929 70.0256 34.983 70.2386 33.9318 70.2386C32.8295 70.2386 31.8523 70.0227 31 69.5909C30.1534 69.1591 29.4688 68.5682 28.946 67.8182C28.4233 67.0682 28.1023 66.2102 27.983 65.2443H31.0938C31.2528 65.9375 31.5767 66.4886 32.0653 66.8977C32.5597 67.3011 33.1818 67.5028 33.9318 67.5028C35.142 67.5028 36.0739 66.9773 36.7273 65.9261C37.3807 64.875 37.7074 63.4148 37.7074 61.5455H37.5881C37.3097 62.0455 36.9489 62.4773 36.5057 62.8409C36.0625 63.1989 35.5597 63.4744 34.9972 63.6676C34.4403 63.8608 33.8494 63.9574 33.2244 63.9574C32.2017 63.9574 31.2813 63.7131 30.4631 63.2244C29.6506 62.7358 29.0057 62.0653 28.5284 61.2131C28.0568 60.3608 27.8182 59.3864 27.8125 58.2898C27.8125 57.1534 28.0739 56.1335 28.5966 55.2301C29.125 54.321 29.8608 53.6051 30.804 53.0824C31.7472 52.554 32.8494 52.2955 34.1108 52.3068ZM34.1193 54.8636C33.5057 54.8636 32.9517 55.0142 32.4574 55.3153C31.9688 55.6108 31.5824 56.0142 31.2983 56.5256C31.0199 57.0312 30.8807 57.5966 30.8807 58.2216C30.8864 58.8409 31.0256 59.4034 31.2983 59.9091C31.5767 60.4148 31.9545 60.8153 32.4318 61.1108C32.9148 61.4062 33.4659 61.554 34.0852 61.554C34.5455 61.554 34.9744 61.4659 35.3722 61.2898C35.7699 61.1136 36.1165 60.8693 36.4119 60.5568C36.7131 60.2386 36.946 59.8778 37.1108 59.4744C37.2813 59.071 37.3636 58.6449 37.358 58.196C37.358 57.5994 37.2159 57.0483 36.9318 56.5426C36.6534 56.0369 36.2699 55.6307 35.7812 55.3239C35.2983 55.017 34.7443 54.8636 34.1193 54.8636ZM50.0653 70.3324C48.6619 70.3324 47.4574 69.9773 46.4517 69.267C45.4517 68.5511 44.6818 67.5199 44.142 66.1733C43.608 64.821 43.3409 63.1932 43.3409 61.2898C43.3466 59.3864 43.6165 57.767 44.1506 56.4318C44.6903 55.0909 45.4602 54.0682 46.4602 53.3636C47.4659 52.6591 48.6676 52.3068 50.0653 52.3068C51.4631 52.3068 52.6648 52.6591 53.6705 53.3636C54.6761 54.0682 55.446 55.0909 55.9801 56.4318C56.5199 57.7727 56.7898 59.392 56.7898 61.2898C56.7898 63.1989 56.5199 64.8295 55.9801 66.1818C55.446 67.5284 54.6761 68.5568 53.6705 69.267C52.6705 69.9773 51.4688 70.3324 50.0653 70.3324ZM50.0653 67.6648C51.1563 67.6648 52.017 67.1278 52.6477 66.054C53.2841 64.9744 53.6023 63.3864 53.6023 61.2898C53.6023 59.9034 53.4574 58.7386 53.1676 57.7955C52.8778 56.8523 52.4688 56.142 51.9403 55.6648C51.4119 55.1818 50.7869 54.9403 50.0653 54.9403C48.9801 54.9403 48.1222 55.4801 47.4915 56.5597C46.8608 57.6335 46.5426 59.2102 46.5369 61.2898C46.5313 62.6818 46.6705 63.8523 46.9545 64.8011C47.2443 65.75 47.6534 66.4659 48.1818 66.9489C48.7102 67.4261 49.3381 67.6648 50.0653 67.6648ZM65.6896 70.2386C64.5533 70.2386 63.5362 70.0256 62.6385 69.5994C61.7408 69.1676 61.0277 68.5767 60.4993 67.8267C59.9766 67.0767 59.6982 66.2187 59.6641 65.2528H62.7322C62.7891 65.9687 63.0987 66.554 63.6612 67.0085C64.2237 67.4574 64.8999 67.6818 65.6896 67.6818C66.3089 67.6818 66.8601 67.5398 67.343 67.2557C67.826 66.9716 68.2067 66.5767 68.4851 66.071C68.7635 65.5653 68.8999 64.9886 68.8942 64.3409C68.8999 63.6818 68.7607 63.0966 68.4766 62.5852C68.1925 62.0739 67.8033 61.6733 67.3089 61.3835C66.8146 61.0881 66.2464 60.9403 65.6044 60.9403C65.0817 60.9347 64.5675 61.0312 64.0618 61.2301C63.5561 61.429 63.1555 61.6903 62.8601 62.0142L60.005 61.5455L60.9169 52.5455H71.0419V55.1875H63.5334L63.0305 59.8153H63.1328C63.4567 59.4347 63.9141 59.1193 64.505 58.8693C65.0959 58.6136 65.7436 58.4858 66.4482 58.4858C67.505 58.4858 68.4482 58.7358 69.2777 59.2358C70.1072 59.7301 70.7607 60.4119 71.2379 61.2812C71.7152 62.1506 71.9538 63.1449 71.9538 64.2642C71.9538 65.4176 71.6868 66.446 71.1527 67.3494C70.6243 68.2472 69.8885 68.9545 68.9453 69.4716C68.0078 69.983 66.9226 70.2386 65.6896 70.2386ZM74.9794 70V52.5455H78.1413V60.5653H78.3544L85.1641 52.5455H89.0249L82.2749 60.3778L89.0845 70H85.2834L80.076 62.517L78.1413 64.8011V70H74.9794Z" fill="#111231"/>
<path d="M3.75 90.0795C3.32197 90.0795 2.95739 89.9631 2.65625 89.7301C2.35511 89.4953 2.125 89.1553 1.96591 88.7102C1.80682 88.2633 1.72727 87.7235 1.72727 87.0909C1.72727 86.4621 1.80682 85.9252 1.96591 85.4801C2.12689 85.0331 2.35795 84.6922 2.65909 84.4574C2.96212 84.2206 3.32576 84.1023 3.75 84.1023C4.17424 84.1023 4.53693 84.2206 4.83807 84.4574C5.1411 84.6922 5.37216 85.0331 5.53125 85.4801C5.69223 85.9252 5.77273 86.4621 5.77273 87.0909C5.77273 87.7235 5.69318 88.2633 5.53409 88.7102C5.375 89.1553 5.14489 89.4953 4.84375 89.7301C4.54261 89.9631 4.17803 90.0795 3.75 90.0795ZM3.75 89.4545C4.17424 89.4545 4.50379 89.25 4.73864 88.8409C4.97348 88.4318 5.09091 87.8485 5.09091 87.0909C5.09091 86.5871 5.03693 86.1581 4.92898 85.804C4.82292 85.4498 4.66951 85.1799 4.46875 84.9943C4.26989 84.8087 4.0303 84.7159 3.75 84.7159C3.32955 84.7159 3.00095 84.9233 2.7642 85.3381C2.52746 85.7509 2.40909 86.3352 2.40909 87.0909C2.40909 87.5947 2.46212 88.0227 2.56818 88.375C2.67424 88.7273 2.8267 88.9953 3.02557 89.179C3.22633 89.3627 3.4678 89.4545 3.75 89.4545ZM9.81818 88.9091V88.6023C9.81818 88.3902 9.86174 88.196 9.94886 88.0199C10.0379 87.8419 10.1667 87.6998 10.3352 87.5938C10.5057 87.4858 10.7121 87.4318 10.9545 87.4318C11.2008 87.4318 11.4072 87.4858 11.5739 87.5938C11.7405 87.6998 11.8665 87.8419 11.9517 88.0199C12.0369 88.196 12.0795 88.3902 12.0795 88.6023V88.9091C12.0795 89.1212 12.036 89.3163 11.9489 89.4943C11.8636 89.6705 11.7367 89.8125 11.5682 89.9205C11.4015 90.0265 11.197 90.0795 10.9545 90.0795C10.7083 90.0795 10.5009 90.0265 10.3324 89.9205C10.1638 89.8125 10.036 89.6705 9.94886 89.4943C9.86174 89.3163 9.81818 89.1212 9.81818 88.9091ZM10.3977 88.6023V88.9091C10.3977 89.0852 10.4394 89.2434 10.5227 89.3835C10.6061 89.5218 10.75 89.5909 10.9545 89.5909C11.1534 89.5909 11.2936 89.5218 11.375 89.3835C11.4583 89.2434 11.5 89.0852 11.5 88.9091V88.6023C11.5 88.4261 11.4602 88.2689 11.3807 88.1307C11.3011 87.9905 11.1591 87.9205 10.9545 87.9205C10.7557 87.9205 10.6127 87.9905 10.5256 88.1307C10.4403 88.2689 10.3977 88.4261 10.3977 88.6023ZM6.92045 85.5795V85.2727C6.92045 85.0606 6.96402 84.8665 7.05114 84.6903C7.14015 84.5123 7.26894 84.3703 7.4375 84.2642C7.60795 84.1562 7.81439 84.1023 8.05682 84.1023C8.30303 84.1023 8.50947 84.1562 8.67614 84.2642C8.8428 84.3703 8.96875 84.5123 9.05398 84.6903C9.1392 84.8665 9.18182 85.0606 9.18182 85.2727V85.5795C9.18182 85.7917 9.13826 85.9867 9.05114 86.1648C8.96591 86.3409 8.83902 86.483 8.67045 86.5909C8.50379 86.697 8.29924 86.75 8.05682 86.75C7.81061 86.75 7.60322 86.697 7.43466 86.5909C7.2661 86.483 7.13826 86.3409 7.05114 86.1648C6.96402 85.9867 6.92045 85.7917 6.92045 85.5795ZM7.5 85.2727V85.5795C7.5 85.7557 7.54167 85.9138 7.625 86.054C7.70833 86.1922 7.85227 86.2614 8.05682 86.2614C8.25568 86.2614 8.39583 86.1922 8.47727 86.054C8.56061 85.9138 8.60227 85.7557 8.60227 85.5795V85.2727C8.60227 85.0966 8.5625 84.9394 8.48295 84.8011C8.40341 84.661 8.26136 84.5909 8.05682 84.5909C7.85795 84.5909 7.71496 84.661 7.62784 84.8011C7.54261 84.9394 7.5 85.0966 7.5 85.2727ZM7.13636 90L11.1364 84.1818H11.7841L7.78409 90H7.13636Z" fill="#606176"/>
<path d="M106.737 90.0795C106.404 90.0795 106.103 90.0133 105.836 89.8807C105.569 89.7481 105.355 89.5663 105.194 89.3352C105.033 89.1042 104.945 88.8409 104.93 88.5455H105.612C105.638 88.8087 105.758 89.0265 105.97 89.1989C106.184 89.3693 106.44 89.4545 106.737 89.4545C106.975 89.4545 107.188 89.3987 107.373 89.2869C107.561 89.1752 107.708 89.0218 107.814 88.8267C107.922 88.6297 107.975 88.4072 107.975 88.1591C107.975 87.9053 107.92 87.679 107.808 87.4801C107.698 87.2794 107.547 87.1212 107.353 87.0057C107.16 86.8902 106.94 86.8314 106.691 86.8295C106.513 86.8277 106.331 86.8551 106.143 86.9119C105.956 86.9669 105.801 87.0379 105.68 87.125L105.021 87.0455L105.373 84.1818H108.396V84.8068H105.964L105.76 86.5227H105.794C105.913 86.428 106.063 86.3494 106.243 86.2869C106.422 86.2244 106.61 86.1932 106.805 86.1932C107.161 86.1932 107.478 86.2784 107.757 86.4489C108.037 86.6174 108.257 86.8485 108.416 87.142C108.577 87.4356 108.657 87.7708 108.657 88.1477C108.657 88.5189 108.574 88.8504 108.407 89.142C108.243 89.4318 108.015 89.661 107.725 89.8295C107.436 89.9962 107.106 90.0795 106.737 90.0795ZM111.684 90.0795C111.256 90.0795 110.891 89.9631 110.59 89.7301C110.289 89.4953 110.059 89.1553 109.9 88.7102C109.74 88.2633 109.661 87.7235 109.661 87.0909C109.661 86.4621 109.74 85.9252 109.9 85.4801C110.06 85.0331 110.292 84.6922 110.593 84.4574C110.896 84.2206 111.259 84.1023 111.684 84.1023C112.108 84.1023 112.471 84.2206 112.772 84.4574C113.075 84.6922 113.306 85.0331 113.465 85.4801C113.626 85.9252 113.706 86.4621 113.706 87.0909C113.706 87.7235 113.627 88.2633 113.468 88.7102C113.309 89.1553 113.078 89.4953 112.777 89.7301C112.476 89.9631 112.112 90.0795 111.684 90.0795ZM111.684 89.4545C112.108 89.4545 112.437 89.25 112.672 88.8409C112.907 88.4318 113.025 87.8485 113.025 87.0909C113.025 86.5871 112.971 86.1581 112.863 85.804C112.757 85.4498 112.603 85.1799 112.402 84.9943C112.203 84.8087 111.964 84.7159 111.684 84.7159C111.263 84.7159 110.935 84.9233 110.698 85.3381C110.461 85.7509 110.343 86.3352 110.343 87.0909C110.343 87.5947 110.396 88.0227 110.502 88.375C110.608 88.7273 110.76 88.9953 110.959 89.179C111.16 89.3627 111.401 89.4545 111.684 89.4545ZM117.752 88.9091V88.6023C117.752 88.3902 117.795 88.196 117.882 88.0199C117.971 87.8419 118.1 87.6998 118.269 87.5938C118.439 87.4858 118.646 87.4318 118.888 87.4318C119.134 87.4318 119.341 87.4858 119.507 87.5938C119.674 87.6998 119.8 87.8419 119.885 88.0199C119.971 88.196 120.013 88.3902 120.013 88.6023V88.9091C120.013 89.1212 119.97 89.3163 119.882 89.4943C119.797 89.6705 119.67 89.8125 119.502 89.9205C119.335 90.0265 119.131 90.0795 118.888 90.0795C118.642 90.0795 118.435 90.0265 118.266 89.9205C118.097 89.8125 117.97 89.6705 117.882 89.4943C117.795 89.3163 117.752 89.1212 117.752 88.9091ZM118.331 88.6023V88.9091C118.331 89.0852 118.373 89.2434 118.456 89.3835C118.54 89.5218 118.684 89.5909 118.888 89.5909C119.087 89.5909 119.227 89.5218 119.309 89.3835C119.392 89.2434 119.434 89.0852 119.434 88.9091V88.6023C119.434 88.4261 119.394 88.2689 119.314 88.1307C119.235 87.9905 119.093 87.9205 118.888 87.9205C118.689 87.9205 118.546 87.9905 118.459 88.1307C118.374 88.2689 118.331 88.4261 118.331 88.6023ZM114.854 85.5795V85.2727C114.854 85.0606 114.898 84.8665 114.985 84.6903C115.074 84.5123 115.203 84.3703 115.371 84.2642C115.542 84.1562 115.748 84.1023 115.99 84.1023C116.237 84.1023 116.443 84.1562 116.61 84.2642C116.776 84.3703 116.902 84.5123 116.988 84.6903C117.073 84.8665 117.115 85.0606 117.115 85.2727V85.5795C117.115 85.7917 117.072 85.9867 116.985 86.1648C116.9 86.3409 116.773 86.483 116.604 86.5909C116.437 86.697 116.233 86.75 115.99 86.75C115.744 86.75 115.537 86.697 115.368 86.5909C115.2 86.483 115.072 86.3409 114.985 86.1648C114.898 85.9867 114.854 85.7917 114.854 85.5795ZM115.434 85.2727V85.5795C115.434 85.7557 115.475 85.9138 115.559 86.054C115.642 86.1922 115.786 86.2614 115.99 86.2614C116.189 86.2614 116.329 86.1922 116.411 86.054C116.494 85.9138 116.536 85.7557 116.536 85.5795V85.2727C116.536 85.0966 116.496 84.9394 116.417 84.8011C116.337 84.661 116.195 84.5909 115.99 84.5909C115.792 84.5909 115.649 84.661 115.561 84.8011C115.476 84.9394 115.434 85.0966 115.434 85.2727ZM115.07 90L119.07 84.1818H119.718L115.718 90H115.07Z" fill="#606176"/>
<circle cx="57.5" cy="33.5" r="8.5" fill="#FFDA00"/>
<path d="M109.25 72.534C111.422 64.6773 111.766 56.422 110.252 48.4052C108.693 40.1497 105.207 32.3815 100.08 25.7357C94.9533 19.0898 88.3307 13.755 80.7537 10.1675C73.1767 6.58 64.8606 4.84159 56.4852 5.09443C48.1098 5.34726 39.913 7.58417 32.565 11.6222C25.217 15.6603 18.9263 21.3849 14.2074 28.328C9.48847 35.2711 6.47525 43.2355 5.41409 51.5701C4.51884 58.6016 5.03443 65.7281 6.91565 72.534" stroke="#DBE5FA" stroke-width="9.92569" stroke-linecap="round"/>
<path d="M100.08 25.7357C94.9533 19.0898 88.3307 13.755 80.7537 10.1675C73.1767 6.58 64.8606 4.84159 56.4852 5.09443C48.1098 5.34726 39.913 7.58417 32.565 11.6222C25.217 15.6603 18.9263 21.3849 14.2074 28.328C9.48847 35.2711 6.47525 43.2355 5.41409 51.5701C4.51884 58.6016 5.03443 65.7281 6.91565 72.534" stroke="#FFDA00" stroke-width="9.92569" stroke-linecap="round"/>
</svg>
