<svg width="16" height="16" viewBox="0 0 16 16" fill="none" xmlns="http://www.w3.org/2000/svg">
<path d="M2.5679 10.625C3.54876 11.6072 4.85495 12.1969 6.2404 12.2829C7.62585 12.3689 8.99492 11.9452 10.0897 11.0918L13.8566 14.8587C13.9902 14.9877 14.1691 15.0591 14.3549 15.0575C14.5406 15.0559 14.7182 14.9814 14.8496 14.8501C14.9809 14.7188 15.0554 14.5411 15.057 14.3554C15.0586 14.1697 14.9872 13.9907 14.8582 13.8571L11.0913 10.0902C11.9826 8.94637 12.404 7.50561 12.2695 6.06176C12.1351 4.61791 11.4549 3.27973 10.3677 2.32012C9.28053 1.36052 7.86825 0.851784 6.41887 0.897659C4.9695 0.943535 3.59222 1.54057 2.5679 2.567C2.03864 3.096 1.61878 3.7241 1.33233 4.41541C1.04588 5.10672 0.898438 5.8477 0.898438 6.596C0.898438 7.34431 1.04588 8.08529 1.33233 8.7766C1.61878 9.46791 2.03864 10.096 2.5679 10.625V10.625ZM3.56949 3.57C4.26973 2.86978 5.19109 2.43401 6.1766 2.33694C7.16211 2.23986 8.15079 2.48749 8.97419 3.03764C9.79759 3.58778 10.4048 4.4064 10.6923 5.35402C10.9798 6.30165 10.9298 7.31964 10.5509 8.23456C10.172 9.14949 9.48763 9.90473 8.61433 10.3716C7.74102 10.8385 6.73285 10.9882 5.76158 10.7951C4.79031 10.602 3.91604 10.0781 3.28771 9.3127C2.65939 8.54729 2.31589 7.5877 2.31574 6.59742C2.31379 6.0347 2.42362 5.4772 2.63884 4.95726C2.85406 4.43732 3.1704 3.9653 3.56949 3.56859V3.57Z" fill="#A3AED0"/>
</svg>
