<svg width="18" height="22" viewBox="0 0 18 22" fill="none" xmlns="http://www.w3.org/2000/svg">
<path d="M17.71 5.3L12.71 0.3H12.705C12.5135 0.118745 12.2634 0.0122827 12 0H1C0.734784 0 0.48043 0.105357 0.292893 0.292893C0.105357 0.48043 0 0.734784 0 1V21C0 21.2652 0.105357 21.5196 0.292893 21.7071C0.48043 21.8946 0.734784 22 1 22H17C17.2652 22 17.5196 21.8946 17.7071 21.7071C17.8946 21.5196 18 21.2652 18 21V6C17.991 5.73932 17.888 5.4907 17.71 5.3ZM16 20H2V2H11V6C11 6.26522 11.1054 6.51957 11.2929 6.70711C11.4804 6.89464 11.7348 7 12 7H16V20ZM12.707 9.293C12.8945 9.48053 12.9998 9.73484 12.9998 10C12.9998 10.2652 12.8945 10.5195 12.707 10.707L8.707 14.707C8.53055 14.8834 8.29455 14.9874 8.04533 14.9987C7.79611 15.01 7.55167 14.9277 7.36 14.768L5.36 13.102C5.15618 12.9323 5.02814 12.6885 5.00404 12.4244C4.97994 12.1602 5.06176 11.8973 5.2315 11.6935C5.40124 11.4897 5.64499 11.3616 5.90914 11.3375C6.17328 11.3134 6.43618 11.3953 6.64 11.565L7.94 12.647L11.295 9.293C11.4824 9.10614 11.7363 9.00121 12.001 9.00121C12.2657 9.00121 12.5196 9.10614 12.707 9.293Z" fill="#5271FF"/>
</svg>
