<svg width="22" height="20" viewBox="0 0 22 20" fill="none" xmlns="http://www.w3.org/2000/svg">
<path d="M20 9.184V5C20 4.73478 19.8946 4.48043 19.7071 4.29289C19.5196 4.10536 19.2652 4 19 4H3C2.73478 4 2.48043 3.89464 2.29289 3.70711C2.10536 3.51957 2 3.26522 2 3C2 2.73478 2.10536 2.48043 2.29289 2.29289C2.48043 2.10536 2.73478 2 3 2H19C19.2652 2 19.5196 1.89464 19.7071 1.70711C19.8946 1.51957 20 1.26522 20 1C20 0.734784 19.8946 0.48043 19.7071 0.292893C19.5196 0.105357 19.2652 0 19 0H3C2.20435 0 1.44129 0.316071 0.87868 0.87868C0.31607 1.44129 0 2.20435 0 3V17C0 17.7956 0.31607 18.5587 0.87868 19.1213C1.44129 19.6839 2.20435 20 3 20H19C19.2652 20 19.5196 19.8946 19.7071 19.7071C19.8946 19.5196 20 19.2652 20 19V14.816C20.5845 14.6124 21.0912 14.2318 21.4498 13.7273C21.8083 13.2227 22.0009 12.619 22.0009 12C22.0009 11.381 21.8083 10.7773 21.4498 10.2727C21.0912 9.76816 20.5845 9.38765 20 9.184ZM18 18H3C2.73478 18 2.48043 17.8946 2.29289 17.7071C2.10536 17.5196 2 17.2652 2 17V5.816C2.32026 5.93444 2.65856 5.99669 3 6H18V9H15C14.2044 9 13.4413 9.31607 12.8787 9.87868C12.3161 10.4413 12 11.2044 12 12C12 12.7956 12.3161 13.5587 12.8787 14.1213C13.4413 14.6839 14.2044 15 15 15H18V18ZM19 13H15C14.7348 13 14.4804 12.8946 14.2929 12.7071C14.1054 12.5196 14 12.2652 14 12C14 11.7348 14.1054 11.4804 14.2929 11.2929C14.4804 11.1054 14.7348 11 15 11H19C19.2652 11 19.5196 11.1054 19.7071 11.2929C19.8946 11.4804 20 11.7348 20 12C20 12.2652 19.8946 12.5196 19.7071 12.7071C19.5196 12.8946 19.2652 13 19 13Z" fill="#5271FF"/>
</svg>
