<svg width="328" height="30" viewBox="0 0 328 30" fill="none" xmlns="http://www.w3.org/2000/svg">
<path d="M1.72589 20.3378C4.36352 16.9827 14.4767 14.2136 19.2036 13.2484C40.8079 8.64028 75.6804 5.79122 90.2816 6.49066C104.883 7.1901 88.9954 9.60913 75.1421 11.9823C61.2888 14.3555 71.4828 15.1546 84.0033 13.8414C96.5238 12.5282 122.605 10.9081 144.969 9.88702C167.333 8.86597 144.595 8.35077 122.559 8.84951C100.522 9.34825 100.815 7.28209 108.589 6.07632C116.363 4.87056 133.899 0.354413 154.591 0.401007C175.283 0.4476 224.125 0.371983 245.226 3.49877C266.327 6.62555 309.943 15.4216 320.523 18.2716C331.102 21.1216 329.944 29.9013 311.181 25.1769C292.419 20.4524 253.561 12.0636 168.77 12.4379C83.98 12.8122 19.7639 23.019 13.065 26.7749C6.36608 30.5309 1.61978 30.6383 4.26206 27.4891C6.90435 24.3398 7.5708 23.8098 4.88192 24.9005C2.19304 25.9912 -1.57114 24.5317 1.72589 20.3378Z" fill="#FFDA00"/>
</svg>
