<svg width="21" height="20" viewBox="0 0 21 20" fill="none" xmlns="http://www.w3.org/2000/svg">
<path d="M2.36719 18.0001H14.3672V13.0001C14.3672 12.7348 14.4725 12.4805 14.6601 12.2929C14.8476 12.1054 15.102 12.0001 15.3672 12.0001C15.6324 12.0001 15.8868 12.1054 16.0743 12.2929C16.2618 12.4805 16.3672 12.7348 16.3672 13.0001V19.0001C16.3672 19.2653 16.2618 19.5196 16.0743 19.7072C15.8868 19.8947 15.6324 20.0001 15.3672 20.0001H1.36719C1.10197 20.0001 0.847617 19.8947 0.660081 19.7072C0.472544 19.5196 0.367188 19.2653 0.367188 19.0001V13.0001C0.367188 12.7348 0.472544 12.4805 0.660081 12.2929C0.847617 12.1054 1.10197 12.0001 1.36719 12.0001C1.6324 12.0001 1.88676 12.1054 2.07429 12.2929C2.26183 12.4805 2.36719 12.7348 2.36719 13.0001V18.0001ZM7.36719 10.0001V14.0001C7.36719 14.2653 7.47254 14.5196 7.66008 14.7072C7.84762 14.8947 8.10197 15.0001 8.36719 15.0001C8.6324 15.0001 8.88676 14.8947 9.07429 14.7072C9.26183 14.5196 9.36719 14.2653 9.36719 14.0001V10.0001C9.36878 8.67446 9.89607 7.40361 10.8334 6.46627C11.7707 5.52894 13.0416 5.00164 14.3672 5.00005H17.0502L15.8112 6.31405C15.6292 6.50713 15.5315 6.76458 15.5393 7.02975C15.5472 7.29493 15.6601 7.54612 15.8532 7.72805C16.0463 7.90999 16.3037 8.00778 16.5689 7.9999C16.8341 7.99203 17.0852 7.87913 17.2672 7.68605L20.0752 4.70805L20.0952 4.68805C20.1282 4.64383 20.1577 4.59701 20.1832 4.54805C20.2253 4.49516 20.2615 4.43782 20.2912 4.37705C20.3892 4.13667 20.3892 3.86744 20.2912 3.62705C20.2614 3.56637 20.2252 3.50904 20.1832 3.45605C20.1577 3.4071 20.1282 3.36028 20.0952 3.31605L20.0752 3.29605L17.2672 0.314054C17.1776 0.21667 17.0695 0.138043 16.9493 0.0827324C16.829 0.0274214 16.699 -0.00347361 16.5668 -0.00816148C16.4345 -0.0128494 16.3026 0.00876306 16.1788 0.055423C16.0549 0.102083 15.9416 0.172862 15.8453 0.263657C15.749 0.354452 15.6717 0.463458 15.6179 0.584353C15.564 0.705249 15.5347 0.835631 15.5316 0.96794C15.5285 1.10025 15.5518 1.23185 15.5999 1.35512C15.6481 1.47839 15.7202 1.59088 15.8122 1.68605L17.0502 3.00005H14.3672C12.5114 3.00244 10.7323 3.7407 9.42007 5.05294C8.10783 6.36518 7.36957 8.14427 7.36719 10.0001Z" fill="#5271FF"/>
</svg>
