<svg width="22" height="20" viewBox="0 0 22 20" fill="none" xmlns="http://www.w3.org/2000/svg">
<path d="M20.7319 9.31353L21.5736 8.77356L21.5736 8.77355L20.7319 9.31353ZM10 3.02671L10.124 4.01898L10.134 4.01773L10.144 4.01628L10 3.02671ZM20.7304 10.7423L19.8888 10.2021L19.8888 10.2021L20.7304 10.7423ZM19.3461 12.6072L18.5844 11.9593L18.5844 11.9593L19.3461 12.6072ZM20.9782 9.80338L21.9522 9.57667L21.9522 9.57666L20.9782 9.80338ZM20.9782 10.2503L20.0042 10.0234L20.0042 10.0234L20.9782 10.2503ZM1.26806 10.7399L2.10974 10.1999L2.10974 10.1999L1.26806 10.7399ZM1.26905 9.31199L2.11066 9.85206L2.15992 9.7753L2.19448 9.6909L1.26905 9.31199ZM1.0218 10.2501L1.99576 10.0233L1.99576 10.0233L1.0218 10.2501ZM1.02183 9.80319L0.0479003 9.57633L0.0479001 9.57634L1.02183 9.80319ZM11 4.02671C13.2887 4.02671 15.2186 5.01868 16.7471 6.27453C18.2784 7.53262 19.3494 9.01045 19.8903 9.8535L21.5736 8.77355C20.9712 7.83462 19.7692 6.16904 18.0168 4.72922C16.2616 3.28716 13.8971 2.02671 11 2.02671V4.02671ZM10.144 4.01628C10.2724 3.9976 10.3454 3.99796 10.4381 4.00281C10.5332 4.00779 10.7464 4.02671 11 4.02671V2.02671C10.8149 2.02671 10.7345 2.01558 10.5426 2.00554C10.3481 1.99537 10.1404 1.99573 9.85597 2.03713L10.144 4.01628ZM19.8888 10.2021C19.6031 10.6474 19.1649 11.2768 18.5844 11.9593L20.1079 13.2551C20.7579 12.4908 21.2485 11.7863 21.572 11.2824L19.8888 10.2021ZM19.8903 9.8535C19.9262 9.90948 19.9513 9.94867 19.9722 9.98267C19.9927 10.0158 20.0028 10.0338 20.0081 10.0437C20.0125 10.0521 20.0114 10.0511 20.0088 10.044C20.0075 10.0408 20.0064 10.0375 20.0055 10.0345C20.0046 10.0315 20.0042 10.0298 20.0042 10.0301L21.9522 9.57666C21.8678 9.21411 21.6952 8.963 21.5736 8.77356L19.8903 9.8535ZM21.572 11.2824C21.694 11.0923 21.8676 10.84 21.9521 10.4772L20.0042 10.0234C20.0042 10.0235 20.0046 10.0218 20.0056 10.0187C20.0065 10.0156 20.0076 10.0123 20.0089 10.0091C20.0115 10.0021 20.0125 10.0012 20.0079 10.0099C20.0025 10.0202 19.9921 10.0385 19.9715 10.0719C19.9503 10.1063 19.925 10.1458 19.8888 10.2021L21.572 11.2824ZM20.0042 10.0301C20.0014 10.0179 20.0001 10.0098 19.9995 10.0065C19.999 10.0029 19.9989 10.0019 19.9991 10.0035C19.9992 10.0051 19.9995 10.0081 19.9997 10.0124C19.9999 10.0167 20 10.0216 20 10.0267C20 10.0319 19.9999 10.0368 19.9997 10.0411C19.9995 10.0454 19.9992 10.0484 19.9991 10.05C19.9989 10.0516 19.999 10.0506 19.9995 10.047C20.0001 10.0436 20.0014 10.0355 20.0042 10.0234L21.9521 10.4772C22.0159 10.2031 22.016 9.85079 21.9522 9.57667L20.0042 10.0301ZM11 16.0267C8.71128 16.0267 6.78142 15.0347 5.25288 13.7789C3.72163 12.5208 2.6506 11.043 2.10974 10.1999L0.426381 11.2799C1.02875 12.2188 2.23078 13.8844 3.98324 15.3242C5.7384 16.7663 8.1029 18.0267 11 18.0267V16.0267ZM2.19448 9.6909C2.31918 9.38633 2.62928 8.89515 3.14018 8.29577C3.6388 7.71079 4.28758 7.07075 5.03706 6.46525C6.55587 5.23821 8.38336 4.23658 10.124 4.01898L9.87596 2.03443C7.61664 2.31686 5.44413 3.56524 3.7802 4.90952C2.93831 5.58968 2.20004 6.31563 1.61808 6.99838C1.0484 7.66673 0.584388 8.34502 0.343613 8.93308L2.19448 9.6909ZM18.5844 11.9593C16.1472 14.8247 13.0911 16.0267 11 16.0267V18.0267C13.7547 18.0267 17.3436 16.505 20.1079 13.2551L18.5844 11.9593ZM2.10974 10.1999C2.07383 10.1439 2.04873 10.1047 2.02775 10.0707C2.00734 10.0377 1.9972 10.0197 1.99195 10.0097C1.98752 10.0013 1.98856 10.0024 1.99125 10.0094C1.99248 10.0126 1.99361 10.0159 1.99454 10.019C1.99544 10.022 1.99582 10.0236 1.99576 10.0233L0.047847 10.4768C0.132243 10.8393 0.30485 11.0904 0.426381 11.2799L2.10974 10.1999ZM0.427431 8.77192C0.30558 8.9618 0.132382 9.21364 0.0479003 9.57633L1.99576 10.03C1.9958 10.0299 1.9954 10.0316 1.99448 10.0346C1.99354 10.0377 1.9924 10.041 1.99117 10.0442C1.9885 10.0512 1.98751 10.0521 1.99204 10.0436C1.9974 10.0334 2.00767 10.0152 2.02823 9.98189C2.04934 9.94768 2.0746 9.90826 2.11066 9.85206L0.427431 8.77192ZM1.99576 10.0233C1.99859 10.0355 1.99994 10.0436 2.00046 10.0469C2.00101 10.0505 2.00106 10.0515 2.0009 10.0499C2.00076 10.0483 2.00051 10.0453 2.00031 10.041C2.00012 10.0367 2 10.0319 2 10.0267C2 10.0215 2.00012 10.0167 2.00032 10.0124C2.00051 10.008 2.00076 10.005 2.00091 10.0035C2.00106 10.0018 2.00102 10.0028 2.00046 10.0064C1.99994 10.0098 1.99859 10.0179 1.99576 10.03L0.0479001 9.57634C-0.0159473 9.85045 -0.0159684 10.2027 0.0478471 10.4768L1.99576 10.0233ZM13 10.0267C13 11.1313 12.1046 12.0267 11 12.0267V14.0267C13.2091 14.0267 15 12.2358 15 10.0267H13ZM11 12.0267C9.89543 12.0267 9 11.1313 9 10.0267H7C7 12.2358 8.79086 14.0267 11 14.0267V12.0267ZM9 10.0267C9 8.92214 9.89543 8.02671 11 8.02671V6.02671C8.79086 6.02671 7 7.81757 7 10.0267H9ZM11 8.02671C12.1046 8.02671 13 8.92214 13 10.0267H15C15 7.81757 13.2091 6.02671 11 6.02671V8.02671Z" fill="#9A9A9A"/>
</svg>
