<svg width="19" height="19" viewBox="0 0 19 19" fill="none" xmlns="http://www.w3.org/2000/svg">
<path d="M3.07772 14.9238L10.7817 7.21978C10.4109 6.59079 10.2821 5.84812 10.4196 5.131C10.5572 4.41388 10.9515 3.77154 11.5288 3.32438C12.106 2.87722 12.8266 2.65594 13.5553 2.70203C14.284 2.74812 14.9709 3.05841 15.4873 3.57473C16.0036 4.09105 16.3139 4.77796 16.36 5.50669C16.4061 6.23543 16.1848 6.95596 15.7376 7.53321C15.2905 8.11047 14.6481 8.50482 13.931 8.64235C13.2139 8.77989 12.4712 8.65115 11.8422 8.28028L4.13822 15.9843C3.99677 16.1209 3.80732 16.1965 3.61067 16.1948C3.41402 16.1931 3.22591 16.1142 3.08686 15.9751C2.9478 15.8361 2.86892 15.648 2.86722 15.4513C2.86551 15.2547 2.9411 15.0652 3.07772 14.9238Z" fill="#667085"/>
</svg>
