<svg width="32" height="32" viewBox="0 0 32 32" fill="none" xmlns="http://www.w3.org/2000/svg">
<path d="M10.8487 15.5081C10.775 15.5322 10.6991 15.5492 10.6221 15.5587C10.6448 15.7049 10.6595 15.8523 10.6661 16.0001C10.6595 16.1466 10.6448 16.2926 10.6221 16.4374C10.7005 16.4488 10.7778 16.4676 10.8527 16.4934L22.5327 21.9801C22.6519 22.0432 22.7607 22.1241 22.8554 22.2201C23.5559 21.6507 24.43 21.3379 25.3327 21.3334C26.1776 21.3232 27.0045 21.5775 27.6976 22.0607C28.3907 22.5439 28.9153 23.2319 29.1979 24.0281C29.4805 24.8244 29.5069 25.6891 29.2735 26.5012C29.04 27.3132 28.5585 28.0319 27.8962 28.5565C27.2339 29.0812 26.424 29.3855 25.5801 29.4269C24.7362 29.4683 23.9005 29.2447 23.19 28.7874C22.4796 28.33 21.9299 27.6619 21.6182 26.8766C21.3064 26.0913 21.2481 25.2282 21.4514 24.4081C21.4327 24.4001 21.4127 24.4081 21.3927 24.3947L9.71805 18.9081C9.65471 18.869 9.59492 18.8243 9.53939 18.7747C8.98616 19.3492 8.27383 19.7452 7.49389 19.9118C6.71395 20.0784 5.902 20.0081 5.16233 19.7098C4.42266 19.4116 3.78903 18.899 3.34282 18.238C2.89662 17.577 2.6582 16.7976 2.6582 16.0001C2.6582 15.2025 2.89662 14.4232 3.34282 13.7622C3.78903 13.1011 4.42266 12.5886 5.16233 12.2903C5.902 11.9921 6.71395 11.9217 7.49389 12.0884C8.27383 12.255 8.98616 12.6509 9.53939 13.2254C9.59469 13.1761 9.65401 13.1315 9.71672 13.0921L21.3927 7.60008C21.4114 7.59075 21.4314 7.60008 21.4514 7.58542C21.3755 7.28498 21.3357 6.97659 21.3327 6.66675C21.3327 5.87562 21.5673 5.10227 22.0068 4.44447C22.4464 3.78667 23.0711 3.27398 23.802 2.97123C24.5329 2.66848 25.3372 2.58927 26.1131 2.74361C26.889 2.89795 27.6017 3.27891 28.1611 3.83832C28.7206 4.39773 29.1015 5.11046 29.2559 5.88639C29.4102 6.66231 29.331 7.46658 29.0282 8.19748C28.7255 8.92839 28.2128 9.5531 27.555 9.99263C26.8972 10.4322 26.1238 10.6667 25.3327 10.6667C24.4282 10.6635 23.552 10.3506 22.8501 9.78008C22.7549 9.87548 22.6461 9.95635 22.5274 10.0201L10.8487 15.5081Z" fill="#5271FF"/>
</svg>
