<svg width="32" height="32" viewBox="0 0 32 32" fill="none" xmlns="http://www.w3.org/2000/svg">
<path d="M9.33268 17.3333V25.3333C9.33268 25.6869 9.19221 26.026 8.94216 26.2761C8.69211 26.5261 8.35297 26.6666 7.99935 26.6666C7.64573 26.6666 7.30659 26.5261 7.05654 26.2761C6.80649 26.026 6.66602 25.6869 6.66602 25.3333V17.3333C6.66602 16.9796 6.80649 16.6405 7.05654 16.3904C7.30659 16.1404 7.64573 15.9999 7.99935 15.9999C8.35297 15.9999 8.69211 16.1404 8.94216 16.3904C9.19221 16.6405 9.33268 16.9796 9.33268 17.3333ZM23.9993 26.6666C24.353 26.6666 24.6921 26.5261 24.9422 26.2761C25.1922 26.026 25.3327 25.6869 25.3327 25.3333V6.66659C25.3327 6.31296 25.1922 5.97383 24.9422 5.72378C24.6921 5.47373 24.353 5.33325 23.9993 5.33325C23.6457 5.33325 23.3066 5.47373 23.0565 5.72378C22.8065 5.97383 22.666 6.31296 22.666 6.66659V25.3333C22.666 25.6869 22.8065 26.026 23.0565 26.2761C23.3066 26.5261 23.6457 26.6666 23.9993 26.6666ZM15.9993 26.6666C16.353 26.6666 16.6921 26.5261 16.9422 26.2761C17.1922 26.026 17.3327 25.6869 17.3327 25.3333V11.9999C17.3327 11.6463 17.1922 11.3072 16.9422 11.0571C16.6921 10.8071 16.353 10.6666 15.9993 10.6666C15.6457 10.6666 15.3066 10.8071 15.0565 11.0571C14.8065 11.3072 14.666 11.6463 14.666 11.9999V25.3333C14.666 25.6869 14.8065 26.026 15.0565 26.2761C15.3066 26.5261 15.6457 26.6666 15.9993 26.6666Z" fill="#5271FF"/>
</svg>
