<svg width="32" height="32" viewBox="0 0 32 32" fill="none" xmlns="http://www.w3.org/2000/svg">
<path d="M1.33398 28.0001C1.33398 27.6465 1.47446 27.3073 1.72451 27.0573C1.97456 26.8072 2.3137 26.6667 2.66732 26.6667H29.334C29.6876 26.6667 30.0267 26.8072 30.2768 27.0573C30.5268 27.3073 30.6673 27.6465 30.6673 28.0001C30.6673 28.3537 30.5268 28.6928 30.2768 28.9429C30.0267 29.1929 29.6876 29.3334 29.334 29.3334H2.66732C2.3137 29.3334 1.97456 29.1929 1.72451 28.9429C1.47446 28.6928 1.33398 28.3537 1.33398 28.0001ZM26.6673 10.6667C27.0209 10.6667 27.3601 10.8072 27.6101 11.0573C27.8602 11.3073 28.0007 11.6465 28.0007 12.0001V22.6667C28.0007 23.0204 27.8602 23.3595 27.6101 23.6096C27.3601 23.8596 27.0209 24.0001 26.6673 24.0001H18.6673C18.3137 24.0001 17.9746 23.8596 17.7245 23.6096C17.4745 23.3595 17.334 23.0204 17.334 22.6667V12.0001C17.334 11.6465 17.4745 11.3073 17.7245 11.0573C17.9746 10.8072 18.3137 10.6667 18.6673 10.6667H26.6673ZM25.334 13.3334H20.0007V21.3334H25.334V13.3334ZM13.334 2.66675C13.6876 2.66675 14.0267 2.80722 14.2768 3.05727C14.5268 3.30732 14.6673 3.64646 14.6673 4.00008V22.6667C14.6673 23.0204 14.5268 23.3595 14.2768 23.6096C14.0267 23.8596 13.6876 24.0001 13.334 24.0001H5.33398C4.98036 24.0001 4.64122 23.8596 4.39118 23.6096C4.14113 23.3595 4.00065 23.0204 4.00065 22.6667V4.00008C4.00065 3.64646 4.14113 3.30732 4.39118 3.05727C4.64122 2.80722 4.98036 2.66675 5.33398 2.66675H13.334ZM12.0007 5.33341H6.66732V21.3334H12.0007V5.33341Z" fill="#5271FF"/>
</svg>
