<svg width="32" height="32" viewBox="0 0 32 32" fill="none" xmlns="http://www.w3.org/2000/svg">
<path d="M8.0013 14.6666C8.35492 14.6666 8.69406 14.8071 8.94411 15.0571C9.19416 15.3072 9.33464 15.6463 9.33464 15.9999V25.3333C9.33464 25.6869 9.19416 26.026 8.94411 26.2761C8.69406 26.5261 8.35492 26.6666 8.0013 26.6666C7.64768 26.6666 7.30854 26.5261 7.05849 26.2761C6.80844 26.026 6.66797 25.6869 6.66797 25.3333V15.9999C6.66797 15.6463 6.80844 15.3072 7.05849 15.0571C7.30854 14.8071 7.64768 14.6666 8.0013 14.6666ZM14.668 6.66659V25.3333C14.668 25.6869 14.8084 26.026 15.0585 26.2761C15.3085 26.5261 15.6477 26.6666 16.0013 26.6666C16.3549 26.6666 16.6941 26.5261 16.9441 26.2761C17.1942 26.026 17.3346 25.6869 17.3346 25.3333V6.66659C17.3346 6.31296 17.1942 5.97383 16.9441 5.72378C16.6941 5.47373 16.3549 5.33325 16.0013 5.33325C15.6477 5.33325 15.3085 5.47373 15.0585 5.72378C14.8084 5.97383 14.668 6.31296 14.668 6.66659ZM22.668 11.3333V25.3333C22.668 25.6869 22.8084 26.026 23.0585 26.2761C23.3085 26.5261 23.6477 26.6666 24.0013 26.6666C24.3549 26.6666 24.6941 26.5261 24.9441 26.2761C25.1942 26.026 25.3346 25.6869 25.3346 25.3333V11.3333C25.3346 10.9796 25.1942 10.6405 24.9441 10.3904C24.6941 10.1404 24.3549 9.99992 24.0013 9.99992C23.6477 9.99992 23.3085 10.1404 23.0585 10.3904C22.8084 10.6405 22.668 10.9796 22.668 11.3333Z" fill="#5271FF"/>
</svg>
