<svg width="12" height="20" viewBox="0 0 12 20" fill="none" xmlns="http://www.w3.org/2000/svg">
<path d="M1.29357 5.70703C1.1061 5.5195 1.00078 5.26519 1.00078 5.00003C1.00078 4.73487 1.1061 4.48056 1.29357 4.29303L5.29357 0.293031C5.4811 0.105559 5.7354 0.000244141 6.00057 0.000244141C6.26573 0.000244141 6.52004 0.105559 6.70757 0.293031L10.7076 4.29303C10.8031 4.38528 10.8793 4.49562 10.9317 4.61763C10.9841 4.73963 11.0117 4.87085 11.0128 5.00363C11.014 5.13641 10.9887 5.26809 10.9384 5.39098C10.8881 5.51388 10.8139 5.62553 10.72 5.71943C10.6261 5.81332 10.5144 5.88757 10.3915 5.93785C10.2686 5.98813 10.1369 6.01344 10.0042 6.01228C9.87139 6.01113 9.74017 5.98354 9.61817 5.93113C9.49616 5.87872 9.38582 5.80254 9.29357 5.70703L6.00057 2.41403L2.70757 5.70703C2.52004 5.8945 2.26573 5.99982 2.00057 5.99982C1.73541 5.99982 1.4811 5.8945 1.29357 5.70703ZM1.29357 15.707L5.29357 19.707C5.4811 19.8945 5.7354 19.9998 6.00057 19.9998C6.26573 19.9998 6.52004 19.8945 6.70757 19.707L10.7076 15.707C10.8897 15.5184 10.9905 15.2658 10.9882 15.0036C10.986 14.7414 10.8808 14.4906 10.6954 14.3052C10.51 14.1198 10.2592 14.0146 9.99697 14.0124C9.73477 14.0101 9.48217 14.1109 9.29357 14.293L6.00057 17.586L2.70757 14.293C2.61532 14.1975 2.50498 14.1213 2.38297 14.0689C2.26097 14.0165 2.12975 13.9889 1.99697 13.9878C1.86419 13.9866 1.73251 14.0119 1.60962 14.0622C1.48672 14.1125 1.37507 14.1867 1.28117 14.2806C1.18728 14.3745 1.11303 14.4862 1.06275 14.6091C1.01247 14.732 0.987165 14.8637 0.988319 14.9964C0.989473 15.1292 1.01706 15.2604 1.06947 15.3824C1.12188 15.5044 1.19806 15.6148 1.29357 15.707Z" fill="#667085"/>
</svg>
