<svg width="16" height="19" viewBox="0 0 16 19" fill="none" xmlns="http://www.w3.org/2000/svg">
<path d="M3.28445 12.7581C3.28432 13.1247 3.35641 13.4878 3.49661 13.8265C3.63682 14.1652 3.84238 14.473 4.10156 14.7323C4.36074 14.9916 4.66846 15.1973 5.00715 15.3376C5.34583 15.4779 5.70884 15.5501 6.07545 15.5501C6.82342 15.5613 7.54599 15.2789 8.08814 14.7635C8.63029 14.2481 8.94884 13.5407 8.97545 12.7931L9.00745 0.226135H11.5854C11.7025 1.34603 12.2096 2.38912 13.0179 3.17298C13.8263 3.95684 14.8845 4.43157 16.0074 4.51414V7.50914C15.8604 7.52314 15.7124 7.53114 15.5644 7.53114C14.7667 7.53169 13.9813 7.33338 13.2794 6.95415C12.5775 6.57492 11.9812 6.02673 11.5444 5.35914V12.7591C11.5444 13.8408 11.2237 14.8982 10.6228 15.7975C10.0218 16.6969 9.16767 17.3979 8.16834 17.8118C7.16901 18.2258 6.06938 18.3341 5.0085 18.1231C3.94762 17.912 2.97313 17.3912 2.20828 16.6263C1.44343 15.8614 0.922556 14.887 0.711533 13.8261C0.50051 12.7652 0.608815 11.6656 1.02275 10.6662C1.43669 9.66691 2.13766 8.81277 3.03703 8.21183C3.93641 7.61089 4.99378 7.29014 6.07545 7.29014C6.18945 7.29014 6.30145 7.30014 6.41345 7.30714V10.0071C6.30154 9.98923 6.18868 9.97787 6.07545 9.97313C5.33627 9.97313 4.62727 10.2664 4.10403 10.7885C3.58079 11.3106 3.28604 12.019 3.28445 12.7581Z" fill="#5271FF"/>
</svg>
