<svg width="158" height="92" viewBox="0 0 158 92" fill="none" xmlns="http://www.w3.org/2000/svg">
<rect width="158" height="92" rx="5.4916" fill="white"/>
<path d="M4.51056 10.5481C4.63076 10.549 4.74921 10.5709 4.86591 10.6139C4.9826 10.6569 5.08789 10.7271 5.18177 10.8245C5.27653 10.9218 5.35198 11.0535 5.40813 11.2193C5.46516 11.3842 5.49412 11.5895 5.495 11.8352C5.495 12.0712 5.47131 12.2814 5.42393 12.4656C5.37655 12.649 5.30855 12.8038 5.21993 12.9302C5.13219 13.0565 5.02559 13.1526 4.90012 13.2184C4.77466 13.2842 4.6334 13.3171 4.47634 13.3171C4.31578 13.3171 4.1732 13.2855 4.04861 13.2224C3.92402 13.1592 3.82269 13.0719 3.7446 12.9605C3.66651 12.8482 3.61781 12.7192 3.59851 12.5735H3.99992C4.02624 12.6893 4.07976 12.7832 4.16048 12.8552C4.24208 12.9262 4.34737 12.9618 4.47634 12.9618C4.67376 12.9618 4.82774 12.8758 4.93829 12.7038C5.04884 12.531 5.10456 12.2897 5.10543 11.98H5.08438C5.03875 12.0554 4.98172 12.1204 4.91328 12.1748C4.84573 12.2292 4.76983 12.2713 4.6856 12.3011C4.60137 12.3309 4.51144 12.3459 4.4158 12.3459C4.2605 12.3459 4.11924 12.3077 3.99202 12.2314C3.8648 12.155 3.76346 12.0502 3.68801 11.9168C3.61255 11.7834 3.57482 11.6312 3.57482 11.4601C3.57482 11.2899 3.61343 11.1355 3.69064 10.9969C3.76873 10.8582 3.87752 10.7486 4.01703 10.6678C4.15741 10.5862 4.32192 10.5463 4.51056 10.5481ZM4.51188 10.8903C4.40922 10.8903 4.31666 10.9157 4.23418 10.9666C4.15259 11.0166 4.0881 11.0846 4.04072 11.1706C3.99334 11.2557 3.96965 11.3504 3.96965 11.4549C3.96965 11.5593 3.99246 11.654 4.03809 11.7391C4.08459 11.8234 4.14776 11.8905 4.2276 11.9405C4.30832 11.9896 4.40045 12.0142 4.50398 12.0142C4.58119 12.0142 4.65314 11.9993 4.71982 11.9694C4.7865 11.9396 4.84485 11.8984 4.89486 11.8457C4.94487 11.7922 4.98391 11.7317 5.01199 11.6641C5.04007 11.5966 5.05411 11.5255 5.05411 11.4509C5.05411 11.3518 5.03042 11.2596 4.98304 11.1745C4.93654 11.0894 4.87249 11.021 4.79089 10.9692C4.70929 10.9166 4.61629 10.8903 4.51188 10.8903ZM6.13725 13.3053C6.0653 13.3053 6.00344 13.2798 5.95168 13.2289C5.89991 13.1772 5.87403 13.1149 5.87403 13.0421C5.87403 12.9701 5.89991 12.9087 5.95168 12.8578C6.00344 12.806 6.0653 12.7802 6.13725 12.7802C6.20919 12.7802 6.27105 12.806 6.32282 12.8578C6.37458 12.9087 6.40046 12.9701 6.40046 13.0421C6.40046 13.0903 6.38818 13.1346 6.36361 13.175C6.33992 13.2145 6.30834 13.2461 6.26886 13.2697C6.22937 13.2934 6.1855 13.3053 6.13725 13.3053ZM7.76295 13.325C7.555 13.3241 7.37733 13.2693 7.22993 13.1605C7.08253 13.0517 6.96978 12.8933 6.89169 12.6854C6.81361 12.4775 6.77456 12.227 6.77456 11.9339C6.77456 11.6417 6.81361 11.3921 6.89169 11.1851C6.97066 10.978 7.08384 10.8201 7.23125 10.7113C7.37952 10.6025 7.55676 10.5481 7.76295 10.5481C7.96913 10.5481 8.14593 10.6029 8.29333 10.7126C8.44073 10.8214 8.55348 10.9793 8.63156 11.1864C8.71053 11.3926 8.75001 11.6417 8.75001 11.9339C8.75001 12.2278 8.71097 12.4788 8.63288 12.6867C8.55479 12.8938 8.44205 13.0522 8.29465 13.1618C8.14724 13.2706 7.97001 13.325 7.76295 13.325ZM7.76295 12.9736C7.94544 12.9736 8.08802 12.8846 8.19067 12.7065C8.29421 12.5283 8.34597 12.2708 8.34597 11.9339C8.34597 11.7102 8.32228 11.5211 8.2749 11.3667C8.2284 11.2114 8.16128 11.0938 8.07354 11.014C7.98668 10.9332 7.88315 10.8929 7.76295 10.8929C7.58133 10.8929 7.43875 10.9824 7.33522 11.1614C7.23168 11.3404 7.17948 11.5979 7.1786 11.9339C7.1786 12.1585 7.20185 12.3485 7.24835 12.5038C7.29573 12.6582 7.36285 12.7753 7.44972 12.8552C7.53658 12.9341 7.64099 12.9736 7.76295 12.9736ZM10.1553 13.325C9.94732 13.3241 9.76965 13.2693 9.62225 13.1605C9.47485 13.0517 9.3621 12.8933 9.28401 12.6854C9.20593 12.4775 9.16688 12.227 9.16688 11.9339C9.16688 11.6417 9.20593 11.3921 9.28401 11.1851C9.36298 10.978 9.47616 10.8201 9.62357 10.7113C9.77184 10.6025 9.94908 10.5481 10.1553 10.5481C10.3615 10.5481 10.5382 10.6029 10.6856 10.7126C10.8331 10.8214 10.9458 10.9793 11.0239 11.1864C11.1028 11.3926 11.1423 11.6417 11.1423 11.9339C11.1423 12.2278 11.1033 12.4788 11.0252 12.6867C10.9471 12.8938 10.8344 13.0522 10.687 13.1618C10.5396 13.2706 10.3623 13.325 10.1553 13.325ZM10.1553 12.9736C10.3378 12.9736 10.4803 12.8846 10.583 12.7065C10.6865 12.5283 10.7383 12.2708 10.7383 11.9339C10.7383 11.7102 10.7146 11.5211 10.6672 11.3667C10.6207 11.2114 10.5536 11.0938 10.4659 11.014C10.379 10.9332 10.2755 10.8929 10.1553 10.8929C9.97364 10.8929 9.83107 10.9824 9.72754 11.1614C9.624 11.3404 9.5718 11.5979 9.57092 11.9339C9.57092 12.1585 9.59417 12.3485 9.64067 12.5038C9.68805 12.6582 9.75517 12.7753 9.84204 12.8552C9.9289 12.9341 10.0333 12.9736 10.1553 12.9736ZM12.5476 13.325C12.3396 13.3241 12.162 13.2693 12.0146 13.1605C11.8672 13.0517 11.7544 12.8933 11.6763 12.6854C11.5982 12.4775 11.5592 12.227 11.5592 11.9339C11.5592 11.6417 11.5982 11.3921 11.6763 11.1851C11.7553 10.978 11.8685 10.8201 12.0159 10.7113C12.1642 10.6025 12.3414 10.5481 12.5476 10.5481C12.7538 10.5481 12.9306 10.6029 13.078 10.7126C13.2254 10.8214 13.3381 10.9793 13.4162 11.1864C13.4952 11.3926 13.5347 11.6417 13.5347 11.9339C13.5347 12.2278 13.4956 12.4788 13.4175 12.6867C13.3394 12.8938 13.2267 13.0522 13.0793 13.1618C12.9319 13.2706 12.7547 13.325 12.5476 13.325ZM12.5476 12.9736C12.7301 12.9736 12.8727 12.8846 12.9753 12.7065C13.0788 12.5283 13.1306 12.2708 13.1306 11.9339C13.1306 11.7102 13.1069 11.5211 13.0595 11.3667C13.013 11.2114 12.9459 11.0938 12.8582 11.014C12.7713 10.9332 12.6678 10.8929 12.5476 10.8929C12.366 10.8929 12.2234 10.9824 12.1199 11.1614C12.0163 11.3404 11.9641 11.5979 11.9632 11.9339C11.9632 12.1585 11.9865 12.3485 12.033 12.5038C12.0804 12.6582 12.1475 12.7753 12.2344 12.8552C12.3212 12.9341 12.4256 12.9736 12.5476 12.9736ZM14.1683 13.3053C14.0964 13.3053 14.0345 13.2798 13.9828 13.2289C13.931 13.1772 13.9051 13.1149 13.9051 13.0421C13.9051 12.9701 13.931 12.9087 13.9828 12.8578C14.0345 12.806 14.0964 12.7802 14.1683 12.7802C14.2403 12.7802 14.3022 12.806 14.3539 12.8578C14.4057 12.9087 14.4316 12.9701 14.4316 13.0421C14.4316 13.0903 14.4193 13.1346 14.3947 13.175C14.371 13.2145 14.3394 13.2461 14.3 13.2697C14.2605 13.2934 14.2166 13.3053 14.1683 13.3053ZM15.794 13.325C15.5861 13.3241 15.4084 13.2693 15.261 13.1605C15.1136 13.0517 15.0009 12.8933 14.9228 12.6854C14.8447 12.4775 14.8057 12.227 14.8057 11.9339C14.8057 11.6417 14.8447 11.3921 14.9228 11.1851C15.0018 10.978 15.1149 10.8201 15.2623 10.7113C15.4106 10.6025 15.5879 10.5481 15.794 10.5481C16.0002 10.5481 16.177 10.6029 16.3244 10.7126C16.4718 10.8214 16.5846 10.9793 16.6627 11.1864C16.7416 11.3926 16.7811 11.6417 16.7811 11.9339C16.7811 12.2278 16.7421 12.4788 16.664 12.6867C16.5859 12.8938 16.4731 13.0522 16.3257 13.1618C16.1783 13.2706 16.0011 13.325 15.794 13.325ZM15.794 12.9736C15.9765 12.9736 16.1191 12.8846 16.2218 12.7065C16.3253 12.5283 16.3771 12.2708 16.3771 11.9339C16.3771 11.7102 16.3534 11.5211 16.306 11.3667C16.2595 11.2114 16.1924 11.0938 16.1046 11.014C16.0178 10.9332 15.9142 10.8929 15.794 10.8929C15.6124 10.8929 15.4699 10.9824 15.3663 11.1614C15.2628 11.3404 15.2106 11.5979 15.2097 11.9339C15.2097 12.1585 15.233 12.3485 15.2795 12.5038C15.3268 12.6582 15.394 12.7753 15.4808 12.8552C15.5677 12.9341 15.6721 12.9736 15.794 12.9736ZM18.1864 13.325C17.9784 13.3241 17.8008 13.2693 17.6534 13.1605C17.5059 13.0517 17.3932 12.8933 17.3151 12.6854C17.237 12.4775 17.198 12.227 17.198 11.9339C17.198 11.6417 17.237 11.3921 17.3151 11.1851C17.3941 10.978 17.5073 10.8201 17.6547 10.7113C17.8029 10.6025 17.9802 10.5481 18.1864 10.5481C18.3926 10.5481 18.5693 10.6029 18.7167 10.7126C18.8642 10.8214 18.9769 10.9793 19.055 11.1864C19.1339 11.3926 19.1734 11.6417 19.1734 11.9339C19.1734 12.2278 19.1344 12.4788 19.0563 12.6867C18.9782 12.8938 18.8655 13.0522 18.7181 13.1618C18.5707 13.2706 18.3934 13.325 18.1864 13.325ZM18.1864 12.9736C18.3689 12.9736 18.5114 12.8846 18.6141 12.7065C18.7176 12.5283 18.7694 12.2708 18.7694 11.9339C18.7694 11.7102 18.7457 11.5211 18.6983 11.3667C18.6518 11.2114 18.5847 11.0938 18.497 11.014C18.4101 10.9332 18.3066 10.8929 18.1864 10.8929C18.0047 10.8929 17.8622 10.9824 17.7586 11.1614C17.6551 11.3404 17.6029 11.5979 17.602 11.9339C17.602 12.1585 17.6253 12.3485 17.6718 12.5038C17.7192 12.6582 17.7863 12.7753 17.8731 12.8552C17.96 12.9341 18.0644 12.9736 18.1864 12.9736ZM20.5787 13.325C20.3707 13.3241 20.1931 13.2693 20.0457 13.1605C19.8983 13.0517 19.7855 12.8933 19.7074 12.6854C19.6293 12.4775 19.5903 12.227 19.5903 11.9339C19.5903 11.6417 19.6293 11.3921 19.7074 11.1851C19.7864 10.978 19.8996 10.8201 20.047 10.7113C20.1953 10.6025 20.3725 10.5481 20.5787 10.5481C20.7849 10.5481 20.9617 10.6029 21.1091 10.7126C21.2565 10.8214 21.3692 10.9793 21.4473 11.1864C21.5263 11.3926 21.5658 11.6417 21.5658 11.9339C21.5658 12.2278 21.5267 12.4788 21.4486 12.6867C21.3705 12.8938 21.2578 13.0522 21.1104 13.1618C20.963 13.2706 20.7858 13.325 20.5787 13.325ZM20.5787 12.9736C20.7612 12.9736 20.9038 12.8846 21.0064 12.7065C21.1099 12.5283 21.1617 12.2708 21.1617 11.9339C21.1617 11.7102 21.138 11.5211 21.0906 11.3667C21.0441 11.2114 20.977 11.0938 20.8893 11.014C20.8024 10.9332 20.6989 10.8929 20.5787 10.8929C20.3971 10.8929 20.2545 10.9824 20.151 11.1614C20.0474 11.3404 19.9952 11.5979 19.9943 11.9339C19.9943 12.1585 20.0176 12.3485 20.0641 12.5038C20.1115 12.6582 20.1786 12.7753 20.2655 12.8552C20.3523 12.9341 20.4567 12.9736 20.5787 12.9736Z" fill="#86909C"/>
<path d="M25.4795 11.913H158" stroke="#E5E6EB" stroke-width="0.463263" stroke-dasharray="1.85 1.85"/>
<path d="M4.28057 26.5293L5.45716 24.2025V24.1827H4.09632V23.8339H5.87831V24.1946L4.70567 26.5293H4.28057ZM6.13725 26.5543C6.0653 26.5543 6.00344 26.5289 5.95168 26.478C5.89991 26.4262 5.87403 26.3639 5.87403 26.2911C5.87403 26.2191 5.89991 26.1577 5.95168 26.1068C6.00344 26.0551 6.0653 26.0292 6.13725 26.0292C6.20919 26.0292 6.27105 26.0551 6.32281 26.1068C6.37458 26.1577 6.40046 26.2191 6.40046 26.2911C6.40046 26.3393 6.38818 26.3836 6.36361 26.424C6.33992 26.4635 6.30834 26.4951 6.26885 26.5188C6.22937 26.5425 6.1855 26.5543 6.13725 26.5543ZM7.76294 26.574C7.555 26.5732 7.37733 26.5183 7.22993 26.4095C7.08253 26.3007 6.96978 26.1424 6.89169 25.9344C6.81361 25.7265 6.77456 25.476 6.77456 25.1829C6.77456 24.8908 6.81361 24.6411 6.89169 24.4341C6.97066 24.227 7.08384 24.0691 7.23124 23.9603C7.37952 23.8515 7.55676 23.7971 7.76294 23.7971C7.96913 23.7971 8.14593 23.8519 8.29333 23.9616C8.44073 24.0704 8.55347 24.2283 8.63156 24.4354C8.71053 24.6416 8.75001 24.8908 8.75001 25.1829C8.75001 25.4769 8.71097 25.7278 8.63288 25.9357C8.55479 26.1428 8.44205 26.3012 8.29464 26.4108C8.14724 26.5196 7.97001 26.574 7.76294 26.574ZM7.76294 26.2226C7.94544 26.2226 8.08802 26.1336 8.19067 25.9555C8.29421 25.7774 8.34597 25.5199 8.34597 25.1829C8.34597 24.9592 8.32228 24.7701 8.2749 24.6157C8.2284 24.4604 8.16128 24.3428 8.07354 24.263C7.98668 24.1823 7.88315 24.1419 7.76294 24.1419C7.58132 24.1419 7.43875 24.2314 7.33522 24.4104C7.23168 24.5894 7.17948 24.8469 7.1786 25.1829C7.1786 25.4076 7.20185 25.5975 7.24835 25.7528C7.29573 25.9072 7.36285 26.0244 7.44972 26.1042C7.53658 26.1832 7.64099 26.2226 7.76294 26.2226ZM10.1553 26.574C9.94732 26.5732 9.76965 26.5183 9.62225 26.4095C9.47485 26.3007 9.3621 26.1424 9.28401 25.9344C9.20593 25.7265 9.16688 25.476 9.16688 25.1829C9.16688 24.8908 9.20593 24.6411 9.28401 24.4341C9.36298 24.227 9.47616 24.0691 9.62356 23.9603C9.77184 23.8515 9.94908 23.7971 10.1553 23.7971C10.3615 23.7971 10.5382 23.8519 10.6856 23.9616C10.833 24.0704 10.9458 24.2283 11.0239 24.4354C11.1028 24.6416 11.1423 24.8908 11.1423 25.1829C11.1423 25.4769 11.1033 25.7278 11.0252 25.9357C10.9471 26.1428 10.8344 26.3012 10.687 26.4108C10.5396 26.5196 10.3623 26.574 10.1553 26.574ZM10.1553 26.2226C10.3378 26.2226 10.4803 26.1336 10.583 25.9555C10.6865 25.7774 10.7383 25.5199 10.7383 25.1829C10.7383 24.9592 10.7146 24.7701 10.6672 24.6157C10.6207 24.4604 10.5536 24.3428 10.4659 24.263C10.379 24.1823 10.2755 24.1419 10.1553 24.1419C9.97364 24.1419 9.83107 24.2314 9.72754 24.4104C9.624 24.5894 9.5718 24.8469 9.57092 25.1829C9.57092 25.4076 9.59417 25.5975 9.64067 25.7528C9.68805 25.9072 9.75517 26.0244 9.84203 26.1042C9.9289 26.1832 10.0333 26.2226 10.1553 26.2226ZM12.5476 26.574C12.3396 26.5732 12.162 26.5183 12.0146 26.4095C11.8672 26.3007 11.7544 26.1424 11.6763 25.9344C11.5982 25.7265 11.5592 25.476 11.5592 25.1829C11.5592 24.8908 11.5982 24.6411 11.6763 24.4341C11.7553 24.227 11.8685 24.0691 12.0159 23.9603C12.1642 23.8515 12.3414 23.7971 12.5476 23.7971C12.7538 23.7971 12.9306 23.8519 13.078 23.9616C13.2254 24.0704 13.3381 24.2283 13.4162 24.4354C13.4952 24.6416 13.5347 24.8908 13.5347 25.1829C13.5347 25.4769 13.4956 25.7278 13.4175 25.9357C13.3394 26.1428 13.2267 26.3012 13.0793 26.4108C12.9319 26.5196 12.7546 26.574 12.5476 26.574ZM12.5476 26.2226C12.7301 26.2226 12.8727 26.1336 12.9753 25.9555C13.0788 25.7774 13.1306 25.5199 13.1306 25.1829C13.1306 24.9592 13.1069 24.7701 13.0595 24.6157C13.013 24.4604 12.9459 24.3428 12.8582 24.263C12.7713 24.1823 12.6678 24.1419 12.5476 24.1419C12.366 24.1419 12.2234 24.2314 12.1199 24.4104C12.0163 24.5894 11.9641 24.8469 11.9632 25.1829C11.9632 25.4076 11.9865 25.5975 12.033 25.7528C12.0804 25.9072 12.1475 26.0244 12.2344 26.1042C12.3212 26.1832 12.4256 26.2226 12.5476 26.2226ZM14.1683 26.5543C14.0964 26.5543 14.0345 26.5289 13.9828 26.478C13.931 26.4262 13.9051 26.3639 13.9051 26.2911C13.9051 26.2191 13.931 26.1577 13.9828 26.1068C14.0345 26.0551 14.0964 26.0292 14.1683 26.0292C14.2403 26.0292 14.3021 26.0551 14.3539 26.1068C14.4057 26.1577 14.4316 26.2191 14.4316 26.2911C14.4316 26.3393 14.4193 26.3836 14.3947 26.424C14.371 26.4635 14.3394 26.4951 14.3 26.5188C14.2605 26.5425 14.2166 26.5543 14.1683 26.5543ZM15.794 26.574C15.5861 26.5732 15.4084 26.5183 15.261 26.4095C15.1136 26.3007 15.0009 26.1424 14.9228 25.9344C14.8447 25.7265 14.8057 25.476 14.8057 25.1829C14.8057 24.8908 14.8447 24.6411 14.9228 24.4341C15.0018 24.227 15.1149 24.0691 15.2623 23.9603C15.4106 23.8515 15.5879 23.7971 15.794 23.7971C16.0002 23.7971 16.177 23.8519 16.3244 23.9616C16.4718 24.0704 16.5846 24.2283 16.6627 24.4354C16.7416 24.6416 16.7811 24.8908 16.7811 25.1829C16.7811 25.4769 16.7421 25.7278 16.664 25.9357C16.5859 26.1428 16.4731 26.3012 16.3257 26.4108C16.1783 26.5196 16.0011 26.574 15.794 26.574ZM15.794 26.2226C15.9765 26.2226 16.1191 26.1336 16.2218 25.9555C16.3253 25.7774 16.3771 25.5199 16.3771 25.1829C16.3771 24.9592 16.3534 24.7701 16.306 24.6157C16.2595 24.4604 16.1924 24.3428 16.1046 24.263C16.0178 24.1823 15.9142 24.1419 15.794 24.1419C15.6124 24.1419 15.4698 24.2314 15.3663 24.4104C15.2628 24.5894 15.2106 24.8469 15.2097 25.1829C15.2097 25.4076 15.233 25.5975 15.2795 25.7528C15.3268 25.9072 15.394 26.0244 15.4808 26.1042C15.5677 26.1832 15.6721 26.2226 15.794 26.2226ZM18.1864 26.574C17.9784 26.5732 17.8008 26.5183 17.6533 26.4095C17.5059 26.3007 17.3932 26.1424 17.3151 25.9344C17.237 25.7265 17.198 25.476 17.198 25.1829C17.198 24.8908 17.237 24.6411 17.3151 24.4341C17.3941 24.227 17.5073 24.0691 17.6547 23.9603C17.8029 23.8515 17.9802 23.7971 18.1864 23.7971C18.3926 23.7971 18.5693 23.8519 18.7167 23.9616C18.8641 24.0704 18.9769 24.2283 19.055 24.4354C19.1339 24.6416 19.1734 24.8908 19.1734 25.1829C19.1734 25.4769 19.1344 25.7278 19.0563 25.9357C18.9782 26.1428 18.8655 26.3012 18.7181 26.4108C18.5707 26.5196 18.3934 26.574 18.1864 26.574ZM18.1864 26.2226C18.3689 26.2226 18.5114 26.1336 18.6141 25.9555C18.7176 25.7774 18.7694 25.5199 18.7694 25.1829C18.7694 24.9592 18.7457 24.7701 18.6983 24.6157C18.6518 24.4604 18.5847 24.3428 18.497 24.263C18.4101 24.1823 18.3066 24.1419 18.1864 24.1419C18.0047 24.1419 17.8622 24.2314 17.7586 24.4104C17.6551 24.5894 17.6029 24.8469 17.602 25.1829C17.602 25.4076 17.6253 25.5975 17.6718 25.7528C17.7192 25.9072 17.7863 26.0244 17.8731 26.1042C17.96 26.1832 18.0644 26.2226 18.1864 26.2226ZM20.5787 26.574C20.3707 26.5732 20.1931 26.5183 20.0457 26.4095C19.8983 26.3007 19.7855 26.1424 19.7074 25.9344C19.6293 25.7265 19.5903 25.476 19.5903 25.1829C19.5903 24.8908 19.6293 24.6411 19.7074 24.4341C19.7864 24.227 19.8996 24.0691 20.047 23.9603C20.1953 23.8515 20.3725 23.7971 20.5787 23.7971C20.7849 23.7971 20.9617 23.8519 21.1091 23.9616C21.2565 24.0704 21.3692 24.2283 21.4473 24.4354C21.5263 24.6416 21.5658 24.8908 21.5658 25.1829C21.5658 25.4769 21.5267 25.7278 21.4486 25.9357C21.3705 26.1428 21.2578 26.3012 21.1104 26.4108C20.963 26.5196 20.7857 26.574 20.5787 26.574ZM20.5787 26.2226C20.7612 26.2226 20.9038 26.1336 21.0064 25.9555C21.1099 25.7774 21.1617 25.5199 21.1617 25.1829C21.1617 24.9592 21.138 24.7701 21.0906 24.6157C21.0441 24.4604 20.977 24.3428 20.8893 24.263C20.8024 24.1823 20.6989 24.1419 20.5787 24.1419C20.3971 24.1419 20.2545 24.2314 20.151 24.4104C20.0474 24.5894 19.9952 24.8469 19.9943 25.1829C19.9943 25.4076 20.0176 25.5975 20.0641 25.7528C20.1115 25.9072 20.1786 26.0244 20.2655 26.1042C20.3523 26.1832 20.4567 26.2226 20.5787 26.2226Z" fill="#86909C"/>
<path d="M25.4795 25.162H158" stroke="#E5E6EB" stroke-width="0.463263" stroke-dasharray="1.85 1.85"/>
<path d="M4.56189 39.816C4.39694 39.816 4.24866 39.7844 4.11705 39.7213C3.98632 39.6572 3.88191 39.5695 3.80382 39.458C3.72573 39.3466 3.68406 39.2194 3.67879 39.0764H4.07362C4.08327 39.1922 4.1346 39.2874 4.2276 39.362C4.32061 39.4366 4.43203 39.4738 4.56189 39.4738C4.66542 39.4738 4.75711 39.4502 4.83695 39.4028C4.91767 39.3545 4.98084 39.2883 5.02647 39.204C5.07297 39.1198 5.09622 39.0237 5.09622 38.9158C5.09622 38.8061 5.07253 38.7083 5.02515 38.6223C4.97777 38.5363 4.91241 38.4688 4.82905 38.4197C4.74658 38.3705 4.65182 38.3455 4.54478 38.3446C4.46318 38.3446 4.38115 38.3587 4.29867 38.3868C4.2162 38.4148 4.14951 38.4517 4.09862 38.4973L3.72617 38.442L3.87752 37.0838H5.35944V37.4326H4.21576L4.13021 38.1867H4.146C4.19865 38.1358 4.2684 38.0933 4.35526 38.059C4.443 38.0248 4.53688 38.0077 4.63691 38.0077C4.80098 38.0077 4.94706 38.0468 5.07516 38.1249C5.20414 38.2029 5.30548 38.3095 5.37918 38.4447C5.45376 38.5789 5.49061 38.7333 5.48973 38.9079C5.49061 39.0825 5.45113 39.2383 5.37128 39.3751C5.29232 39.512 5.18264 39.6199 5.04226 39.6989C4.90276 39.777 4.74263 39.816 4.56189 39.816ZM6.13725 39.8042C6.0653 39.8042 6.00344 39.7787 5.95168 39.7278C5.89991 39.6761 5.87403 39.6138 5.87403 39.541C5.87403 39.469 5.89991 39.4076 5.95168 39.3567C6.00344 39.3049 6.0653 39.2791 6.13725 39.2791C6.20919 39.2791 6.27105 39.3049 6.32281 39.3567C6.37458 39.4076 6.40046 39.469 6.40046 39.541C6.40046 39.5892 6.38818 39.6335 6.36361 39.6739C6.33992 39.7134 6.30834 39.745 6.26885 39.7686C6.22937 39.7923 6.1855 39.8042 6.13725 39.8042ZM7.76294 39.8239C7.555 39.823 7.37733 39.7682 7.22993 39.6594C7.08253 39.5506 6.96978 39.3922 6.89169 39.1843C6.81361 38.9764 6.77456 38.7259 6.77456 38.4328C6.77456 38.1406 6.81361 37.891 6.89169 37.684C6.97066 37.4769 7.08384 37.319 7.23124 37.2102C7.37952 37.1014 7.55676 37.047 7.76294 37.047C7.96913 37.047 8.14593 37.1018 8.29333 37.2115C8.44073 37.3203 8.55347 37.4782 8.63156 37.6853C8.71053 37.8915 8.75001 38.1406 8.75001 38.4328C8.75001 38.7267 8.71097 38.9777 8.63288 39.1856C8.55479 39.3927 8.44205 39.5511 8.29464 39.6607C8.14724 39.7695 7.97001 39.8239 7.76294 39.8239ZM7.76294 39.4725C7.94544 39.4725 8.08802 39.3835 8.19067 39.2054C8.29421 39.0272 8.34597 38.7697 8.34597 38.4328C8.34597 38.2091 8.32228 38.02 8.2749 37.8656C8.2284 37.7103 8.16128 37.5927 8.07354 37.5129C7.98668 37.4322 7.88315 37.3918 7.76294 37.3918C7.58132 37.3918 7.43875 37.4813 7.33522 37.6603C7.23168 37.8393 7.17948 38.0968 7.1786 38.4328C7.1786 38.6574 7.20185 38.8474 7.24835 39.0027C7.29573 39.1571 7.36285 39.2742 7.44972 39.3541C7.53658 39.433 7.64099 39.4725 7.76294 39.4725ZM10.1553 39.8239C9.94732 39.823 9.76965 39.7682 9.62225 39.6594C9.47485 39.5506 9.3621 39.3922 9.28401 39.1843C9.20593 38.9764 9.16688 38.7259 9.16688 38.4328C9.16688 38.1406 9.20593 37.891 9.28401 37.684C9.36298 37.4769 9.47616 37.319 9.62357 37.2102C9.77184 37.1014 9.94908 37.047 10.1553 37.047C10.3615 37.047 10.5382 37.1018 10.6856 37.2115C10.8331 37.3203 10.9458 37.4782 11.0239 37.6853C11.1028 37.8915 11.1423 38.1406 11.1423 38.4328C11.1423 38.7267 11.1033 38.9777 11.0252 39.1856C10.9471 39.3927 10.8344 39.5511 10.687 39.6607C10.5396 39.7695 10.3623 39.8239 10.1553 39.8239ZM10.1553 39.4725C10.3378 39.4725 10.4803 39.3835 10.583 39.2054C10.6865 39.0272 10.7383 38.7697 10.7383 38.4328C10.7383 38.2091 10.7146 38.02 10.6672 37.8656C10.6207 37.7103 10.5536 37.5927 10.4659 37.5129C10.379 37.4322 10.2755 37.3918 10.1553 37.3918C9.97364 37.3918 9.83107 37.4813 9.72754 37.6603C9.624 37.8393 9.5718 38.0968 9.57092 38.4328C9.57092 38.6574 9.59417 38.8474 9.64067 39.0027C9.68805 39.1571 9.75517 39.2742 9.84204 39.3541C9.9289 39.433 10.0333 39.4725 10.1553 39.4725ZM12.5476 39.8239C12.3396 39.823 12.162 39.7682 12.0146 39.6594C11.8672 39.5506 11.7544 39.3922 11.6763 39.1843C11.5982 38.9764 11.5592 38.7259 11.5592 38.4328C11.5592 38.1406 11.5982 37.891 11.6763 37.684C11.7553 37.4769 11.8685 37.319 12.0159 37.2102C12.1642 37.1014 12.3414 37.047 12.5476 37.047C12.7538 37.047 12.9306 37.1018 13.078 37.2115C13.2254 37.3203 13.3381 37.4782 13.4162 37.6853C13.4952 37.8915 13.5347 38.1406 13.5347 38.4328C13.5347 38.7267 13.4956 38.9777 13.4175 39.1856C13.3394 39.3927 13.2267 39.5511 13.0793 39.6607C12.9319 39.7695 12.7546 39.8239 12.5476 39.8239ZM12.5476 39.4725C12.7301 39.4725 12.8727 39.3835 12.9753 39.2054C13.0788 39.0272 13.1306 38.7697 13.1306 38.4328C13.1306 38.2091 13.1069 38.02 13.0595 37.8656C13.013 37.7103 12.9459 37.5927 12.8582 37.5129C12.7713 37.4322 12.6678 37.3918 12.5476 37.3918C12.366 37.3918 12.2234 37.4813 12.1199 37.6603C12.0163 37.8393 11.9641 38.0968 11.9632 38.4328C11.9632 38.6574 11.9865 38.8474 12.033 39.0027C12.0804 39.1571 12.1475 39.2742 12.2344 39.3541C12.3212 39.433 12.4256 39.4725 12.5476 39.4725ZM14.1683 39.8042C14.0964 39.8042 14.0345 39.7787 13.9828 39.7278C13.931 39.6761 13.9051 39.6138 13.9051 39.541C13.9051 39.469 13.931 39.4076 13.9828 39.3567C14.0345 39.3049 14.0964 39.2791 14.1683 39.2791C14.2403 39.2791 14.3021 39.3049 14.3539 39.3567C14.4057 39.4076 14.4316 39.469 14.4316 39.541C14.4316 39.5892 14.4193 39.6335 14.3947 39.6739C14.371 39.7134 14.3394 39.745 14.3 39.7686C14.2605 39.7923 14.2166 39.8042 14.1683 39.8042ZM15.794 39.8239C15.5861 39.823 15.4084 39.7682 15.261 39.6594C15.1136 39.5506 15.0009 39.3922 14.9228 39.1843C14.8447 38.9764 14.8057 38.7259 14.8057 38.4328C14.8057 38.1406 14.8447 37.891 14.9228 37.684C15.0018 37.4769 15.1149 37.319 15.2623 37.2102C15.4106 37.1014 15.5879 37.047 15.794 37.047C16.0002 37.047 16.177 37.1018 16.3244 37.2115C16.4718 37.3203 16.5846 37.4782 16.6627 37.6853C16.7416 37.8915 16.7811 38.1406 16.7811 38.4328C16.7811 38.7267 16.7421 38.9777 16.664 39.1856C16.5859 39.3927 16.4731 39.5511 16.3257 39.6607C16.1783 39.7695 16.0011 39.8239 15.794 39.8239ZM15.794 39.4725C15.9765 39.4725 16.1191 39.3835 16.2218 39.2054C16.3253 39.0272 16.3771 38.7697 16.3771 38.4328C16.3771 38.2091 16.3534 38.02 16.306 37.8656C16.2595 37.7103 16.1924 37.5927 16.1046 37.5129C16.0178 37.4322 15.9142 37.3918 15.794 37.3918C15.6124 37.3918 15.4698 37.4813 15.3663 37.6603C15.2628 37.8393 15.2106 38.0968 15.2097 38.4328C15.2097 38.6574 15.233 38.8474 15.2795 39.0027C15.3268 39.1571 15.394 39.2742 15.4808 39.3541C15.5677 39.433 15.6721 39.4725 15.794 39.4725ZM18.1864 39.8239C17.9784 39.823 17.8008 39.7682 17.6533 39.6594C17.5059 39.5506 17.3932 39.3922 17.3151 39.1843C17.237 38.9764 17.198 38.7259 17.198 38.4328C17.198 38.1406 17.237 37.891 17.3151 37.684C17.3941 37.4769 17.5073 37.319 17.6547 37.2102C17.8029 37.1014 17.9802 37.047 18.1864 37.047C18.3926 37.047 18.5693 37.1018 18.7167 37.2115C18.8641 37.3203 18.9769 37.4782 19.055 37.6853C19.1339 37.8915 19.1734 38.1406 19.1734 38.4328C19.1734 38.7267 19.1344 38.9777 19.0563 39.1856C18.9782 39.3927 18.8655 39.5511 18.7181 39.6607C18.5707 39.7695 18.3934 39.8239 18.1864 39.8239ZM18.1864 39.4725C18.3689 39.4725 18.5114 39.3835 18.6141 39.2054C18.7176 39.0272 18.7694 38.7697 18.7694 38.4328C18.7694 38.2091 18.7457 38.02 18.6983 37.8656C18.6518 37.7103 18.5847 37.5927 18.497 37.5129C18.4101 37.4322 18.3066 37.3918 18.1864 37.3918C18.0047 37.3918 17.8622 37.4813 17.7586 37.6603C17.6551 37.8393 17.6029 38.0968 17.602 38.4328C17.602 38.6574 17.6253 38.8474 17.6718 39.0027C17.7192 39.1571 17.7863 39.2742 17.8731 39.3541C17.96 39.433 18.0644 39.4725 18.1864 39.4725ZM20.5787 39.8239C20.3707 39.823 20.1931 39.7682 20.0457 39.6594C19.8983 39.5506 19.7855 39.3922 19.7074 39.1843C19.6293 38.9764 19.5903 38.7259 19.5903 38.4328C19.5903 38.1406 19.6293 37.891 19.7074 37.684C19.7864 37.4769 19.8996 37.319 20.047 37.2102C20.1953 37.1014 20.3725 37.047 20.5787 37.047C20.7849 37.047 20.9617 37.1018 21.1091 37.2115C21.2565 37.3203 21.3692 37.4782 21.4473 37.6853C21.5263 37.8915 21.5658 38.1406 21.5658 38.4328C21.5658 38.7267 21.5267 38.9777 21.4486 39.1856C21.3705 39.3927 21.2578 39.5511 21.1104 39.6607C20.963 39.7695 20.7857 39.8239 20.5787 39.8239ZM20.5787 39.4725C20.7612 39.4725 20.9038 39.3835 21.0064 39.2054C21.1099 39.0272 21.1617 38.7697 21.1617 38.4328C21.1617 38.2091 21.138 38.02 21.0906 37.8656C21.0441 37.7103 20.977 37.5927 20.8893 37.5129C20.8024 37.4322 20.6989 37.3918 20.5787 37.3918C20.3971 37.3918 20.2545 37.4813 20.151 37.6603C20.0474 37.8393 19.9952 38.0968 19.9943 38.4328C19.9943 38.6574 20.0176 38.8474 20.0641 39.0027C20.1115 39.1571 20.1786 39.2742 20.2655 39.3541C20.3523 39.433 20.4567 39.4725 20.5787 39.4725Z" fill="#86909C"/>
<path d="M25.4795 38.412H158" stroke="#E5E6EB" stroke-width="0.463263" stroke-dasharray="1.85 1.85"/>
<path d="M4.50201 52.6974C4.32126 52.6974 4.15982 52.6662 4.01769 52.6039C3.87642 52.5416 3.76456 52.4552 3.68208 52.3447C3.60049 52.2332 3.55662 52.1043 3.55047 51.9577H3.96373C3.96899 52.0376 3.99575 52.1069 4.04401 52.1657C4.09314 52.2236 4.15719 52.2683 4.23616 52.2999C4.31512 52.3315 4.40286 52.3473 4.49937 52.3473C4.60554 52.3473 4.69942 52.3289 4.78102 52.292C4.86349 52.2552 4.92798 52.2038 4.97448 52.138C5.02098 52.0714 5.04423 51.9946 5.04423 51.9077C5.04423 51.8173 5.02098 51.7379 4.97448 51.6695C4.92886 51.6002 4.86174 51.5458 4.77312 51.5063C4.68538 51.4668 4.57922 51.4471 4.45463 51.4471H4.22694V51.1154H4.45463C4.55465 51.1154 4.64239 51.0974 4.71784 51.0615C4.79418 51.0255 4.85384 50.9755 4.89683 50.9114C4.93982 50.8465 4.96132 50.7706 4.96132 50.6838C4.96132 50.6004 4.94246 50.528 4.90473 50.4666C4.86788 50.4043 4.81523 50.3556 4.7468 50.3205C4.67924 50.2854 4.5994 50.2679 4.50727 50.2679C4.41953 50.2679 4.33749 50.2841 4.26116 50.3166C4.18571 50.3482 4.12429 50.3938 4.07691 50.4534C4.02953 50.5122 4.00409 50.5829 4.00058 50.6653H3.60707C3.61145 50.5197 3.65444 50.3916 3.73604 50.281C3.81852 50.1705 3.92731 50.0841 4.06243 50.0218C4.19755 49.9595 4.34758 49.9283 4.51253 49.9283C4.68538 49.9283 4.83454 49.9621 4.96 50.0297C5.08635 50.0963 5.18374 50.1854 5.25218 50.2968C5.32149 50.4083 5.35571 50.5302 5.35483 50.6627C5.35571 50.8136 5.31359 50.9417 5.22849 51.047C5.14426 51.1523 5.03195 51.2229 4.89157 51.2589V51.2799C5.07056 51.3071 5.20918 51.3782 5.30745 51.4932C5.4066 51.6081 5.45573 51.7507 5.45485 51.9209C5.45573 52.0692 5.41449 52.2021 5.33114 52.3197C5.24867 52.4372 5.13592 52.5298 4.99291 52.5974C4.84989 52.664 4.68626 52.6974 4.50201 52.6974ZM6.13725 52.6855C6.0653 52.6855 6.00344 52.6601 5.95168 52.6092C5.89991 52.5574 5.87403 52.4951 5.87403 52.4223C5.87403 52.3504 5.89991 52.2889 5.95168 52.2381C6.00344 52.1863 6.0653 52.1604 6.13725 52.1604C6.20919 52.1604 6.27105 52.1863 6.32281 52.2381C6.37458 52.2889 6.40046 52.3504 6.40046 52.4223C6.40046 52.4706 6.38818 52.5149 6.36361 52.5552C6.33992 52.5947 6.30834 52.6263 6.26885 52.65C6.22937 52.6737 6.1855 52.6855 6.13725 52.6855ZM7.76294 52.7053C7.555 52.7044 7.37733 52.6496 7.22993 52.5408C7.08253 52.432 6.96978 52.2736 6.89169 52.0657C6.81361 51.8577 6.77456 51.6072 6.77456 51.3142C6.77456 51.022 6.81361 50.7724 6.89169 50.5653C6.97066 50.3582 7.08384 50.2003 7.23124 50.0915C7.37952 49.9827 7.55676 49.9283 7.76294 49.9283C7.96913 49.9283 8.14593 49.9832 8.29333 50.0928C8.44073 50.2016 8.55347 50.3596 8.63156 50.5666C8.71053 50.7728 8.75001 51.022 8.75001 51.3142C8.75001 51.6081 8.71097 51.859 8.63288 52.067C8.55479 52.274 8.44205 52.4324 8.29464 52.5421C8.14724 52.6509 7.97001 52.7053 7.76294 52.7053ZM7.76294 52.3539C7.94544 52.3539 8.08802 52.2648 8.19067 52.0867C8.2942 51.9086 8.34597 51.6511 8.34597 51.3142C8.34597 51.0904 8.32228 50.9014 8.2749 50.7469C8.2284 50.5916 8.16128 50.4741 8.07354 50.3942C7.98668 50.3135 7.88315 50.2731 7.76294 50.2731C7.58132 50.2731 7.43875 50.3626 7.33522 50.5416C7.23168 50.7206 7.17948 50.9781 7.1786 51.3142C7.1786 51.5388 7.20185 51.7287 7.24835 51.884C7.29573 52.0385 7.36285 52.1556 7.44971 52.2354C7.53658 52.3144 7.64099 52.3539 7.76294 52.3539ZM10.1553 52.7053C9.94732 52.7044 9.76965 52.6496 9.62225 52.5408C9.47485 52.432 9.3621 52.2736 9.28401 52.0657C9.20593 51.8577 9.16688 51.6072 9.16688 51.3142C9.16688 51.022 9.20593 50.7724 9.28401 50.5653C9.36298 50.3582 9.47616 50.2003 9.62356 50.0915C9.77184 49.9827 9.94908 49.9283 10.1553 49.9283C10.3615 49.9283 10.5382 49.9832 10.6856 50.0928C10.833 50.2016 10.9458 50.3596 11.0239 50.5666C11.1028 50.7728 11.1423 51.022 11.1423 51.3142C11.1423 51.6081 11.1033 51.859 11.0252 52.067C10.9471 52.274 10.8344 52.4324 10.687 52.5421C10.5396 52.6509 10.3623 52.7053 10.1553 52.7053ZM10.1553 52.3539C10.3378 52.3539 10.4803 52.2648 10.583 52.0867C10.6865 51.9086 10.7383 51.6511 10.7383 51.3142C10.7383 51.0904 10.7146 50.9014 10.6672 50.7469C10.6207 50.5916 10.5536 50.4741 10.4659 50.3942C10.379 50.3135 10.2755 50.2731 10.1553 50.2731C9.97364 50.2731 9.83107 50.3626 9.72754 50.5416C9.624 50.7206 9.5718 50.9781 9.57092 51.3142C9.57092 51.5388 9.59417 51.7287 9.64067 51.884C9.68805 52.0385 9.75517 52.1556 9.84203 52.2354C9.9289 52.3144 10.0333 52.3539 10.1553 52.3539ZM12.5476 52.7053C12.3396 52.7044 12.162 52.6496 12.0146 52.5408C11.8672 52.432 11.7544 52.2736 11.6763 52.0657C11.5982 51.8577 11.5592 51.6072 11.5592 51.3142C11.5592 51.022 11.5982 50.7724 11.6763 50.5653C11.7553 50.3582 11.8685 50.2003 12.0159 50.0915C12.1642 49.9827 12.3414 49.9283 12.5476 49.9283C12.7538 49.9283 12.9306 49.9832 13.078 50.0928C13.2254 50.2016 13.3381 50.3596 13.4162 50.5666C13.4952 50.7728 13.5347 51.022 13.5347 51.3142C13.5347 51.6081 13.4956 51.859 13.4175 52.067C13.3394 52.274 13.2267 52.4324 13.0793 52.5421C12.9319 52.6509 12.7546 52.7053 12.5476 52.7053ZM12.5476 52.3539C12.7301 52.3539 12.8727 52.2648 12.9753 52.0867C13.0788 51.9086 13.1306 51.6511 13.1306 51.3142C13.1306 51.0904 13.1069 50.9014 13.0595 50.7469C13.013 50.5916 12.9459 50.4741 12.8582 50.3942C12.7713 50.3135 12.6678 50.2731 12.5476 50.2731C12.366 50.2731 12.2234 50.3626 12.1199 50.5416C12.0163 50.7206 11.9641 50.9781 11.9632 51.3142C11.9632 51.5388 11.9865 51.7287 12.033 51.884C12.0804 52.0385 12.1475 52.1556 12.2344 52.2354C12.3212 52.3144 12.4256 52.3539 12.5476 52.3539ZM14.1683 52.6855C14.0964 52.6855 14.0345 52.6601 13.9828 52.6092C13.931 52.5574 13.9051 52.4951 13.9051 52.4223C13.9051 52.3504 13.931 52.2889 13.9828 52.2381C14.0345 52.1863 14.0964 52.1604 14.1683 52.1604C14.2403 52.1604 14.3021 52.1863 14.3539 52.2381C14.4057 52.2889 14.4316 52.3504 14.4316 52.4223C14.4316 52.4706 14.4193 52.5149 14.3947 52.5552C14.371 52.5947 14.3394 52.6263 14.3 52.65C14.2605 52.6737 14.2166 52.6855 14.1683 52.6855ZM15.794 52.7053C15.5861 52.7044 15.4084 52.6496 15.261 52.5408C15.1136 52.432 15.0009 52.2736 14.9228 52.0657C14.8447 51.8577 14.8057 51.6072 14.8057 51.3142C14.8057 51.022 14.8447 50.7724 14.9228 50.5653C15.0018 50.3582 15.1149 50.2003 15.2623 50.0915C15.4106 49.9827 15.5879 49.9283 15.794 49.9283C16.0002 49.9283 16.177 49.9832 16.3244 50.0928C16.4718 50.2016 16.5846 50.3596 16.6627 50.5666C16.7416 50.7728 16.7811 51.022 16.7811 51.3142C16.7811 51.6081 16.7421 51.859 16.664 52.067C16.5859 52.274 16.4731 52.4324 16.3257 52.5421C16.1783 52.6509 16.0011 52.7053 15.794 52.7053ZM15.794 52.3539C15.9765 52.3539 16.1191 52.2648 16.2218 52.0867C16.3253 51.9086 16.3771 51.6511 16.3771 51.3142C16.3771 51.0904 16.3534 50.9014 16.306 50.7469C16.2595 50.5916 16.1924 50.4741 16.1046 50.3942C16.0178 50.3135 15.9142 50.2731 15.794 50.2731C15.6124 50.2731 15.4698 50.3626 15.3663 50.5416C15.2628 50.7206 15.2106 50.9781 15.2097 51.3142C15.2097 51.5388 15.233 51.7287 15.2795 51.884C15.3268 52.0385 15.394 52.1556 15.4808 52.2354C15.5677 52.3144 15.6721 52.3539 15.794 52.3539ZM18.1864 52.7053C17.9784 52.7044 17.8008 52.6496 17.6533 52.5408C17.5059 52.432 17.3932 52.2736 17.3151 52.0657C17.237 51.8577 17.198 51.6072 17.198 51.3142C17.198 51.022 17.237 50.7724 17.3151 50.5653C17.3941 50.3582 17.5073 50.2003 17.6547 50.0915C17.8029 49.9827 17.9802 49.9283 18.1864 49.9283C18.3926 49.9283 18.5693 49.9832 18.7167 50.0928C18.8641 50.2016 18.9769 50.3596 19.055 50.5666C19.1339 50.7728 19.1734 51.022 19.1734 51.3142C19.1734 51.6081 19.1344 51.859 19.0563 52.067C18.9782 52.274 18.8655 52.4324 18.7181 52.5421C18.5707 52.6509 18.3934 52.7053 18.1864 52.7053ZM18.1864 52.3539C18.3689 52.3539 18.5114 52.2648 18.6141 52.0867C18.7176 51.9086 18.7694 51.6511 18.7694 51.3142C18.7694 51.0904 18.7457 50.9014 18.6983 50.7469C18.6518 50.5916 18.5847 50.4741 18.497 50.3942C18.4101 50.3135 18.3066 50.2731 18.1864 50.2731C18.0047 50.2731 17.8622 50.3626 17.7586 50.5416C17.6551 50.7206 17.6029 50.9781 17.602 51.3142C17.602 51.5388 17.6253 51.7287 17.6718 51.884C17.7192 52.0385 17.7863 52.1556 17.8731 52.2354C17.96 52.3144 18.0644 52.3539 18.1864 52.3539ZM20.5787 52.7053C20.3707 52.7044 20.1931 52.6496 20.0457 52.5408C19.8983 52.432 19.7855 52.2736 19.7074 52.0657C19.6293 51.8577 19.5903 51.6072 19.5903 51.3142C19.5903 51.022 19.6293 50.7724 19.7074 50.5653C19.7864 50.3582 19.8996 50.2003 20.047 50.0915C20.1953 49.9827 20.3725 49.9283 20.5787 49.9283C20.7849 49.9283 20.9617 49.9832 21.1091 50.0928C21.2565 50.2016 21.3692 50.3596 21.4473 50.5666C21.5263 50.7728 21.5658 51.022 21.5658 51.3142C21.5658 51.6081 21.5267 51.859 21.4486 52.067C21.3705 52.274 21.2578 52.4324 21.1104 52.5421C20.963 52.6509 20.7857 52.7053 20.5787 52.7053ZM20.5787 52.3539C20.7612 52.3539 20.9038 52.2648 21.0064 52.0867C21.1099 51.9086 21.1617 51.6511 21.1617 51.3142C21.1617 51.0904 21.138 50.9014 21.0906 50.7469C21.0441 50.5916 20.977 50.4741 20.8893 50.3942C20.8024 50.3135 20.6989 50.2731 20.5787 50.2731C20.3971 50.2731 20.2545 50.3626 20.151 50.5416C20.0474 50.7206 19.9952 50.9781 19.9943 51.3142C19.9943 51.5388 20.0176 51.7287 20.0641 51.884C20.1115 52.0385 20.1786 52.1556 20.2655 52.2354C20.3523 52.3144 20.4567 52.3539 20.5787 52.3539Z" fill="#86909C"/>
<path d="M25.4795 51.6605H158" stroke="#E5E6EB" stroke-width="0.463263" stroke-dasharray="1.85 1.85"/>
<path d="M5.29923 63.2144V65.9098H4.89124V63.6224H4.87545L4.23056 64.0436V63.654L4.90308 63.2144H5.29923ZM6.13725 65.9348C6.0653 65.9348 6.00344 65.9094 5.95168 65.8585C5.89991 65.8067 5.87403 65.7444 5.87403 65.6716C5.87403 65.5996 5.89991 65.5382 5.95168 65.4873C6.00344 65.4356 6.0653 65.4097 6.13725 65.4097C6.20919 65.4097 6.27105 65.4356 6.32282 65.4873C6.37458 65.5382 6.40046 65.5996 6.40046 65.6716C6.40046 65.7198 6.38818 65.7641 6.36361 65.8045C6.33992 65.844 6.30834 65.8756 6.26886 65.8993C6.22937 65.923 6.1855 65.9348 6.13725 65.9348ZM7.76294 65.9545C7.555 65.9537 7.37733 65.8988 7.22993 65.79C7.08253 65.6812 6.96978 65.5229 6.89169 65.3149C6.81361 65.107 6.77456 64.8565 6.77456 64.5634C6.77456 64.2713 6.81361 64.0216 6.89169 63.8146C6.97066 63.6075 7.08384 63.4496 7.23125 63.3408C7.37952 63.232 7.55676 63.1776 7.76294 63.1776C7.96913 63.1776 8.14593 63.2324 8.29333 63.3421C8.44073 63.4509 8.55348 63.6088 8.63156 63.8159C8.71053 64.0221 8.75001 64.2713 8.75001 64.5634C8.75001 64.8574 8.71097 65.1083 8.63288 65.3162C8.55479 65.5233 8.44205 65.6817 8.29464 65.7913C8.14724 65.9001 7.97001 65.9545 7.76294 65.9545ZM7.76294 65.6031C7.94544 65.6031 8.08802 65.5141 8.19067 65.336C8.29421 65.1579 8.34597 64.9004 8.34597 64.5634C8.34597 64.3397 8.32228 64.1506 8.2749 63.9962C8.2284 63.8409 8.16128 63.7233 8.07354 63.6435C7.98668 63.5628 7.88315 63.5224 7.76294 63.5224C7.58132 63.5224 7.43875 63.6119 7.33522 63.7909C7.23168 63.9699 7.17948 64.2274 7.1786 64.5634C7.1786 64.788 7.20185 64.978 7.24835 65.1333C7.29573 65.2877 7.36285 65.4049 7.44972 65.4847C7.53658 65.5637 7.64099 65.6031 7.76294 65.6031ZM10.1553 65.9545C9.94732 65.9537 9.76965 65.8988 9.62225 65.79C9.47485 65.6812 9.3621 65.5229 9.28401 65.3149C9.20593 65.107 9.16688 64.8565 9.16688 64.5634C9.16688 64.2713 9.20593 64.0216 9.28401 63.8146C9.36298 63.6075 9.47616 63.4496 9.62357 63.3408C9.77184 63.232 9.94908 63.1776 10.1553 63.1776C10.3615 63.1776 10.5382 63.2324 10.6856 63.3421C10.8331 63.4509 10.9458 63.6088 11.0239 63.8159C11.1028 64.0221 11.1423 64.2713 11.1423 64.5634C11.1423 64.8574 11.1033 65.1083 11.0252 65.3162C10.9471 65.5233 10.8344 65.6817 10.687 65.7913C10.5396 65.9001 10.3623 65.9545 10.1553 65.9545ZM10.1553 65.6031C10.3378 65.6031 10.4803 65.5141 10.583 65.336C10.6865 65.1579 10.7383 64.9004 10.7383 64.5634C10.7383 64.3397 10.7146 64.1506 10.6672 63.9962C10.6207 63.8409 10.5536 63.7233 10.4659 63.6435C10.379 63.5628 10.2755 63.5224 10.1553 63.5224C9.97364 63.5224 9.83107 63.6119 9.72754 63.7909C9.624 63.9699 9.5718 64.2274 9.57092 64.5634C9.57092 64.788 9.59417 64.978 9.64067 65.1333C9.68805 65.2877 9.75517 65.4049 9.84204 65.4847C9.9289 65.5637 10.0333 65.6031 10.1553 65.6031ZM12.5476 65.9545C12.3396 65.9537 12.162 65.8988 12.0146 65.79C11.8672 65.6812 11.7544 65.5229 11.6763 65.3149C11.5982 65.107 11.5592 64.8565 11.5592 64.5634C11.5592 64.2713 11.5982 64.0216 11.6763 63.8146C11.7553 63.6075 11.8685 63.4496 12.0159 63.3408C12.1642 63.232 12.3414 63.1776 12.5476 63.1776C12.7538 63.1776 12.9306 63.2324 13.078 63.3421C13.2254 63.4509 13.3381 63.6088 13.4162 63.8159C13.4952 64.0221 13.5347 64.2713 13.5347 64.5634C13.5347 64.8574 13.4956 65.1083 13.4175 65.3162C13.3394 65.5233 13.2267 65.6817 13.0793 65.7913C12.9319 65.9001 12.7546 65.9545 12.5476 65.9545ZM12.5476 65.6031C12.7301 65.6031 12.8727 65.5141 12.9753 65.336C13.0788 65.1579 13.1306 64.9004 13.1306 64.5634C13.1306 64.3397 13.1069 64.1506 13.0595 63.9962C13.013 63.8409 12.9459 63.7233 12.8582 63.6435C12.7713 63.5628 12.6678 63.5224 12.5476 63.5224C12.366 63.5224 12.2234 63.6119 12.1199 63.7909C12.0163 63.9699 11.9641 64.2274 11.9632 64.5634C11.9632 64.788 11.9865 64.978 12.033 65.1333C12.0804 65.2877 12.1475 65.4049 12.2344 65.4847C12.3212 65.5637 12.4256 65.6031 12.5476 65.6031ZM14.1683 65.9348C14.0964 65.9348 14.0345 65.9094 13.9828 65.8585C13.931 65.8067 13.9051 65.7444 13.9051 65.6716C13.9051 65.5996 13.931 65.5382 13.9828 65.4873C14.0345 65.4356 14.0964 65.4097 14.1683 65.4097C14.2403 65.4097 14.3022 65.4356 14.3539 65.4873C14.4057 65.5382 14.4316 65.5996 14.4316 65.6716C14.4316 65.7198 14.4193 65.7641 14.3947 65.8045C14.371 65.844 14.3394 65.8756 14.3 65.8993C14.2605 65.923 14.2166 65.9348 14.1683 65.9348ZM15.794 65.9545C15.5861 65.9537 15.4084 65.8988 15.261 65.79C15.1136 65.6812 15.0009 65.5229 14.9228 65.3149C14.8447 65.107 14.8057 64.8565 14.8057 64.5634C14.8057 64.2713 14.8447 64.0216 14.9228 63.8146C15.0018 63.6075 15.1149 63.4496 15.2623 63.3408C15.4106 63.232 15.5879 63.1776 15.794 63.1776C16.0002 63.1776 16.177 63.2324 16.3244 63.3421C16.4718 63.4509 16.5846 63.6088 16.6627 63.8159C16.7416 64.0221 16.7811 64.2713 16.7811 64.5634C16.7811 64.8574 16.7421 65.1083 16.664 65.3162C16.5859 65.5233 16.4731 65.6817 16.3257 65.7913C16.1783 65.9001 16.0011 65.9545 15.794 65.9545ZM15.794 65.6031C15.9765 65.6031 16.1191 65.5141 16.2218 65.336C16.3253 65.1579 16.3771 64.9004 16.3771 64.5634C16.3771 64.3397 16.3534 64.1506 16.306 63.9962C16.2595 63.8409 16.1924 63.7233 16.1046 63.6435C16.0178 63.5628 15.9142 63.5224 15.794 63.5224C15.6124 63.5224 15.4698 63.6119 15.3663 63.7909C15.2628 63.9699 15.2106 64.2274 15.2097 64.5634C15.2097 64.788 15.233 64.978 15.2795 65.1333C15.3268 65.2877 15.394 65.4049 15.4808 65.4847C15.5677 65.5637 15.6721 65.6031 15.794 65.6031ZM18.1864 65.9545C17.9784 65.9537 17.8008 65.8988 17.6534 65.79C17.5059 65.6812 17.3932 65.5229 17.3151 65.3149C17.237 65.107 17.198 64.8565 17.198 64.5634C17.198 64.2713 17.237 64.0216 17.3151 63.8146C17.3941 63.6075 17.5073 63.4496 17.6547 63.3408C17.8029 63.232 17.9802 63.1776 18.1864 63.1776C18.3926 63.1776 18.5693 63.2324 18.7167 63.3421C18.8642 63.4509 18.9769 63.6088 19.055 63.8159C19.1339 64.0221 19.1734 64.2713 19.1734 64.5634C19.1734 64.8574 19.1344 65.1083 19.0563 65.3162C18.9782 65.5233 18.8655 65.6817 18.7181 65.7913C18.5707 65.9001 18.3934 65.9545 18.1864 65.9545ZM18.1864 65.6031C18.3689 65.6031 18.5114 65.5141 18.6141 65.336C18.7176 65.1579 18.7694 64.9004 18.7694 64.5634C18.7694 64.3397 18.7457 64.1506 18.6983 63.9962C18.6518 63.8409 18.5847 63.7233 18.497 63.6435C18.4101 63.5628 18.3066 63.5224 18.1864 63.5224C18.0047 63.5224 17.8622 63.6119 17.7586 63.7909C17.6551 63.9699 17.6029 64.2274 17.602 64.5634C17.602 64.788 17.6253 64.978 17.6718 65.1333C17.7192 65.2877 17.7863 65.4049 17.8731 65.4847C17.96 65.5637 18.0644 65.6031 18.1864 65.6031ZM20.5787 65.9545C20.3707 65.9537 20.1931 65.8988 20.0457 65.79C19.8983 65.6812 19.7855 65.5229 19.7074 65.3149C19.6293 65.107 19.5903 64.8565 19.5903 64.5634C19.5903 64.2713 19.6293 64.0216 19.7074 63.8146C19.7864 63.6075 19.8996 63.4496 20.047 63.3408C20.1953 63.232 20.3725 63.1776 20.5787 63.1776C20.7849 63.1776 20.9617 63.2324 21.1091 63.3421C21.2565 63.4509 21.3692 63.6088 21.4473 63.8159C21.5263 64.0221 21.5658 64.2713 21.5658 64.5634C21.5658 64.8574 21.5267 65.1083 21.4486 65.3162C21.3705 65.5233 21.2578 65.6817 21.1104 65.7913C20.963 65.9001 20.7858 65.9545 20.5787 65.9545ZM20.5787 65.6031C20.7612 65.6031 20.9038 65.5141 21.0064 65.336C21.1099 65.1579 21.1617 64.9004 21.1617 64.5634C21.1617 64.3397 21.138 64.1506 21.0906 63.9962C21.0441 63.8409 20.977 63.7233 20.8893 63.6435C20.8024 63.5628 20.6989 63.5224 20.5787 63.5224C20.3971 63.5224 20.2545 63.6119 20.151 63.7909C20.0474 63.9699 19.9952 64.2274 19.9943 64.5634C19.9943 64.788 20.0176 64.978 20.0641 65.1333C20.1115 65.2877 20.1786 65.4049 20.2655 65.4847C20.3523 65.5637 20.4567 65.6031 20.5787 65.6031Z" fill="#86909C"/>
<path d="M25.4795 64.9098H158" stroke="#E5E6EB" stroke-width="0.463263" stroke-dasharray="1.85 1.85"/>
<path d="M20.5787 79.2045C20.3707 79.2037 20.1931 79.1488 20.0457 79.04C19.8983 78.9312 19.7855 78.7729 19.7074 78.5649C19.6293 78.357 19.5903 78.1065 19.5903 77.8134C19.5903 77.5213 19.6293 77.2716 19.7074 77.0646C19.7864 76.8575 19.8996 76.6996 20.047 76.5908C20.1953 76.482 20.3725 76.4276 20.5787 76.4276C20.7849 76.4276 20.9617 76.4824 21.1091 76.5921C21.2565 76.7009 21.3692 76.8588 21.4473 77.0659C21.5263 77.2721 21.5658 77.5213 21.5658 77.8134C21.5658 78.1074 21.5267 78.3583 21.4486 78.5662C21.3705 78.7733 21.2578 78.9317 21.1104 79.0413C20.963 79.1501 20.7857 79.2045 20.5787 79.2045ZM20.5787 78.8531C20.7612 78.8531 20.9038 78.7641 21.0064 78.586C21.1099 78.4079 21.1617 78.1504 21.1617 77.8134C21.1617 77.5897 21.138 77.4006 21.0906 77.2462C21.0441 77.0909 20.977 76.9733 20.8893 76.8935C20.8024 76.8128 20.6989 76.7724 20.5787 76.7724C20.3971 76.7724 20.2545 76.8619 20.151 77.0409C20.0474 77.2199 19.9952 77.4774 19.9943 77.8134C19.9943 78.038 20.0176 78.228 20.0641 78.3833C20.1115 78.5377 20.1786 78.6549 20.2655 78.7347C20.3523 78.8137 20.4567 78.8531 20.5787 78.8531Z" fill="#86909C"/>
<path d="M25.4795 78.1598H158" stroke="#E5E6EB" stroke-width="0.463263"/>
<path d="M26.5848 82.0615H27.1317V84.6396C27.1317 84.8728 27.0855 85.0723 26.9932 85.238C26.9021 85.4037 26.7736 85.5304 26.6079 85.618C26.4422 85.7044 26.2481 85.7476 26.0255 85.7476C25.8207 85.7476 25.6367 85.7103 25.4733 85.6357C25.3112 85.5612 25.1827 85.4528 25.088 85.3108C24.9945 85.1676 24.9478 84.9936 24.9478 84.7888H25.4929C25.4929 84.8894 25.5159 84.9764 25.5621 85.0498C25.6094 85.1232 25.674 85.1806 25.7556 85.222C25.8385 85.2623 25.9332 85.2824 26.0397 85.2824C26.1557 85.2824 26.254 85.2581 26.3345 85.2096C26.4161 85.1599 26.4783 85.0871 26.5209 84.9912C26.5635 84.8953 26.5848 84.7781 26.5848 84.6396V82.0615ZM28.6813 85.7582C28.5085 85.7582 28.3523 85.7263 28.2126 85.6624C28.0729 85.5973 27.9622 85.5032 27.8805 85.38C27.8001 85.2569 27.7598 85.106 27.7598 84.9273C27.7598 84.7734 27.7894 84.6467 27.8486 84.5473C27.9078 84.4479 27.9877 84.3692 28.0883 84.3112C28.1889 84.2532 28.3014 84.2094 28.4256 84.1798C28.5499 84.1502 28.6766 84.1277 28.8056 84.1123C28.969 84.0934 29.1015 84.078 29.2033 84.0661C29.3051 84.0531 29.3791 84.0324 29.4253 84.004C29.4715 83.9756 29.4945 83.9294 29.4945 83.8655V83.8531C29.4945 83.698 29.4507 83.5778 29.3631 83.4926C29.2767 83.4074 29.1477 83.3648 28.9761 83.3648C28.7973 83.3648 28.6565 83.4044 28.5535 83.4837C28.4517 83.5619 28.3813 83.6489 28.3422 83.7448L27.8433 83.6311C27.9024 83.4654 27.9889 83.3316 28.1025 83.2298C28.2173 83.1269 28.3493 83.0523 28.4984 83.0061C28.6476 82.9588 28.8044 82.9351 28.969 82.9351C29.0779 82.9351 29.1933 82.9481 29.3152 82.9742C29.4383 82.999 29.5531 83.0452 29.6597 83.1126C29.7674 83.1801 29.8556 83.2766 29.9242 83.4021C29.9929 83.5264 30.0272 83.6879 30.0272 83.8868V85.6979H29.5087V85.325H29.4874C29.4531 85.3937 29.4016 85.4611 29.333 85.5274C29.2643 85.5937 29.1761 85.6488 29.0684 85.6925C28.9607 85.7363 28.8317 85.7582 28.6813 85.7582ZM28.7967 85.3321C28.9435 85.3321 29.069 85.3031 29.1732 85.2451C29.2785 85.1871 29.3584 85.1113 29.4129 85.0178C29.4685 84.9231 29.4963 84.8219 29.4963 84.7142V84.3626C29.4774 84.3816 29.4407 84.3993 29.3862 84.4159C29.333 84.4313 29.272 84.4449 29.2033 84.4568C29.1347 84.4674 29.0678 84.4775 29.0027 84.4869C28.9376 84.4952 28.8832 84.5023 28.8394 84.5082C28.7364 84.5213 28.6423 84.5432 28.557 84.5739C28.473 84.6047 28.4055 84.6491 28.3546 84.7071C28.3049 84.7639 28.2801 84.8397 28.2801 84.9344C28.2801 85.0658 28.3286 85.1652 28.4256 85.2327C28.5227 85.299 28.6464 85.3321 28.7967 85.3321ZM31.2652 84.0786V85.6979H30.7343V82.9706H31.2439V83.4145H31.2777C31.3404 83.2701 31.4386 83.1541 31.5724 83.0665C31.7073 82.9789 31.8772 82.9351 32.082 82.9351C32.2678 82.9351 32.4306 82.9742 32.5703 83.0523C32.7099 83.1292 32.8183 83.244 32.8952 83.3967C32.9721 83.5494 33.0106 83.7382 33.0106 83.9631V85.6979H32.4797V84.0271C32.4797 83.8294 32.4282 83.6749 32.3252 83.5636C32.2223 83.4512 32.0808 83.395 31.9009 83.395C31.7778 83.395 31.6683 83.4216 31.5724 83.4749C31.4777 83.5281 31.4025 83.6063 31.3469 83.7092C31.2925 83.811 31.2652 83.9341 31.2652 84.0786ZM35.0388 85.6979V85.3001L36.2692 84.0253C36.4006 83.8868 36.5089 83.7655 36.5941 83.6613C36.6806 83.5559 36.7451 83.4559 36.7877 83.3612C36.8303 83.2665 36.8516 83.1659 36.8516 83.0594C36.8516 82.9386 36.8232 82.8345 36.7664 82.7469C36.7096 82.6581 36.632 82.59 36.5338 82.5427C36.4355 82.4942 36.3249 82.4699 36.2017 82.4699C36.0715 82.4699 35.9579 82.4965 35.8608 82.5498C35.7638 82.6031 35.6892 82.6782 35.6371 82.7753C35.585 82.8724 35.559 82.986 35.559 83.1162H35.0352C35.0352 82.8948 35.0861 82.7013 35.1879 82.5356C35.2897 82.3699 35.4294 82.2414 35.6069 82.1503C35.7845 82.058 35.9863 82.0118 36.2124 82.0118C36.4409 82.0118 36.6421 82.0574 36.8161 82.1485C36.9913 82.2385 37.128 82.3616 37.2263 82.5178C37.3245 82.6729 37.3736 82.8481 37.3736 83.0434C37.3736 83.1783 37.3482 83.3103 37.2973 83.4394C37.2476 83.5684 37.1606 83.7122 37.0363 83.8708C36.912 84.0283 36.7392 84.2194 36.5178 84.4443L35.7951 85.2007V85.2274H37.4322V85.6979H35.0388ZM39.3711 85.7476C39.1273 85.7476 38.9095 85.7056 38.7177 85.6215C38.5272 85.5375 38.3762 85.4209 38.265 85.2717C38.1549 85.1214 38.0957 84.9474 38.0874 84.7497H38.6449C38.652 84.8574 38.6881 84.951 38.7532 85.0303C38.8195 85.1084 38.9059 85.1688 39.0125 85.2114C39.119 85.254 39.2374 85.2753 39.3676 85.2753C39.5108 85.2753 39.6375 85.2504 39.7476 85.2007C39.8588 85.151 39.9458 85.0818 40.0086 84.993C40.0713 84.903 40.1027 84.7994 40.1027 84.6823C40.1027 84.5603 40.0713 84.4532 40.0086 84.3609C39.947 84.2674 39.8565 84.194 39.7369 84.1407C39.6185 84.0874 39.4753 84.0608 39.3072 84.0608H39V83.6134H39.3072C39.4422 83.6134 39.5605 83.5891 39.6623 83.5406C39.7653 83.492 39.8458 83.4246 39.9038 83.3381C39.9618 83.2506 39.9908 83.1482 39.9908 83.031C39.9908 82.9185 39.9654 82.8209 39.9145 82.738C39.8647 82.654 39.7937 82.5883 39.7014 82.5409C39.6102 82.4936 39.5025 82.4699 39.3782 82.4699C39.2599 82.4699 39.1492 82.4918 39.0462 82.5356C38.9444 82.5782 38.8616 82.6398 38.7976 82.7202C38.7337 82.7996 38.6994 82.8948 38.6946 83.0061H38.1638C38.1697 82.8096 38.2277 82.6368 38.3378 82.4876C38.449 82.3385 38.5958 82.2219 38.7781 82.1379C38.9604 82.0538 39.1628 82.0118 39.3853 82.0118C39.6185 82.0118 39.8198 82.0574 39.989 82.1485C40.1595 82.2385 40.2909 82.3586 40.3832 82.509C40.4767 82.6593 40.5229 82.8238 40.5217 83.0026C40.5229 83.2062 40.4661 83.379 40.3513 83.521C40.2376 83.6631 40.0861 83.7584 39.8967 83.8069V83.8353C40.1382 83.872 40.3252 83.9679 40.4578 84.1229C40.5915 84.278 40.6578 84.4704 40.6566 84.7C40.6578 84.9001 40.6022 85.0794 40.4897 85.238C40.3785 85.3966 40.2264 85.5215 40.0334 85.6126C39.8405 85.7026 39.6197 85.7476 39.3711 85.7476Z" fill="#86909C"/>
<path d="M62.3666 82.0615H62.9134V84.6396C62.9134 84.8728 62.8673 85.0723 62.7749 85.238C62.6838 85.4037 62.5554 85.5304 62.3896 85.618C62.2239 85.7044 62.0298 85.7476 61.8073 85.7476C61.6025 85.7476 61.4184 85.7103 61.2551 85.6357C61.0929 85.5612 60.9645 85.4528 60.8698 85.3108C60.7762 85.1676 60.7295 84.9936 60.7295 84.7888H61.2746C61.2746 84.8894 61.2977 84.9764 61.3438 85.0498C61.3912 85.1232 61.4557 85.1806 61.5374 85.222C61.6202 85.2623 61.7149 85.2824 61.8215 85.2824C61.9375 85.2824 62.0357 85.2581 62.1162 85.2096C62.1979 85.1599 62.26 85.0871 62.3026 84.9912C62.3453 84.8953 62.3666 84.7781 62.3666 84.6396V82.0615ZM64.4631 85.7582C64.2902 85.7582 64.134 85.7263 63.9943 85.6624C63.8546 85.5973 63.744 85.5032 63.6623 85.38C63.5818 85.2569 63.5415 85.106 63.5415 84.9273C63.5415 84.7734 63.5711 84.6467 63.6303 84.5473C63.6895 84.4479 63.7694 84.3692 63.87 84.3112C63.9706 84.2532 64.0831 84.2094 64.2074 84.1798C64.3317 84.1502 64.4583 84.1277 64.5874 84.1123C64.7507 84.0934 64.8833 84.078 64.9851 84.0661C65.0869 84.0531 65.1609 84.0324 65.207 84.004C65.2532 83.9756 65.2763 83.9294 65.2763 83.8655V83.8531C65.2763 83.698 65.2325 83.5778 65.1449 83.4926C65.0585 83.4074 64.9295 83.3648 64.7578 83.3648C64.5791 83.3648 64.4382 83.4044 64.3352 83.4837C64.2334 83.5619 64.163 83.6489 64.1239 83.7448L63.625 83.6311C63.6842 83.4654 63.7706 83.3316 63.8842 83.2298C63.9991 83.1269 64.131 83.0523 64.2802 83.0061C64.4293 82.9588 64.5862 82.9351 64.7507 82.9351C64.8596 82.9351 64.975 82.9481 65.0969 82.9742C65.2201 82.999 65.3349 83.0452 65.4414 83.1126C65.5491 83.1801 65.6373 83.2766 65.706 83.4021C65.7746 83.5264 65.8089 83.6879 65.8089 83.8868V85.6979H65.2905V85.325H65.2692C65.2348 85.3937 65.1834 85.4611 65.1147 85.5274C65.046 85.5937 64.9579 85.6488 64.8501 85.6925C64.7424 85.7363 64.6134 85.7582 64.4631 85.7582ZM64.5785 85.3321C64.7253 85.3321 64.8507 85.3031 64.9549 85.2451C65.0603 85.1871 65.1402 85.1113 65.1946 85.0178C65.2502 84.9231 65.2781 84.8219 65.2781 84.7142V84.3626C65.2591 84.3816 65.2224 84.3993 65.168 84.4159C65.1147 84.4313 65.0537 84.4449 64.9851 84.4568C64.9164 84.4674 64.8496 84.4775 64.7844 84.4869C64.7193 84.4952 64.6649 84.5023 64.6211 84.5082C64.5181 84.5213 64.424 84.5432 64.3388 84.5739C64.2547 84.6047 64.1873 84.6491 64.1364 84.7071C64.0866 84.7639 64.0618 84.8397 64.0618 84.9344C64.0618 85.0658 64.1103 85.1652 64.2074 85.2327C64.3045 85.299 64.4281 85.3321 64.5785 85.3321ZM67.047 84.0786V85.6979H66.5161V82.9706H67.0257V83.4145H67.0594C67.1221 83.2701 67.2204 83.1541 67.3541 83.0665C67.4891 82.9789 67.6589 82.9351 67.8637 82.9351C68.0496 82.9351 68.2123 82.9742 68.352 83.0523C68.4917 83.1292 68.6 83.244 68.6769 83.3967C68.7539 83.5494 68.7923 83.7382 68.7923 83.9631V85.6979H68.2615V84.0271C68.2615 83.8294 68.21 83.6749 68.107 83.5636C68.004 83.4512 67.8625 83.395 67.6826 83.395C67.5595 83.395 67.45 83.4216 67.3541 83.4749C67.2594 83.5281 67.1843 83.6063 67.1286 83.7092C67.0742 83.811 67.047 83.9341 67.047 84.0786ZM70.8205 85.6979V85.3001L72.051 84.0253C72.1824 83.8868 72.2907 83.7655 72.3759 83.6613C72.4623 83.5559 72.5268 83.4559 72.5694 83.3612C72.612 83.2665 72.6333 83.1659 72.6333 83.0594C72.6333 82.9386 72.6049 82.8345 72.5481 82.7469C72.4913 82.6581 72.4138 82.59 72.3155 82.5427C72.2173 82.4942 72.1066 82.4699 71.9835 82.4699C71.8533 82.4699 71.7396 82.4965 71.6426 82.5498C71.5455 82.6031 71.4709 82.6782 71.4189 82.7753C71.3668 82.8724 71.3407 82.986 71.3407 83.1162H70.8169C70.8169 82.8948 70.8678 82.7013 70.9696 82.5356C71.0714 82.3699 71.2111 82.2414 71.3887 82.1503C71.5662 82.058 71.7681 82.0118 71.9941 82.0118C72.2226 82.0118 72.4238 82.0574 72.5978 82.1485C72.773 82.2385 72.9097 82.3616 73.008 82.5178C73.1062 82.6729 73.1554 82.8481 73.1554 83.0434C73.1554 83.1783 73.1299 83.3103 73.079 83.4394C73.0293 83.5684 72.9423 83.7122 72.818 83.8708C72.6937 84.0283 72.5209 84.2194 72.2995 84.4443L71.5769 85.2007V85.2274H73.214V85.6979H70.8205ZM75.1156 85.7476C74.8611 85.7476 74.6362 85.7038 74.4409 85.6162C74.2467 85.5286 74.0946 85.4079 73.9846 85.254C73.8745 85.1001 73.82 84.9249 73.8212 84.7284C73.82 84.5745 73.8514 84.4331 73.9153 84.3041C73.9804 84.1738 74.0686 84.0655 74.1799 83.9791C74.2911 83.8915 74.4154 83.8359 74.5527 83.8122V83.7909C74.3716 83.7471 74.2266 83.6501 74.1177 83.4997C74.0088 83.3494 73.955 83.1766 73.9561 82.9813C73.955 82.7954 74.0041 82.6297 74.1035 82.4841C74.2041 82.3373 74.342 82.2219 74.5172 82.1379C74.6924 82.0538 74.8919 82.0118 75.1156 82.0118C75.3369 82.0118 75.5346 82.0544 75.7086 82.1396C75.8838 82.2237 76.0217 82.3391 76.1223 82.4859C76.223 82.6315 76.2739 82.7966 76.275 82.9813C76.2739 83.1766 76.2182 83.3494 76.1081 83.4997C75.998 83.6501 75.8548 83.7471 75.6784 83.7909V83.8122C75.8146 83.8359 75.9371 83.8915 76.046 83.9791C76.1561 84.0655 76.2437 84.1738 76.3088 84.3041C76.3751 84.4331 76.4088 84.5745 76.41 84.7284C76.4088 84.9249 76.3532 85.1001 76.2431 85.254C76.133 85.4079 75.9803 85.5286 75.785 85.6162C75.5908 85.7038 75.3677 85.7476 75.1156 85.7476ZM75.1156 85.2984C75.2659 85.2984 75.3961 85.2735 75.5062 85.2238C75.6163 85.1729 75.7015 85.1025 75.7619 85.0125C75.8223 84.9214 75.853 84.8148 75.8542 84.6929C75.853 84.5662 75.8199 84.4544 75.7548 84.3573C75.6909 84.2603 75.6039 84.1839 75.4938 84.1283C75.3837 84.0726 75.2576 84.0448 75.1156 84.0448C74.9724 84.0448 74.8451 84.0726 74.7338 84.1283C74.6226 84.1839 74.535 84.2603 74.4711 84.3573C74.4071 84.4544 74.3758 84.5662 74.377 84.6929C74.3758 84.8148 74.4048 84.9214 74.464 85.0125C74.5243 85.1025 74.6101 85.1729 74.7214 85.2238C74.8327 85.2735 74.9641 85.2984 75.1156 85.2984ZM75.1156 83.6063C75.2363 83.6063 75.3435 83.582 75.437 83.5335C75.5305 83.4849 75.6039 83.4175 75.6571 83.331C75.7116 83.2446 75.7394 83.1434 75.7406 83.0274C75.7394 82.9138 75.7122 82.8144 75.6589 82.7291C75.6068 82.6439 75.534 82.5782 75.4405 82.532C75.347 82.4847 75.2387 82.461 75.1156 82.461C74.9901 82.461 74.88 82.4847 74.7853 82.532C74.6918 82.5782 74.619 82.6439 74.5669 82.7291C74.5149 82.8144 74.4894 82.9138 74.4906 83.0274C74.4894 83.1434 74.5154 83.2446 74.5687 83.331C74.622 83.4175 74.6954 83.4849 74.7889 83.5335C74.8836 83.582 74.9925 83.6063 75.1156 83.6063Z" fill="#86909C"/>
<path d="M96.984 85.6979V82.0615H99.2389V82.5338H97.5326V83.6418H99.0774V84.1123H97.5326V85.6979H96.984ZM100.846 85.7529C100.578 85.7529 100.346 85.6955 100.152 85.5807C99.9591 85.4647 99.8099 85.3019 99.7046 85.0924C99.6004 84.8817 99.5483 84.6349 99.5483 84.352C99.5483 84.0726 99.6004 83.8264 99.7046 83.6134C99.8099 83.4003 99.9567 83.234 100.145 83.1144C100.334 82.9949 100.556 82.9351 100.809 82.9351C100.963 82.9351 101.112 82.9605 101.256 83.0114C101.401 83.0623 101.53 83.1422 101.645 83.2511C101.76 83.36 101.851 83.5015 101.917 83.6755C101.983 83.8483 102.016 84.0584 102.016 84.3058V84.494H99.8484V84.0963H101.496C101.496 83.9566 101.468 83.8329 101.411 83.7252C101.354 83.6163 101.274 83.5305 101.171 83.4678C101.069 83.405 100.95 83.3737 100.813 83.3737C100.663 83.3737 100.533 83.4104 100.422 83.4837C100.312 83.5559 100.227 83.6506 100.166 83.7678C100.107 83.8838 100.077 84.0099 100.077 84.146V84.4568C100.077 84.639 100.109 84.7941 100.173 84.922C100.238 85.0498 100.329 85.1474 100.445 85.2149C100.561 85.2812 100.697 85.3144 100.852 85.3144C100.952 85.3144 101.044 85.3001 101.127 85.2717C101.21 85.2421 101.281 85.1983 101.342 85.1403C101.402 85.0823 101.448 85.0107 101.48 84.9255L101.983 85.0161C101.942 85.164 101.87 85.2936 101.766 85.4049C101.663 85.515 101.533 85.6008 101.377 85.6624C101.222 85.7227 101.045 85.7529 100.846 85.7529ZM102.648 85.6979V82.0615H103.179V83.4127H103.211C103.242 83.3559 103.286 83.2902 103.344 83.2156C103.402 83.1411 103.483 83.076 103.586 83.0203C103.689 82.9635 103.825 82.9351 103.994 82.9351C104.214 82.9351 104.411 82.9907 104.583 83.102C104.756 83.2133 104.892 83.3737 104.99 83.5832C105.089 83.7927 105.139 84.0448 105.139 84.3396C105.139 84.6343 105.09 84.887 104.992 85.0977C104.894 85.3073 104.759 85.4688 104.587 85.5825C104.415 85.6949 104.219 85.7511 103.999 85.7511C103.834 85.7511 103.698 85.7233 103.593 85.6677C103.488 85.6121 103.407 85.547 103.348 85.4724C103.288 85.3978 103.243 85.3315 103.211 85.2735H103.167V85.6979H102.648ZM103.168 84.3342C103.168 84.526 103.196 84.6941 103.252 84.8385C103.307 84.9829 103.388 85.096 103.493 85.1776C103.599 85.2581 103.728 85.2984 103.88 85.2984C104.039 85.2984 104.171 85.2564 104.278 85.1723C104.385 85.0871 104.465 84.9717 104.519 84.8261C104.575 84.6805 104.603 84.5165 104.603 84.3342C104.603 84.1543 104.576 83.9927 104.521 83.8495C104.468 83.7063 104.388 83.5932 104.28 83.5104C104.173 83.4275 104.04 83.3861 103.88 83.3861C103.726 83.3861 103.596 83.4257 103.49 83.505C103.384 83.5844 103.304 83.695 103.25 83.8371C103.196 83.9791 103.168 84.1448 103.168 84.3342ZM108.431 82.0615V85.6979H107.881V82.6119H107.859L106.989 83.1801V82.6546L107.897 82.0615H108.431ZM110.615 85.7476C110.392 85.7476 110.192 85.705 110.015 85.6198C109.838 85.5333 109.698 85.415 109.592 85.2646C109.487 85.1143 109.431 84.9427 109.424 84.7497H109.956C109.969 84.906 110.039 85.0344 110.164 85.135C110.289 85.2356 110.44 85.2859 110.615 85.2859C110.755 85.2859 110.878 85.254 110.986 85.1901C111.095 85.125 111.18 85.0356 111.242 84.922C111.305 84.8083 111.336 84.6787 111.336 84.5331C111.336 84.3851 111.304 84.2532 111.24 84.1372C111.176 84.0211 111.088 83.93 110.975 83.8637C110.864 83.7974 110.736 83.7637 110.592 83.7625C110.482 83.7625 110.371 83.7814 110.26 83.8193C110.149 83.8572 110.059 83.9069 109.99 83.9685L109.488 83.8939L109.692 82.0615H111.691V82.532H110.148L110.033 83.5494H110.054C110.125 83.4808 110.219 83.4234 110.336 83.3772C110.455 83.331 110.581 83.308 110.716 83.308C110.938 83.308 111.135 83.3606 111.307 83.466C111.481 83.5713 111.618 83.7152 111.718 83.8974C111.818 84.0786 111.868 84.2869 111.867 84.5224C111.868 84.758 111.815 84.9681 111.707 85.1528C111.6 85.3374 111.452 85.483 111.263 85.5896C111.075 85.6949 110.859 85.7476 110.615 85.7476Z" fill="#86909C"/>
<path d="M132.485 85.6979V82.0615H134.74V82.5338H133.034V83.6418H134.578V84.1123H133.034V85.6979H132.485ZM136.347 85.7529C136.079 85.7529 135.847 85.6955 135.653 85.5807C135.46 85.4647 135.311 85.3019 135.206 85.0924C135.101 84.8817 135.049 84.6349 135.049 84.352C135.049 84.0726 135.101 83.8264 135.206 83.6134C135.311 83.4003 135.458 83.234 135.646 83.1144C135.835 82.9949 136.057 82.9351 136.31 82.9351C136.464 82.9351 136.613 82.9605 136.757 83.0114C136.902 83.0623 137.031 83.1422 137.146 83.2511C137.261 83.36 137.352 83.5015 137.418 83.6755C137.484 83.8483 137.517 84.0584 137.517 84.3058V84.494H135.349V84.0963H136.997C136.997 83.9566 136.969 83.8329 136.912 83.7252C136.855 83.6163 136.775 83.5305 136.672 83.4678C136.57 83.405 136.451 83.3737 136.314 83.3737C136.164 83.3737 136.034 83.4104 135.923 83.4837C135.813 83.5559 135.728 83.6506 135.667 83.7678C135.608 83.8838 135.578 84.0099 135.578 84.146V84.4568C135.578 84.639 135.61 84.7941 135.674 84.922C135.739 85.0498 135.83 85.1474 135.946 85.2149C136.062 85.2812 136.198 85.3144 136.353 85.3144C136.453 85.3144 136.545 85.3001 136.628 85.2717C136.711 85.2421 136.782 85.1983 136.843 85.1403C136.903 85.0823 136.949 85.0107 136.981 84.9255L137.484 85.0161C137.443 85.164 137.371 85.2936 137.267 85.4049C137.164 85.515 137.034 85.6008 136.878 85.6624C136.723 85.7227 136.546 85.7529 136.347 85.7529ZM138.149 85.6979V82.0615H138.68V83.4127H138.712C138.743 83.3559 138.787 83.2902 138.845 83.2156C138.903 83.1411 138.984 83.076 139.087 83.0203C139.189 82.9635 139.326 82.9351 139.495 82.9351C139.715 82.9351 139.912 82.9907 140.084 83.102C140.257 83.2133 140.393 83.3737 140.491 83.5832C140.59 83.7927 140.64 84.0448 140.64 84.3396C140.64 84.6343 140.591 84.887 140.493 85.0977C140.395 85.3073 140.26 85.4688 140.088 85.5825C139.916 85.6949 139.72 85.7511 139.5 85.7511C139.335 85.7511 139.199 85.7233 139.094 85.6677C138.989 85.6121 138.908 85.547 138.849 85.4724C138.789 85.3978 138.744 85.3315 138.712 85.2735H138.667V85.6979H138.149ZM138.669 84.3342C138.669 84.526 138.697 84.6941 138.753 84.8385C138.808 84.9829 138.889 85.096 138.994 85.1776C139.1 85.2581 139.229 85.2984 139.381 85.2984C139.54 85.2984 139.672 85.2564 139.779 85.1723C139.886 85.0871 139.966 84.9717 140.02 84.8261C140.076 84.6805 140.104 84.5165 140.104 84.3342C140.104 84.1543 140.077 83.9927 140.022 83.8495C139.969 83.7063 139.888 83.5932 139.781 83.5104C139.674 83.4275 139.541 83.3861 139.381 83.3861C139.227 83.3861 139.097 83.4257 138.991 83.505C138.885 83.5844 138.805 83.695 138.751 83.8371C138.696 83.9791 138.669 84.1448 138.669 84.3342ZM142.552 85.6979V85.3001L143.783 84.0253C143.914 83.8868 144.023 83.7655 144.108 83.6613C144.194 83.5559 144.259 83.4559 144.301 83.3612C144.344 83.2665 144.365 83.1659 144.365 83.0594C144.365 82.9386 144.337 82.8345 144.28 82.7469C144.223 82.6581 144.146 82.59 144.047 82.5427C143.949 82.4942 143.839 82.4699 143.715 82.4699C143.585 82.4699 143.472 82.4965 143.375 82.5498C143.277 82.6031 143.203 82.6782 143.151 82.7753C143.099 82.8724 143.073 82.986 143.073 83.1162H142.549C142.549 82.8948 142.6 82.7013 142.702 82.5356C142.803 82.3699 142.943 82.2414 143.121 82.1503C143.298 82.058 143.5 82.0118 143.726 82.0118C143.955 82.0118 144.156 82.0574 144.33 82.1485C144.505 82.2385 144.642 82.3616 144.74 82.5178C144.838 82.6729 144.887 82.8481 144.887 83.0434C144.887 83.1783 144.862 83.3103 144.811 83.4394C144.761 83.5684 144.674 83.7122 144.55 83.8708C144.426 84.0283 144.253 84.2194 144.031 84.4443L143.309 85.2007V85.2274H144.946V85.6979H142.552ZM145.741 85.6979L147.329 82.5587V82.532H145.493V82.0615H147.897V82.548L146.315 85.6979H145.741Z" fill="#86909C"/>
<path d="M26 65.1979L53 42.7986L61.5 48.6978L74.8507 48.6979L97 31.6979H105.5H116.5L121.5 36.8139L155.5 10.0001" stroke="#5271FF" stroke-width="0.926526" stroke-linejoin="round"/>
<path d="M53 43.0001L24.1018 65.1979V78.4457H155.322V36.2431L155.5 9.50012L121.5 36.5001L115.5 31.5001H113.5H104L97.5 31.8636L89.5 37.5001L74.8507 48.0002L61.5 48.0001L53 43.0001Z" fill="url(#paint0_linear_2029_150)"/>
<defs>
<linearGradient id="paint0_linear_2029_150" x1="89.8009" y1="9.50012" x2="89.8009" y2="78.4457" gradientUnits="userSpaceOnUse">
<stop stop-color="#165DFF" stop-opacity="0.2"/>
<stop offset="1" stop-color="#165DFF" stop-opacity="0"/>
</linearGradient>
</defs>
</svg>
