<svg width="24" height="24" viewBox="0 0 24 24" fill="none" xmlns="http://www.w3.org/2000/svg">
<path d="M3.99965 23H19.9996C20.2649 23 20.5192 22.8946 20.7068 22.7071C20.8943 22.5196 20.9996 22.2652 20.9996 22V9.752C21.1046 9.65707 21.2047 9.55695 21.2996 9.452C21.6779 8.97035 21.9406 8.40826 22.0673 7.80907C22.1941 7.20987 22.1815 6.58958 22.0306 5.996L20.9696 1.758C20.9157 1.54157 20.7909 1.3494 20.6151 1.21205C20.4393 1.0747 20.2227 1.00006 19.9996 1H3.99965C3.77658 1.00006 3.55995 1.0747 3.38418 1.21205C3.20842 1.3494 3.08363 1.54157 3.02965 1.758L1.97165 5.994C1.82037 6.58735 1.80734 7.20752 1.93355 7.8067C2.05977 8.40588 2.32187 8.96809 2.69965 9.45C2.79457 9.55495 2.8947 9.65508 2.99965 9.75V22C2.99965 22.2652 3.105 22.5196 3.29254 22.7071C3.48008 22.8946 3.73443 23 3.99965 23ZM12.9996 21H10.9996V16H12.9996V21ZM19.2186 3L20.0886 6.479C20.1634 6.77818 20.169 7.09046 20.105 7.39213C20.041 7.69379 19.9091 7.9769 19.7193 8.21993C19.5294 8.46297 19.2867 8.65954 19.0095 8.79471C18.7324 8.92987 18.428 9.00008 18.1196 9C17.6119 8.99678 17.1236 8.80442 16.7501 8.46048C16.3766 8.11655 16.1447 7.64574 16.0996 7.14L15.7536 3H19.2186ZM10.2526 3H13.7466L14.0626 6.8C14.0863 7.07988 14.0516 7.36163 13.9607 7.62741C13.8699 7.89319 13.7248 8.13721 13.5347 8.34401C13.3447 8.55082 13.1137 8.7159 12.8565 8.82882C12.5994 8.94174 12.3215 9.00003 12.0406 9H11.9586C11.6778 9.00003 11.3999 8.94174 11.1427 8.82882C10.8856 8.7159 10.6546 8.55082 10.4645 8.34401C10.2745 8.13721 10.1294 7.89319 10.0385 7.62741C9.94767 7.36163 9.91297 7.07988 9.93665 6.8L10.2526 3ZM8.99365 9.7C9.37147 10.1095 9.82993 10.4363 10.3402 10.6601C10.8505 10.8838 11.4015 10.9995 11.9586 11H12.0406C12.5978 10.9995 13.1488 10.8838 13.6591 10.6601C14.1694 10.4363 14.6278 10.1095 15.0056 9.7C15.0366 9.666 15.0576 9.624 15.0876 9.59C15.556 10.1472 16.1691 10.5643 16.8593 10.7955C17.5495 11.0266 18.2902 11.0628 18.9996 10.9V21H14.9996V15C14.9996 14.7348 14.8943 14.4804 14.7068 14.2929C14.5192 14.1054 14.2649 14 13.9996 14H9.99965C9.73443 14 9.48008 14.1054 9.29254 14.2929C9.105 14.4804 8.99965 14.7348 8.99965 15V21H4.99965V10.9C5.70921 11.0627 6.4499 11.0263 7.14014 10.795C7.83038 10.5637 8.44339 10.1464 8.91165 9.589C8.94165 9.623 8.96265 9.665 8.99365 9.7ZM3.91065 6.479L4.78065 3H8.24565L7.89965 7.14C7.85463 7.64574 7.62272 8.11655 7.2492 8.46048C6.87568 8.80442 6.38738 8.99678 5.87965 9C5.57127 9.00008 5.26692 8.92987 4.98975 8.79471C4.71257 8.65954 4.46985 8.46297 4.28003 8.21993C4.09021 7.9769 3.95828 7.69379 3.89428 7.39213C3.83027 7.09046 3.83587 6.77818 3.91065 6.479Z" fill="#5271FF"/>
</svg>
