<svg width="23" height="26" viewBox="0 0 23 26" fill="none" xmlns="http://www.w3.org/2000/svg">
<path d="M17.1847 11.9292C18.4541 11.7228 19.4313 10.4638 19.4341 8.93851C19.4341 7.43529 18.4868 6.18892 17.2447 5.95312" stroke="#C06EF3" stroke-width="0.986883" stroke-linecap="round" stroke-linejoin="round"/>
<path d="M18.8599 15.4595C20.0892 15.6721 20.9473 16.17 20.9473 17.1964C20.9473 17.9027 20.5432 18.3617 19.8899 18.6501" stroke="#C06EF3" stroke-width="0.986883" stroke-linecap="round" stroke-linejoin="round"/>
<path fill-rule="evenodd" clip-rule="evenodd" d="M11.7243 15.8948C8.79977 15.8948 6.302 16.4074 6.302 18.4549C6.302 20.5013 8.7843 21.0287 11.7243 21.0287C14.6488 21.0287 17.1457 20.5213 17.1457 18.4728C17.1457 16.4243 14.6643 15.8948 11.7243 15.8948Z" stroke="#C06EF3" stroke-width="0.986883" stroke-linecap="round" stroke-linejoin="round"/>
<path fill-rule="evenodd" clip-rule="evenodd" d="M11.7245 12.9725C13.6435 12.9725 15.1995 11.1734 15.1995 8.95229C15.1995 6.7322 13.6435 4.93213 11.7245 4.93213C9.8054 4.93213 8.24942 6.7322 8.24942 8.95229C8.24214 11.165 9.7863 12.9651 11.699 12.9725H11.7245Z" stroke="#C06EF3" stroke-width="0.986883" stroke-linecap="round" stroke-linejoin="round"/>
<path d="M6.26303 11.9292C4.99276 11.7228 4.0164 10.4638 4.01367 8.93851C4.01367 7.43529 4.96091 6.18892 6.20297 5.95312" stroke="#C06EF3" stroke-width="0.986883" stroke-linecap="round" stroke-linejoin="round"/>
<path d="M4.588 15.4595C3.35868 15.6721 2.50061 16.17 2.50061 17.1964C2.50061 17.9027 2.90462 18.3617 3.55795 18.6501" stroke="#C06EF3" stroke-width="0.986883" stroke-linecap="round" stroke-linejoin="round"/>
</svg>
