<svg width="14" height="18" viewBox="0 0 14 18" fill="none" xmlns="http://www.w3.org/2000/svg">
<path d="M3.66536 3.99999C3.66536 3.34072 3.86086 2.69625 4.22713 2.14809C4.5934 1.59993 5.114 1.17268 5.72309 0.920393C6.33217 0.668101 7.0024 0.60209 7.649 0.730707C8.2956 0.859324 8.88955 1.17679 9.35572 1.64297C9.8219 2.10914 10.1394 2.70309 10.268 3.34969C10.3966 3.99629 10.3306 4.66652 10.0783 5.2756C9.826 5.88469 9.39876 6.40529 8.8506 6.77156C8.30243 7.13783 7.65797 7.33332 6.9987 7.33332C6.11464 7.33332 5.2668 6.98214 4.64168 6.35701C4.01655 5.73189 3.66536 4.88405 3.66536 3.99999V3.99999ZM1.16536 17.3333H12.832C13.053 17.3333 13.265 17.2455 13.4213 17.0892C13.5776 16.933 13.6654 16.721 13.6654 16.5V14C13.6654 13.1159 13.3142 12.2681 12.6891 11.643C12.0639 11.0178 11.2161 10.6667 10.332 10.6667H3.66536C2.78131 10.6667 1.93346 11.0178 1.30834 11.643C0.683221 12.2681 0.332031 13.1159 0.332031 14V16.5C0.332031 16.721 0.419829 16.933 0.576109 17.0892C0.732389 17.2455 0.944351 17.3333 1.16536 17.3333Z" fill="#5271FF"/>
</svg>
