<svg width="20" height="16" viewBox="0 0 20 16" fill="none" xmlns="http://www.w3.org/2000/svg">
<path d="M6 0C6.59334 0 7.17336 0.175947 7.66671 0.505591C8.16006 0.835236 8.54458 1.30377 8.77164 1.85195C8.9987 2.40013 9.05811 3.00333 8.94236 3.58527C8.8266 4.16721 8.54088 4.70176 8.12132 5.12132C7.70176 5.54088 7.16721 5.8266 6.58527 5.94236C6.00333 6.05811 5.40013 5.9987 4.85195 5.77164C4.30377 5.54458 3.83524 5.16006 3.50559 4.66671C3.17595 4.17336 3 3.59334 3 3C3 2.20435 3.31607 1.44129 3.87868 0.87868C4.44129 0.316071 5.20435 0 6 0ZM1 16H11C11.2652 16 11.5196 15.8946 11.7071 15.7071C11.8946 15.5196 12 15.2652 12 15V13C12 12.2044 11.6839 11.4413 11.1213 10.8787C10.5587 10.3161 9.79565 10 9 10H3C2.20435 10 1.44129 10.3161 0.87868 10.8787C0.316071 11.4413 0 12.2044 0 13V15C0 15.2652 0.105357 15.5196 0.292893 15.7071C0.48043 15.8946 0.734784 16 1 16ZM19 0H14C13.7348 0 13.4804 0.105357 13.2929 0.292893C13.1054 0.48043 13 0.734784 13 1C13 1.26522 13.1054 1.51957 13.2929 1.70711C13.4804 1.89464 13.7348 2 14 2H19C19.2652 2 19.5196 1.89464 19.7071 1.70711C19.8946 1.51957 20 1.26522 20 1C20 0.734784 19.8946 0.48043 19.7071 0.292893C19.5196 0.105357 19.2652 0 19 0ZM19 4H14C13.7348 4 13.4804 4.10536 13.2929 4.29289C13.1054 4.48043 13 4.73478 13 5C13 5.26522 13.1054 5.51957 13.2929 5.70711C13.4804 5.89464 13.7348 6 14 6H19C19.2652 6 19.5196 5.89464 19.7071 5.70711C19.8946 5.51957 20 5.26522 20 5C20 4.73478 19.8946 4.48043 19.7071 4.29289C19.5196 4.10536 19.2652 4 19 4ZM19 8H14C13.7348 8 13.4804 8.10536 13.2929 8.29289C13.1054 8.48043 13 8.73478 13 9C13 9.26522 13.1054 9.51957 13.2929 9.70711C13.4804 9.89464 13.7348 10 14 10H19C19.2652 10 19.5196 9.89464 19.7071 9.70711C19.8946 9.51957 20 9.26522 20 9C20 8.73478 19.8946 8.48043 19.7071 8.29289C19.5196 8.10536 19.2652 8 19 8Z" fill="#A3AED0"/>
</svg>
