<svg width="548" height="384" viewBox="0 0 548 384" fill="none" xmlns="http://www.w3.org/2000/svg">
<path d="M535.698 60.1C529.398 36.4 510.898 17.8 487.398 11.5C444.798 0 273.998 0 273.998 0C273.998 0 103.198 0 60.5984 11.5C37.0984 17.8 18.5984 36.4 12.2984 60.1C0.898438 103 0.898438 192.4 0.898438 192.4C0.898438 192.4 0.898438 281.8 12.2984 324.7C18.5984 348.4 37.0984 366.2 60.5984 372.5C103.198 384 273.998 384 273.998 384C273.998 384 444.798 384 487.398 372.5C510.898 366.2 529.398 348.3 535.698 324.7C547.098 281.8 547.098 192.4 547.098 192.4C547.098 192.4 547.098 103 535.698 60.1ZM218.198 273.6V111.2L360.898 192.4L218.198 273.6Z" fill="#5271FF"/>
</svg>
